<svg width="1440" height="360" viewBox="0 0 1440 360" fill="none" xmlns="http://www.w3.org/2000/svg">
<rect width="1440" height="360" rx="180" fill="white"/>
<g clip-path="url(#clip0_1050_22)">
<path d="M624.565 144.427C624.565 149.778 625.144 154.116 626.157 157.297C627.315 160.478 628.762 163.949 630.788 167.709C631.511 168.865 631.801 170.022 631.801 171.034C631.801 172.481 630.933 173.927 629.051 175.373L619.935 181.446C618.632 182.314 617.33 182.748 616.172 182.748C614.725 182.748 613.278 182.024 611.831 180.723C609.805 178.554 608.069 176.24 606.622 173.927C605.175 171.468 603.728 168.721 602.136 165.395C590.849 178.699 576.667 185.35 559.592 185.35C547.436 185.35 537.741 181.88 530.65 174.939C523.56 167.998 519.942 158.743 519.942 147.175C519.942 134.883 524.283 124.905 533.11 117.386C541.937 109.867 553.659 106.107 568.564 106.107C573.484 106.107 578.548 106.541 583.903 107.264C589.257 107.987 594.756 109.144 600.544 110.445V99.8888C600.544 88.8988 598.229 81.2347 593.743 76.7519C589.112 72.2692 581.298 70.1001 570.155 70.1001C565.091 70.1001 559.881 70.6785 554.527 71.98C549.173 73.2814 543.963 74.8721 538.899 76.8966C536.583 77.9088 534.847 78.4872 533.834 78.7764C532.821 79.0656 532.097 79.2102 531.518 79.2102C529.493 79.2102 528.48 77.7642 528.48 74.7275V67.6418C528.48 65.3281 528.769 63.5929 529.493 62.5806C530.216 61.5684 531.518 60.5562 533.544 59.5439C538.609 56.941 544.687 54.772 551.778 53.0367C558.868 51.1568 566.393 50.2892 574.352 50.2892C591.572 50.2892 604.162 54.1935 612.265 62.0022C620.224 69.8109 624.276 81.6685 624.276 97.5751V144.427H624.565ZM565.814 166.407C570.59 166.407 575.51 165.54 580.719 163.804C585.928 162.069 590.559 158.888 594.466 154.55C596.782 151.802 598.518 148.765 599.386 145.295C600.255 141.824 600.833 137.631 600.833 132.714V126.641C596.637 125.628 592.151 124.761 587.52 124.182C582.89 123.604 578.404 123.315 573.918 123.315C564.222 123.315 557.132 125.195 552.356 129.099C547.581 133.003 545.266 138.498 545.266 145.729C545.266 152.525 547.002 157.586 550.62 161.057C554.093 164.672 559.158 166.407 565.814 166.407ZM682.014 182.024C679.41 182.024 677.673 181.591 676.515 180.578C675.358 179.711 674.345 177.686 673.477 174.939L639.47 63.1591C638.602 60.267 638.168 58.3871 638.168 57.3749C638.168 55.0612 639.326 53.7597 641.641 53.7597H655.822C658.572 53.7597 660.453 54.1935 661.466 55.2058C662.623 56.0734 663.492 58.0979 664.36 60.8454L688.671 156.574L711.245 60.8454C711.969 57.9533 712.837 56.0734 713.995 55.2058C715.152 54.3382 717.178 53.7597 719.783 53.7597H731.359C734.109 53.7597 735.99 54.1935 737.148 55.2058C738.305 56.0734 739.318 58.0979 739.897 60.8454L762.761 157.731L787.795 60.8454C788.664 57.9533 789.677 56.0734 790.69 55.2058C791.847 54.3382 793.728 53.7597 796.333 53.7597H809.791C812.106 53.7597 813.409 54.9166 813.409 57.3749C813.409 58.0979 813.264 58.8209 813.119 59.6885C812.974 60.5562 812.685 61.713 812.106 63.3037L777.232 175.083C776.363 177.976 775.351 179.855 774.193 180.723C773.035 181.591 771.154 182.169 768.694 182.169H756.249C753.5 182.169 751.619 181.735 750.461 180.723C749.303 179.711 748.29 177.831 747.711 174.939L725.282 81.6685L702.997 174.794C702.273 177.686 701.405 179.566 700.247 180.578C699.09 181.591 697.064 182.024 694.459 182.024H682.014ZM867.963 185.929C860.439 185.929 852.914 185.061 845.678 183.326C838.443 181.591 832.799 179.711 829.037 177.542C826.722 176.24 825.13 174.794 824.551 173.493C823.972 172.191 823.683 170.745 823.683 169.444V162.069C823.683 159.032 824.84 157.586 827.011 157.586C827.879 157.586 828.748 157.731 829.616 158.02C830.484 158.309 831.786 158.888 833.234 159.466C838.154 161.635 843.508 163.37 849.151 164.527C854.94 165.684 860.583 166.263 866.372 166.263C875.488 166.263 882.579 164.672 887.499 161.491C892.419 158.309 895.024 153.682 895.024 147.753C895.024 143.704 893.721 140.378 891.117 137.631C888.512 134.883 883.592 132.425 876.501 130.111L855.518 123.604C844.955 120.278 837.141 115.362 832.365 108.854C827.59 102.492 825.13 95.406 825.13 87.8865C825.13 81.8131 826.432 76.4627 829.037 71.8354C831.642 67.208 835.115 63.1591 839.456 59.9778C843.797 56.6518 848.717 54.1935 854.506 52.4583C860.294 50.723 866.372 50 872.739 50C875.922 50 879.251 50.1446 882.434 50.5784C885.762 51.0122 888.801 51.5907 891.84 52.1691C894.734 52.8921 897.484 53.6151 900.088 54.4828C902.693 55.3504 904.719 56.218 906.166 57.0857C908.192 58.2425 909.639 59.3993 910.507 60.7008C911.376 61.8576 911.81 63.4483 911.81 65.4727V72.2692C911.81 75.3059 910.652 76.8966 908.481 76.8966C907.324 76.8966 905.443 76.3181 902.982 75.1613C894.734 71.4016 885.473 69.5217 875.199 69.5217C866.95 69.5217 860.439 70.8231 855.953 73.5706C851.467 76.3181 849.151 80.5117 849.151 86.4405C849.151 90.4894 850.598 93.96 853.493 96.7075C856.387 99.455 861.741 102.202 869.41 104.661L889.959 111.168C900.378 114.494 907.903 119.121 912.388 125.05C916.874 130.979 919.045 137.775 919.045 145.295C919.045 151.513 917.743 157.152 915.283 162.069C912.678 166.986 909.205 171.324 904.719 174.794C900.233 178.409 894.879 181.012 888.656 182.892C882.145 184.917 875.343 185.929 867.963 185.929Z" fill="#252F3E"/>
<path fill-rule="evenodd" clip-rule="evenodd" d="M895.313 256.207C847.704 291.346 778.534 310 719.059 310C635.708 310 560.605 279.199 503.879 228.009C499.394 223.96 503.445 218.465 508.799 221.646C570.155 257.219 645.837 278.765 724.124 278.765C776.942 278.765 834.97 267.775 888.367 245.217C896.326 241.602 903.127 250.423 895.313 256.207Z" fill="#FF9900"/>
<path fill-rule="evenodd" clip-rule="evenodd" d="M915.138 233.649C909.06 225.84 874.909 229.889 859.426 231.769C854.795 232.347 854.072 228.298 858.268 225.262C885.473 206.174 930.188 211.669 935.397 218.031C940.607 224.539 933.95 269.222 908.482 290.623C904.574 293.949 900.812 292.214 902.549 287.876C908.337 273.56 921.216 241.313 915.138 233.649Z" fill="#FF9900"/>
</g>
<defs>
<clipPath id="clip0_1050_22">
<rect width="444" height="260" fill="white" transform="translate(498 50)"/>
</clipPath>
</defs>
</svg>
