<svg width="1440" height="360" viewBox="0 0 1440 360" fill="none" xmlns="http://www.w3.org/2000/svg">
<rect width="1440" height="360" rx="180" fill="white"/>
<g clip-path="url(#clip0_1050_15)">
<path d="M674.068 50.2632H755.642L670.959 300.899C670.526 302.179 669.896 303.384 669.092 304.47C668.289 305.557 667.32 306.51 666.221 307.298C665.122 308.086 663.909 308.698 662.62 309.111C661.331 309.524 659.987 309.737 658.636 309.737H595.151C593.09 309.737 591.056 309.249 589.223 308.306C587.388 307.366 585.804 306.003 584.602 304.329C583.399 302.655 582.613 300.72 582.307 298.683C582 296.646 582.186 294.565 582.844 292.614L661.741 59.0948C662.172 57.815 662.802 56.6108 663.609 55.5236C664.412 54.4365 665.383 53.4835 666.479 52.6956C667.579 51.9078 668.792 51.2954 670.081 50.8825C671.369 50.4697 672.713 50.2563 674.064 50.2563V50.2598L674.068 50.2632Z" fill="url(#paint0_linear_1050_15)"/>
<path d="M824.445 309.737H751.197C750.38 309.737 749.563 309.661 748.757 309.507C747.954 309.355 747.165 309.128 746.403 308.829C745.641 308.53 744.911 308.158 744.218 307.724C743.526 307.288 742.877 306.788 742.278 306.231L659.156 228.732C658.277 227.913 657.665 226.848 657.399 225.677C657.133 224.506 657.227 223.282 657.667 222.164C658.108 221.047 658.875 220.088 659.87 219.412C660.866 218.738 662.041 218.376 663.244 218.376H792.599L824.438 309.741L824.445 309.737Z" fill="#0078D4"/>
<path d="M755.935 50.2629L698.832 218.393L792.134 218.373L824.138 309.737H751.166C750.411 309.73 749.656 309.661 748.912 309.527C748.167 309.393 747.437 309.197 746.727 308.935C745.303 308.417 743.979 307.66 742.812 306.695L686.702 254.415L670.994 300.661C670.587 301.817 670.029 302.914 669.333 303.923C667.938 305.95 666.029 307.573 663.802 308.626C662.693 309.149 661.519 309.523 660.311 309.737H595.189C593.107 309.744 591.053 309.248 589.203 308.292C587.352 307.336 585.758 305.95 584.558 304.25C583.357 302.55 582.584 300.586 582.303 298.524C582.024 296.462 582.245 294.363 582.948 292.404L661.717 59.2699C662.127 57.966 662.744 56.7378 663.543 55.6299C664.339 54.5221 665.311 53.545 666.414 52.74C667.517 51.9349 668.744 51.3087 670.043 50.889C671.342 50.4693 672.703 50.256 674.071 50.2629H755.939H755.935Z" fill="url(#paint1_linear_1050_15)"/>
<path d="M857.156 292.614C857.815 294.566 858 296.646 857.697 298.683C857.391 300.719 856.605 302.654 855.405 304.329C854.203 306.001 852.62 307.364 850.785 308.305C848.951 309.245 846.919 309.736 844.857 309.737H753.94C756.001 309.737 758.034 309.245 759.871 308.306C761.704 307.367 763.289 306.001 764.492 304.329C765.695 302.657 766.48 300.72 766.787 298.683C767.094 296.646 766.908 294.565 766.25 292.614L687.349 59.0879C686.481 56.5154 684.826 54.2797 682.618 52.6956C681.522 51.9077 680.309 51.2988 679.024 50.8859C677.738 50.473 676.394 50.2632 675.047 50.2632H765.96C767.311 50.2632 768.651 50.473 769.94 50.8859C771.226 51.2988 772.439 51.9112 773.538 52.6956C774.634 53.4834 775.602 54.4364 776.405 55.5202C777.208 56.6039 777.836 57.8081 778.27 59.0879L857.17 292.614H857.156Z" fill="url(#paint2_linear_1050_15)"/>
</g>
<defs>
<linearGradient id="paint0_linear_1050_15" x1="703.839" y1="69.4952" x2="619.317" y2="319.597" gradientUnits="userSpaceOnUse">
<stop stop-color="#114A8B"/>
<stop offset="1" stop-color="#0669BC"/>
</linearGradient>
<linearGradient id="paint1_linear_1050_15" x1="730.272" y1="185.988" x2="710.67" y2="192.648" gradientUnits="userSpaceOnUse">
<stop stop-opacity="0.3"/>
<stop offset="0.1" stop-opacity="0.2"/>
<stop offset="0.3" stop-opacity="0.1"/>
<stop offset="0.6" stop-opacity="0.1"/>
<stop offset="1" stop-opacity="0"/>
</linearGradient>
<linearGradient id="paint2_linear_1050_15" x1="719.451" y1="62.2015" x2="812.226" y2="309.774" gradientUnits="userSpaceOnUse">
<stop stop-color="#3CCBF4"/>
<stop offset="1" stop-color="#2892DF"/>
</linearGradient>
<clipPath id="clip0_1050_15">
<rect width="276" height="260" fill="white" transform="translate(582 50)"/>
</clipPath>
</defs>
</svg>
