<svg width="1440" height="360" viewBox="0 0 1440 360" fill="none" xmlns="http://www.w3.org/2000/svg">
<rect width="1440" height="360" rx="180" fill="white"/>
<g clip-path="url(#clip0_1050_16)">
<path fill-rule="evenodd" clip-rule="evenodd" d="M611.763 260.385V240.602C611.763 238.002 613.39 235.914 616.086 235.914H616.832C619.526 235.914 621.146 238.005 621.146 240.602V282.251C621.146 292.407 616.121 300.488 607.363 305.637C603.352 308.01 598.772 309.257 594.11 309.246H592.248C582.074 309.246 573.991 304.224 568.826 295.486C566.446 291.482 565.198 286.908 565.213 282.251V280.395C565.213 270.235 570.241 262.158 578.991 257C583.002 254.622 587.584 253.375 592.248 253.391H594.11C600.995 253.391 606.837 256.056 611.763 260.385ZM574.595 281.321C574.595 288.658 578.157 294.173 584.595 297.692C587.199 299.114 590.025 299.878 592.996 299.878C600.208 299.878 605.558 296.48 609.248 290.378C610.963 287.539 611.763 284.433 611.763 281.131C611.763 274.771 608.747 269.808 603.614 266.122C600.502 263.887 596.999 262.766 593.178 262.766C585.317 262.766 579.66 266.732 576.264 273.776C575.118 276.158 574.595 278.686 574.595 281.321ZM653.699 253.391H654.999C665.871 253.391 674.139 258.657 679.379 268.132C681.474 271.923 682.595 276.06 682.595 280.395V282.251C682.595 292.407 677.58 300.499 668.809 305.638C664.748 308.016 660.263 309.246 655.557 309.246H653.699C643.524 309.246 635.439 304.224 630.277 295.486C627.895 291.482 626.645 286.908 626.66 282.251V280.395C626.66 270.234 631.708 262.184 640.436 257.003C644.494 254.595 648.983 253.391 653.699 253.391ZM636.043 281.321C636.043 288.442 639.543 293.681 645.567 297.365C648.396 299.094 651.512 299.878 654.816 299.878C661.864 299.878 667.073 296.31 670.699 290.371C672.428 287.539 673.21 284.428 673.21 281.131C673.21 274.509 670.016 269.45 664.555 265.784C661.562 263.774 658.231 262.766 654.627 262.766C646.766 262.766 641.109 266.732 637.714 273.776C636.566 276.158 636.043 278.686 636.043 281.321ZM721.603 263.515C720.186 262.852 717.534 262.632 716.004 262.574C708.164 262.279 702.492 266.687 699.165 273.592C698.015 275.974 697.491 278.495 697.491 281.131C697.491 289.156 701.711 294.774 708.885 298.2C711.505 299.45 714.889 299.687 717.752 299.687C720.271 299.687 723.831 298.146 726.067 297.086L726.454 296.902H728.189L728.381 296.941C730.514 297.385 732.125 298.735 732.125 301.028V301.955C732.125 307.659 721.684 308.965 717.7 309.243C703.641 310.214 693.127 302.505 689.119 289.116C688.422 286.791 688.109 284.481 688.109 282.058V280.205C688.109 270.045 693.158 261.997 701.885 256.821C705.943 254.415 710.431 253.206 715.145 253.206H717.005C722.006 253.206 726.613 254.624 730.742 257.44L731.081 257.675L731.296 258.028C731.741 258.766 732.125 259.619 732.125 260.497V261.424C732.125 263.816 730.333 265.102 728.17 265.518L727.991 265.55H727.436C726.036 265.55 722.853 264.102 721.603 263.515ZM752.039 269.859C755.684 266.215 759.341 262.578 763.04 258.994C764.071 257.994 767.974 253.762 769.51 253.762H771.191L771.382 253.802C773.523 254.246 775.127 255.599 775.127 257.896V258.822C775.127 260.389 773.288 262.21 772.275 263.283C770.119 265.564 767.85 267.771 765.644 270.005L754.307 281.496C759.188 286.381 764.065 291.269 768.906 296.191C770.249 297.55 771.581 298.919 772.903 300.297C773.37 300.787 774.057 301.396 774.449 302.075C774.869 302.711 775.127 303.428 775.127 304.193V305.16L775.072 305.384C774.545 307.522 773.187 309.246 770.814 309.246H770.067C768.515 309.246 766.761 307.493 765.698 306.49C763.506 304.428 761.391 302.258 759.243 300.151L752.039 293.09V304.376C752.039 306.975 750.409 309.064 747.717 309.064H746.978C744.283 309.064 742.655 306.975 742.655 304.376V240.783C742.655 238.183 744.284 236.104 746.978 236.104H747.717C750.409 236.104 752.039 238.183 752.039 240.783V269.859ZM868.988 253.762H869.92C872.734 253.762 874.612 255.656 874.612 258.45C874.612 262.329 870.898 263.321 867.686 263.321C863.472 263.321 859.448 265.869 856.543 268.726C852.921 272.292 851.336 276.858 851.336 281.878V304.559C851.336 307.159 849.709 309.246 847.013 309.246H846.272C843.575 309.246 841.95 307.16 841.95 304.559V280.576C841.95 271.367 846.44 263.849 853.926 258.576C858.396 255.426 863.515 253.762 868.988 253.762ZM802.296 298.711C805.711 299.902 809.604 299.732 813.108 299.122C814.9 298.362 819.482 296.365 821.168 296.658L821.43 296.703L821.673 296.821C822.702 297.319 823.684 298.024 824.21 299.07C825.437 301.521 824.848 303.985 822.436 305.377L821.633 305.84C812.732 310.969 803.265 310.258 794.393 305.467C790.151 303.177 786.905 299.779 784.511 295.635L783.952 294.667C778.238 284.786 779.009 274.393 785.453 264.997C787.678 261.75 790.585 259.241 793.985 257.278L795.271 256.537C803.653 251.706 812.637 252.037 821.245 256.277C825.875 258.558 829.625 261.956 832.209 266.426L832.674 267.232C834.551 270.479 832.119 273.308 829.609 275.243C826.696 277.487 823.754 280.188 820.962 282.594C814.735 287.961 808.518 293.34 802.296 298.711ZM794.238 293.06C801.201 287.099 808.166 281.132 815.111 275.146C817.484 273.103 820.086 270.982 822.44 268.834C820.551 266.457 817.396 264.743 814.715 263.722C809.302 261.663 803.965 262.354 799.001 265.215C792.505 268.961 789.738 274.925 789.98 282.347C790.077 285.271 790.864 288.088 792.418 290.575C792.965 291.452 793.576 292.275 794.238 293.06ZM743.599 105.318H771.288V133.58H785.288C791.754 133.58 798.403 132.43 804.526 130.359C807.535 129.34 810.911 127.923 813.879 126.139C809.97 121.044 807.975 114.611 807.388 108.269C806.589 99.6425 808.333 88.415 814.179 81.6635L817.09 78.3023L820.559 81.0868C829.291 88.091 836.635 97.8797 837.929 109.038C848.444 105.95 860.79 106.681 870.057 112.021L873.859 114.212L871.859 118.112C864.02 133.385 847.633 138.118 831.612 137.28C807.639 196.898 755.446 225.123 692.164 225.123C659.469 225.123 629.474 212.92 612.392 183.958L612.113 183.486L609.624 178.43C603.85 165.681 601.932 151.715 603.233 137.76L603.624 133.58H627.303V105.318H654.991V77.6712H710.371V50.0244H743.599V105.318Z" fill="#364548"/>
<path fill-rule="evenodd" clip-rule="evenodd" d="M833.307 115.774C835.164 101.367 824.366 90.0509 817.669 84.6777C809.952 93.5862 808.753 116.934 820.86 126.763C814.103 132.755 799.866 138.187 785.288 138.187H607.831C606.414 153.381 609.085 167.374 615.187 179.35L617.206 183.037C618.484 185.202 619.881 187.294 621.39 189.305C628.686 189.773 635.412 189.934 641.566 189.799H641.569C653.662 189.533 663.53 188.106 671.009 185.518C671.538 185.354 672.11 185.402 672.604 185.651C673.098 185.9 673.476 186.332 673.657 186.854C673.839 187.376 673.809 187.949 673.576 188.45C673.342 188.951 672.922 189.342 672.405 189.54C671.41 189.886 670.373 190.207 669.303 190.513H669.299C663.41 192.193 657.095 193.322 648.948 193.824C649.432 193.832 648.444 193.896 648.442 193.896C648.165 193.914 647.816 193.954 647.537 193.969C644.331 194.149 640.87 194.186 637.332 194.186C633.461 194.186 629.651 194.114 625.389 193.896L625.28 193.969C640.066 210.562 663.185 220.514 692.165 220.514C753.497 220.514 805.519 193.368 828.556 132.424C844.898 134.099 860.605 129.937 867.75 116.011C856.37 109.454 841.734 111.545 833.307 115.774Z" fill="#22A0C8"/>
<path fill-rule="evenodd" clip-rule="evenodd" d="M833.308 115.774C835.164 101.367 824.366 90.0509 817.669 84.6777C809.952 93.5862 808.753 116.934 820.86 126.763C814.103 132.755 799.866 138.187 785.288 138.187H618.339C617.615 161.457 626.264 179.12 641.565 189.799H641.569C653.663 189.533 663.53 188.106 671.009 185.518C671.538 185.354 672.11 185.402 672.604 185.651C673.098 185.9 673.476 186.332 673.657 186.854C673.839 187.376 673.81 187.949 673.576 188.45C673.342 188.951 672.922 189.342 672.405 189.54C671.41 189.886 670.373 190.207 669.303 190.513H669.299C663.411 192.193 656.553 193.467 648.406 193.969C648.403 193.969 648.208 193.781 648.206 193.781C669.079 204.472 699.344 204.433 734.043 191.125C772.951 176.2 809.157 147.767 834.418 115.247C834.038 115.419 833.667 115.594 833.308 115.774Z" fill="#37B1D9"/>
<path fill-rule="evenodd" clip-rule="evenodd" d="M608.164 156.648C609.266 164.787 611.651 172.408 615.187 179.35L617.206 183.037C618.484 185.202 619.881 187.294 621.39 189.305C628.687 189.773 635.414 189.934 641.569 189.798C653.662 189.532 663.53 188.106 671.009 185.518C671.538 185.354 672.11 185.402 672.604 185.651C673.098 185.9 673.476 186.332 673.657 186.854C673.839 187.376 673.809 187.949 673.576 188.45C673.342 188.951 672.922 189.342 672.405 189.54C671.41 189.885 670.373 190.207 669.303 190.513H669.299C663.41 192.192 656.589 193.394 648.442 193.897C648.162 193.914 647.674 193.918 647.392 193.933C644.188 194.112 640.762 194.222 637.223 194.222C633.354 194.222 629.396 194.149 625.138 193.932C639.923 210.526 663.185 220.514 692.165 220.514C744.672 220.514 790.353 200.615 816.866 156.648H608.164Z" fill="#1B81A5"/>
<path fill-rule="evenodd" clip-rule="evenodd" d="M619.937 156.648C623.075 170.939 630.618 182.158 641.569 189.798C653.662 189.532 663.53 188.106 671.009 185.518C671.538 185.354 672.11 185.402 672.604 185.651C673.098 185.9 673.476 186.332 673.657 186.854C673.839 187.376 673.809 187.949 673.576 188.45C673.342 188.951 672.922 189.342 672.405 189.54C671.41 189.885 670.373 190.207 669.303 190.513H669.299C663.41 192.192 656.445 193.394 648.297 193.897C669.168 204.585 699.346 204.432 734.043 191.125C755.034 183.072 775.236 171.086 793.36 156.648H619.937Z" fill="#1D91B4"/>
<path fill-rule="evenodd" clip-rule="evenodd" d="M631.917 109.926H655.915V133.887H631.917V109.926ZM633.916 111.923H635.81V131.891H633.916V111.923ZM637.476 111.923H639.446V131.891H637.477L637.476 111.923ZM641.111 111.923H643.081V131.891H641.111V111.923ZM644.749 111.923H646.718V131.891H644.749V111.923ZM648.385 111.923H650.354V131.891H648.385V111.923ZM652.02 111.923H653.916V131.891H652.02V111.923ZM659.606 82.2788H683.605V106.239H659.605L659.606 82.2788ZM661.606 84.2762H663.499V104.243H661.606V84.2762ZM665.166 84.2762H667.135V104.243H665.168L665.166 84.2762ZM668.802 84.2762H670.771V104.243H668.802V84.2762ZM672.438 84.2762H674.407V104.243H672.438V84.2762ZM676.075 84.2762H678.045V104.243H676.075V84.2762ZM679.71 84.2762H681.606V104.243H679.71V84.2762Z" fill="#23A3C2"/>
<path fill-rule="evenodd" clip-rule="evenodd" d="M659.606 109.926H683.605V133.887H659.604L659.606 109.926ZM661.606 111.923H663.499V131.891H661.606V111.923ZM665.166 111.923H667.135V131.891H665.168L665.166 111.923ZM668.802 111.923H670.771V131.891H668.802V111.923ZM672.438 111.923H674.407V131.891H672.438V111.923ZM676.074 111.923H678.045V131.891H676.074V111.923ZM679.71 111.923H681.606V131.891H679.71V111.923Z" fill="#34BBDE"/>
<path fill-rule="evenodd" clip-rule="evenodd" d="M687.296 109.926H711.295V133.887H687.296V109.926ZM689.295 111.923H691.188V131.891H689.295V111.923ZM692.856 111.923H694.825V131.891H692.856V111.923ZM696.492 111.923H698.461V131.891H696.492V111.923ZM700.128 111.923H702.097V131.891H700.128V111.923ZM703.764 111.923H705.735V131.891H703.764V111.923ZM707.4 111.923H709.294V131.891H707.4V111.923Z" fill="#23A3C2"/>
<path fill-rule="evenodd" clip-rule="evenodd" d="M687.296 82.2788H711.295V106.239H687.296V82.2788ZM689.295 84.2762H691.188V104.243H689.295V84.2762ZM692.856 84.2762H694.825V104.243H692.856V84.2762ZM696.492 84.2762H698.461V104.243H696.492V84.2762ZM700.128 84.2762H702.097V104.243H700.128V84.2762ZM703.764 84.2762H705.735V104.243H703.764V84.2762ZM707.4 84.2762H709.294V104.243H707.4V84.2762ZM714.985 109.926H738.984V133.887H714.985V109.926ZM716.986 111.923H718.879V131.891H716.986V111.923ZM720.546 111.923H722.515V131.891H720.546V111.923ZM724.181 111.923H726.15V131.891H724.181V111.923ZM727.818 111.923H729.788V131.891H727.818V111.923ZM731.454 111.923H733.424V131.891H731.454V111.923ZM735.091 111.923H736.985V131.891H735.091V111.923Z" fill="#34BBDE"/>
<path fill-rule="evenodd" clip-rule="evenodd" d="M714.986 82.2788H738.984V106.239H714.986V82.2788ZM716.986 84.2762H718.879V104.243H716.986V84.2762ZM720.546 84.2762H722.515V104.243H720.546V84.2762ZM724.181 84.2762H726.15V104.243H724.181V84.2762ZM727.818 84.2762H729.788V104.243H727.818V84.2762ZM731.454 84.2762H733.425V104.243H731.454V84.2762ZM735.091 84.2762H736.985V104.243H735.091V84.2762Z" fill="#23A3C2"/>
<path fill-rule="evenodd" clip-rule="evenodd" d="M714.986 54.6309H738.984V78.5948H714.986V54.6309ZM716.986 56.627H718.879V76.5962H716.986V56.627ZM720.546 56.627H722.515V76.5962H720.546V56.627ZM724.181 56.627H726.15V76.5962H724.181V56.627ZM727.818 56.627H729.788V76.5962H727.818V56.627ZM731.454 56.627H733.425V76.5962H731.454V56.627ZM735.091 56.627H736.985V76.5962H735.091V56.627Z" fill="#34BBDE"/>
<path fill-rule="evenodd" clip-rule="evenodd" d="M742.675 109.926H766.673V133.887H742.675V109.926ZM744.673 111.923H746.568V131.891H744.674V111.923H744.673ZM748.233 111.923H750.203V131.891H748.234L748.233 111.923ZM751.871 111.923H753.841V131.891H751.871V111.923ZM755.506 111.923H757.476V131.891H755.506V111.923ZM759.144 111.923H761.113V131.891H759.144V111.923ZM762.779 111.923H764.673V131.891H762.779V111.923Z" fill="#23A3C2"/>
<path fill-rule="evenodd" clip-rule="evenodd" d="M682.102 172.736C682.979 172.724 683.85 172.887 684.664 173.214C685.477 173.541 686.218 174.026 686.842 174.641C687.466 175.256 687.962 175.989 688.3 176.797C688.638 177.605 688.812 178.472 688.812 179.348C688.812 180.224 688.638 181.09 688.299 181.898C687.961 182.706 687.465 183.439 686.84 184.054C686.216 184.669 685.475 185.154 684.661 185.48C683.848 185.807 682.977 185.969 682.1 185.957C680.36 185.933 678.699 185.226 677.476 183.989C676.254 182.751 675.569 181.083 675.569 179.345C675.57 177.607 676.255 175.94 677.478 174.703C678.701 173.466 680.362 172.759 682.102 172.736Z" fill="#D3ECEC"/>
<path fill-rule="evenodd" clip-rule="evenodd" d="M682.103 174.612C682.708 174.612 683.286 174.725 683.818 174.932C683.451 175.145 683.164 175.473 683.001 175.865C682.839 176.258 682.811 176.693 682.921 177.103C683.031 177.513 683.273 177.875 683.61 178.134C683.947 178.393 684.36 178.534 684.785 178.535C685.517 178.535 686.153 178.13 686.482 177.53C686.872 178.468 686.95 179.507 686.703 180.492C686.457 181.477 685.9 182.357 685.114 183.002C684.328 183.647 683.355 184.022 682.339 184.073C681.323 184.123 680.318 183.846 679.472 183.282C678.626 182.718 677.984 181.898 677.641 180.942C677.298 179.986 677.272 178.945 677.567 177.973C677.862 177.001 678.462 176.149 679.278 175.544C680.095 174.939 681.085 174.612 682.103 174.612ZM565 159.037H872.974C866.269 157.34 851.758 155.045 854.151 146.27C841.957 160.358 812.552 156.154 805.13 149.208C796.867 161.175 748.756 156.625 745.401 147.302C735.04 159.442 702.937 159.442 692.576 147.302C689.218 156.625 641.109 161.175 632.844 149.206C625.423 156.154 596.019 160.358 583.825 146.271C586.218 155.045 571.707 157.339 565 159.037Z" fill="#364548"/>
<path fill-rule="evenodd" clip-rule="evenodd" d="M699.701 220.371C683.305 212.603 674.306 202.042 669.299 190.514C663.208 192.249 655.888 193.359 647.381 193.835C644.177 194.014 640.806 194.106 637.27 194.106C633.191 194.106 628.894 193.985 624.382 193.747C639.418 208.752 657.915 220.303 692.165 220.514C694.694 220.514 697.203 220.465 699.701 220.371Z" fill="#BDD9D7"/>
<path fill-rule="evenodd" clip-rule="evenodd" d="M675.389 201.152C673.121 198.077 670.921 194.213 669.303 190.512C663.212 192.249 655.889 193.359 647.381 193.837C653.225 197.003 661.581 199.938 675.389 201.152Z" fill="#D3ECEC"/>
</g>
<defs>
<clipPath id="clip0_1050_16">
<rect width="310" height="260" fill="white" transform="translate(565 50)"/>
</clipPath>
</defs>
</svg>
