<svg width="1440" height="360" viewBox="0 0 1440 360" fill="none" xmlns="http://www.w3.org/2000/svg">
<rect width="1440" height="360" rx="180" fill="white"/>
<g clip-path="url(#clip0_1050_24)">
<path d="M845.097 168.416L731.578 54.9037C725.045 48.3661 714.441 48.3661 707.9 54.9037L684.327 78.4763L714.23 108.379C721.179 106.031 729.148 107.606 734.687 113.146C740.253 118.72 741.817 126.757 739.412 133.728L768.23 162.548C775.202 160.146 783.247 161.7 788.816 167.277C796.598 175.057 796.598 187.666 788.816 195.451C781.031 203.237 768.422 203.237 760.633 195.451C754.779 189.591 753.333 180.994 756.296 173.782L729.421 146.906L729.418 217.631C731.366 218.594 733.146 219.867 734.687 221.399C742.47 229.179 742.47 241.789 734.687 249.58C726.902 257.361 714.287 257.361 706.514 249.58C698.731 241.789 698.731 229.18 706.514 221.4C708.379 219.534 710.595 218.056 713.035 217.052V145.668C710.592 144.671 708.374 143.192 706.514 141.32C700.617 135.432 699.199 126.779 702.22 119.539L672.743 90.0585L594.905 167.891C588.365 174.435 588.365 185.039 594.905 191.577L708.426 305.092C714.961 311.63 725.563 311.63 732.106 305.092L845.096 192.104C851.634 185.564 851.635 174.954 845.097 168.416Z" fill="#DE4C36"/>
</g>
<defs>
<clipPath id="clip0_1050_24">
<rect width="260" height="260" fill="white" transform="translate(590 50)"/>
</clipPath>
</defs>
</svg>
