<svg width="1440" height="360" viewBox="0 0 1440 360" fill="none" xmlns="http://www.w3.org/2000/svg">
<rect width="1440" height="360" rx="180" fill="white"/>
<path d="M719.984 50C646.548 50 587 109.598 587 183.118C587 241.934 625.104 291.832 677.943 309.434C684.588 310.666 687.029 306.547 687.029 303.03C687.029 299.856 686.905 289.369 686.849 278.246C649.851 286.299 642.045 262.54 642.045 262.54C635.996 247.153 627.279 243.063 627.279 243.063C615.214 234.8 628.189 234.969 628.189 234.969C641.543 235.909 648.575 248.688 648.575 248.688C660.435 269.039 679.684 263.155 687.273 259.755C688.466 251.15 691.913 245.278 695.716 241.954C666.179 238.587 635.128 227.173 635.128 176.166C635.128 161.633 640.323 149.757 648.83 140.435C647.449 137.082 642.898 123.543 650.118 105.207C650.118 105.207 661.285 101.629 686.698 118.852C697.305 115.902 708.682 114.423 719.984 114.373C731.285 114.423 742.67 115.902 753.298 118.852C778.681 101.629 789.832 105.207 789.832 105.207C797.071 123.543 792.517 137.082 791.136 140.435C799.662 149.757 804.822 161.632 804.822 176.166C804.822 227.294 773.712 238.553 744.1 241.847C748.87 245.979 753.12 254.08 753.12 266.499C753.12 284.31 752.966 298.645 752.966 303.03C752.966 306.573 755.359 310.724 762.101 309.417C814.911 291.795 852.966 241.914 852.966 183.118C852.966 109.598 793.426 50 719.984 50Z" fill="#161614"/>
<path d="M636.807 239.63C636.515 240.291 635.474 240.489 634.528 240.036C633.563 239.602 633.021 238.7 633.334 238.036C633.621 237.355 634.662 237.165 635.624 237.622C636.591 238.056 637.142 238.966 636.807 239.63ZM643.348 245.472C642.714 246.061 641.474 245.788 640.633 244.857C639.763 243.929 639.6 242.689 640.243 242.091C640.897 241.503 642.1 241.777 642.972 242.707C643.842 243.645 644.011 244.878 643.347 245.473M647.836 252.947C647.021 253.514 645.688 252.983 644.865 251.799C644.05 250.616 644.05 249.196 644.883 248.627C645.709 248.058 647.021 248.57 647.855 249.744C648.669 250.948 648.669 252.368 647.835 252.948M655.425 261.606C654.696 262.409 653.144 262.194 652.007 261.096C650.845 260.023 650.521 258.5 651.252 257.695C651.989 256.889 653.551 257.115 654.696 258.204C655.85 259.275 656.202 260.81 655.425 261.606ZM665.233 264.529C664.913 265.571 663.417 266.045 661.911 265.602C660.407 265.146 659.423 263.924 659.726 262.871C660.039 261.822 661.541 261.328 663.058 261.802C664.56 262.256 665.546 263.468 665.233 264.529ZM676.397 265.768C676.435 266.866 675.157 267.777 673.576 267.797C671.985 267.831 670.699 266.943 670.683 265.863C670.683 264.754 671.931 263.852 673.52 263.826C675.102 263.795 676.397 264.677 676.397 265.768ZM687.363 265.347C687.553 266.418 686.453 267.519 684.884 267.811C683.34 268.093 681.911 267.432 681.714 266.37C681.522 265.272 682.642 264.173 684.183 263.888C685.756 263.614 687.162 264.258 687.363 265.347Z" fill="#161614"/>
</svg>
