<svg width="1440" height="360" viewBox="0 0 1440 360" fill="none" xmlns="http://www.w3.org/2000/svg">
<rect width="1440" height="360" rx="180" fill="white"/>
<path d="M508.429 219.307V141.555H528.994V170.502H552.189V141.555H572.754V219.307H552.189V188.445H528.994V219.307H508.429ZM606.428 220.742C599.891 220.742 595.149 218.549 592.199 214.163C589.25 209.697 587.776 203.756 587.776 196.34V159.498H608.341V193.709C608.341 197.537 608.819 200.088 609.775 201.364C610.812 202.64 612.326 203.278 614.32 203.278C616.232 203.278 617.826 202.879 619.102 202.082C620.377 201.284 621.653 199.928 622.928 198.014V159.498H643.493V219.307H626.753L625.319 211.412H624.84C622.45 214.283 619.779 216.556 616.83 218.231C613.961 219.905 610.493 220.742 606.428 220.742ZM679.137 243.948C674.594 243.948 670.409 243.43 666.583 242.393C662.758 241.436 659.689 239.881 657.377 237.727C655.144 235.575 654.029 232.704 654.029 229.115C654.029 224.411 656.818 220.583 662.399 217.632V217.153C660.87 216.022 659.537 214.649 658.453 213.087C657.417 211.412 656.898 209.338 656.898 206.866C656.898 204.793 657.497 202.759 658.692 200.766C659.967 198.772 661.602 197.058 663.594 195.623V195.144C661.441 193.709 659.529 191.675 657.856 189.043C656.261 186.332 655.464 183.261 655.464 179.833C655.464 174.888 656.659 170.822 659.051 167.632C661.522 164.362 664.71 161.97 668.615 160.455C672.522 158.86 676.666 158.062 681.05 158.062C684.557 158.062 687.746 158.541 690.615 159.498H712.855V174.33H704.246C704.484 175.048 704.684 175.965 704.843 177.081C705.082 178.198 705.202 179.354 705.202 180.55C705.202 185.255 704.126 189.083 701.974 192.034C699.822 194.904 696.913 197.018 693.246 198.373C689.579 199.73 685.514 200.407 681.05 200.407C679.058 200.407 676.826 200.128 674.355 199.569C673.398 200.447 672.92 201.603 672.92 203.038C672.92 204.314 673.558 205.231 674.833 205.79C676.188 206.348 678.34 206.627 681.29 206.627H690.257C697.749 206.627 703.528 207.863 707.594 210.335C711.738 212.728 713.811 216.674 713.811 222.177C713.811 226.484 712.376 230.271 709.507 233.541C706.717 236.81 702.731 239.362 697.55 241.196C692.369 243.031 686.231 243.948 679.137 243.948ZM681.05 188.206C682.963 188.206 684.518 187.528 685.713 186.172C686.909 184.817 687.506 182.703 687.506 179.833C687.506 177.042 686.909 175.008 685.713 173.732C684.518 172.377 682.963 171.699 681.05 171.699C679.137 171.699 677.583 172.377 676.388 173.732C675.191 175.008 674.594 177.042 674.594 179.833C674.594 182.703 675.191 184.817 676.388 186.172C677.583 187.528 679.137 188.206 681.05 188.206ZM682.485 231.268C685.833 231.268 688.623 230.75 690.854 229.713C693.087 228.756 694.202 227.44 694.202 225.766C694.202 224.171 693.485 223.174 692.051 222.776C690.695 222.377 688.742 222.177 686.192 222.177H681.529C679.137 222.177 677.304 222.098 676.029 221.938C674.833 221.859 673.797 221.699 672.92 221.46C671.486 222.895 670.768 224.33 670.768 225.766C670.768 227.68 671.844 229.075 673.996 229.953C676.229 230.83 679.058 231.268 682.485 231.268ZM744.407 243.948C739.863 243.948 735.679 243.43 731.853 242.393C728.027 241.436 724.958 239.881 722.646 237.727C720.415 235.575 719.298 232.704 719.298 229.115C719.298 224.411 722.089 220.583 727.668 217.632V217.153C726.139 216.023 724.807 214.649 723.723 213.087C722.686 211.412 722.168 209.338 722.168 206.866C722.168 204.793 722.766 202.759 723.961 200.766C725.236 198.772 726.871 197.058 728.864 195.623V195.144C726.712 193.709 724.799 191.675 723.125 189.043C721.53 186.332 720.733 183.261 720.733 179.833C720.733 174.888 721.929 170.822 724.32 167.632C726.791 164.362 729.979 161.97 733.886 160.455C737.791 158.86 741.936 158.062 746.319 158.062C749.827 158.062 753.016 158.541 755.885 159.498H778.124V174.33H769.515C769.754 175.048 769.953 175.965 770.113 177.081C770.352 178.198 770.471 179.354 770.471 180.55C770.471 185.255 769.396 189.083 767.243 192.034C765.092 194.904 762.182 197.018 758.515 198.373C754.849 199.73 750.783 200.407 746.319 200.407C744.327 200.407 742.096 200.128 739.624 199.569C738.668 200.447 738.189 201.603 738.189 203.038C738.189 204.314 738.827 205.231 740.103 205.79C741.458 206.348 743.609 206.627 746.559 206.627H755.526C763.018 206.627 768.797 207.863 772.863 210.335C777.007 212.728 779.08 216.674 779.08 222.177C779.08 226.484 777.645 230.271 774.776 233.541C771.986 236.81 768.001 239.362 762.82 241.196C757.639 243.031 751.501 243.948 744.407 243.948ZM746.319 188.206C748.233 188.206 749.787 187.528 750.983 186.172C752.178 184.817 752.777 182.703 752.777 179.833C752.777 177.042 752.178 175.008 750.983 173.732C749.787 172.377 748.233 171.699 746.319 171.699C744.407 171.699 742.852 172.377 741.657 173.732C740.461 175.008 739.863 177.042 739.863 179.833C739.863 182.703 740.461 184.817 741.657 186.172C742.852 187.528 744.407 188.206 746.319 188.206ZM747.755 231.268C751.103 231.268 753.892 230.75 756.124 229.713C758.356 228.756 759.472 227.44 759.472 225.766C759.472 224.171 758.754 223.174 757.32 222.776C755.965 222.377 754.011 222.177 751.461 222.177H746.798C744.407 222.177 742.573 222.098 741.298 221.938C740.103 221.859 739.066 221.699 738.189 221.46C736.755 222.895 736.037 224.33 736.037 225.766C736.037 227.68 737.114 229.075 739.266 229.953C741.498 230.83 744.327 231.268 747.755 231.268ZM787.916 219.307V159.498H808.481V219.307H787.916ZM798.199 152.081C794.851 152.081 792.14 151.165 790.068 149.331C787.995 147.417 786.959 144.904 786.959 141.794C786.959 138.685 787.995 136.212 790.068 134.378C792.14 132.464 794.851 131.507 798.199 131.507C801.546 131.507 804.256 132.464 806.329 134.378C808.401 136.212 809.437 138.685 809.437 141.794C809.437 144.904 808.401 147.417 806.329 149.331C804.256 151.165 801.546 152.081 798.199 152.081ZM822.361 219.307V159.498H839.099L840.534 166.674H841.012C843.403 164.362 846.114 162.369 849.142 160.694C852.251 158.939 855.838 158.062 859.903 158.062C866.519 158.062 871.261 160.295 874.132 164.761C877.081 169.147 878.555 175.048 878.555 182.464V219.307H857.99V185.096C857.99 181.268 857.512 178.716 856.556 177.44C855.599 176.164 854.085 175.526 852.012 175.526C850.1 175.526 848.505 175.925 847.229 176.723C845.954 177.52 844.519 178.637 842.926 180.072V219.307H822.361ZM913.711 243.948C909.168 243.948 904.982 243.43 901.156 242.393C897.331 241.436 894.262 239.881 891.95 237.727C889.718 235.575 888.603 232.704 888.603 229.115C888.603 224.411 891.392 220.583 896.972 217.632V217.153C895.444 216.022 894.111 214.649 893.026 213.087C891.99 211.412 891.472 209.338 891.472 206.866C891.472 204.793 892.07 202.759 893.265 200.766C894.541 198.772 896.175 197.058 898.167 195.623V195.144C896.015 193.709 894.102 191.675 892.428 189.043C890.834 186.332 890.037 183.261 890.037 179.833C890.037 174.888 891.233 170.822 893.624 167.632C896.095 164.362 899.284 161.97 903.189 160.455C907.095 158.86 911.24 158.062 915.624 158.062C919.131 158.062 922.319 158.541 925.188 159.498H947.427V174.33H938.818C939.058 175.048 939.258 175.965 939.417 177.081C939.656 178.198 939.776 179.354 939.776 180.55C939.776 185.255 938.7 189.083 936.547 192.034C934.395 194.904 931.485 197.018 927.819 198.373C924.152 199.73 920.088 200.407 915.624 200.407C913.63 200.407 911.399 200.128 908.928 199.569C907.971 200.447 907.494 201.603 907.494 203.038C907.494 204.314 908.131 205.231 909.407 205.79C910.761 206.348 912.914 206.627 915.863 206.627H924.83C932.323 206.627 938.102 207.863 942.167 210.335C946.312 212.728 948.384 216.674 948.384 222.177C948.384 226.484 946.95 230.271 944.079 233.541C941.29 236.81 937.305 239.362 932.123 241.196C926.942 243.031 920.804 243.948 913.711 243.948ZM915.624 188.206C917.537 188.206 919.091 187.528 920.286 186.172C921.483 184.817 922.08 182.703 922.08 179.833C922.08 177.042 921.483 175.008 920.286 173.732C919.091 172.377 917.537 171.699 915.624 171.699C913.711 171.699 912.156 172.377 910.961 173.732C909.765 175.008 909.168 177.042 909.168 179.833C909.168 182.703 909.765 184.817 910.961 186.172C912.156 187.528 913.711 188.206 915.624 188.206ZM917.058 231.268C920.406 231.268 923.196 230.75 925.428 229.713C927.66 228.756 928.775 227.44 928.775 225.766C928.775 224.171 928.059 223.174 926.624 222.776C925.268 222.377 923.316 222.177 920.765 222.177H916.102C913.711 222.177 911.878 222.098 910.602 221.938C909.407 221.859 908.37 221.699 907.494 221.46C906.058 222.895 905.341 224.33 905.341 225.766C905.341 227.68 906.417 229.075 908.569 229.953C910.801 230.83 913.63 231.268 917.058 231.268ZM982.83 219.307V141.555H1033.52V158.78H1003.39V173.612H1029.22V190.837H1003.39V219.307H982.83ZM1056.01 220.742C1052.27 220.742 1049.04 219.905 1046.33 218.231C1043.74 216.523 1041.64 214.174 1040.23 211.412C1038.8 208.621 1038.08 205.59 1038.08 202.321C1038.08 196.1 1040.63 191.237 1045.73 187.727C1050.83 184.139 1059.12 181.747 1070.6 180.55C1070.12 176.404 1067.33 174.33 1062.23 174.33C1060.08 174.33 1057.81 174.768 1055.42 175.646C1053.02 176.443 1050.27 177.68 1047.17 179.354L1039.99 165.957C1044.22 163.405 1048.48 161.452 1052.79 160.095C1057.16 158.742 1061.72 158.056 1066.3 158.062C1074.11 158.062 1080.21 160.295 1084.59 164.761C1088.97 169.147 1091.17 176.244 1091.17 186.053V219.307H1074.43L1072.99 213.565H1072.51C1070.12 215.718 1067.57 217.473 1064.86 218.828C1062.23 220.104 1059.28 220.742 1056.01 220.742ZM1063.19 204.952C1064.86 204.952 1066.26 204.593 1067.37 203.876C1068.49 203.079 1069.56 202.082 1070.6 200.886V192.751C1065.74 193.469 1062.35 194.545 1060.44 195.981C1058.6 197.417 1057.69 198.972 1057.69 200.646C1057.69 203.517 1059.52 204.952 1063.19 204.952ZM1131.59 220.742C1125.93 220.742 1120.83 219.505 1116.29 217.034C1111.75 214.562 1108.12 211.013 1105.41 206.387C1102.78 201.683 1101.46 196.021 1101.46 189.402C1101.46 182.784 1102.94 177.161 1105.89 172.536C1108.92 167.831 1112.86 164.243 1117.72 161.77C1122.59 159.298 1127.85 158.062 1133.51 158.062C1137.09 158.062 1140.32 158.621 1143.19 159.736C1146.14 160.853 1148.73 162.369 1150.96 164.283L1141.4 177.44C1140.12 176.324 1138.97 175.567 1137.93 175.168C1136.9 174.77 1135.81 174.567 1134.7 174.57C1130.88 174.57 1127.89 175.925 1125.73 178.637C1123.58 181.268 1122.51 184.857 1122.51 189.402C1122.51 193.948 1123.62 197.576 1125.85 200.287C1128.09 202.918 1130.8 204.235 1133.98 204.235C1135.66 204.235 1137.29 203.876 1138.89 203.158C1140.52 202.384 1142.08 201.463 1143.55 200.407L1151.44 213.804C1148.49 216.436 1145.22 218.27 1141.64 219.307C1138.05 220.263 1134.7 220.742 1131.59 220.742ZM1185.09 220.742C1179.27 220.742 1174.01 219.505 1169.3 217.034C1164.68 214.562 1161.01 211.013 1158.3 206.387C1155.59 201.683 1154.24 196.021 1154.24 189.402C1154.24 182.943 1155.59 177.401 1158.3 172.775C1161.09 168.07 1164.68 164.442 1169.07 161.89C1173.45 159.338 1178.07 158.062 1182.93 158.062C1188.83 158.062 1193.7 159.378 1197.52 162.009C1201.43 164.562 1204.3 168.03 1206.13 172.416C1208.04 176.802 1209 181.667 1209 187.01C1209 188.764 1208.88 190.479 1208.64 192.154C1208.48 193.748 1208.32 194.904 1208.16 195.623H1174.09C1175.04 199.211 1176.76 201.723 1179.23 203.158C1181.7 204.514 1184.61 205.192 1187.96 205.192C1191.78 205.192 1195.85 203.996 1200.15 201.603L1206.85 213.804C1203.66 216.036 1200.07 217.752 1196.09 218.948C1192.1 220.143 1188.44 220.742 1185.09 220.742ZM1173.85 182.225H1191.54C1191.54 179.912 1190.95 177.919 1189.75 176.244C1188.63 174.489 1186.52 173.612 1183.41 173.612C1181.18 173.612 1179.19 174.291 1177.43 175.646C1175.68 177.002 1174.49 179.195 1173.85 182.225Z" fill="#000B1B"/>
<path d="M464.226 230.702C463.619 228.413 462.638 226.241 461.32 224.274C461.603 223.238 461.817 222.185 461.961 221.123C462.896 214.374 460.558 208.197 456.151 203.416C453.764 200.805 451.205 199.082 448.495 198.024C450.274 190.409 451.174 182.616 451.179 174.797C451.179 171.226 450.977 167.728 450.638 164.282C450.461 162.561 450.248 160.843 449.998 159.131C449.222 154.08 448.071 149.094 446.554 144.215C445.559 141.008 444.409 137.853 443.108 134.759C441.156 130.176 438.877 125.741 436.289 121.486C434.591 118.656 432.742 115.918 430.75 113.287C429.774 111.958 428.756 110.66 427.698 109.395C424.563 105.582 421.155 102.002 417.502 98.6826C416.29 97.5664 415.042 96.489 413.762 95.4519C412.501 94.3997 411.212 93.3811 409.897 92.3974C407.25 90.4267 404.515 88.5778 401.699 86.8564C386.145 77.4049 367.904 71.9858 348.408 71.9858C291.646 71.9858 245.638 118.015 245.638 174.801C245.637 182.719 246.553 190.61 248.371 198.316C245.933 199.375 243.596 201.025 241.429 203.413C237.023 208.191 234.684 214.347 235.62 221.094C235.761 222.167 235.975 223.229 236.26 224.272C234.943 226.24 233.962 228.413 233.354 230.702C232 235.852 232.446 240.496 234.167 244.565C232.297 249.885 232.764 255.549 235.201 260.473C236.973 264.07 239.509 266.851 242.634 269.339C246.351 272.294 251.004 274.806 256.617 277.215C263.312 280.072 271.484 282.756 275.201 283.741C284.801 286.228 294.007 287.805 303.338 287.88C316.63 288.004 328.077 284.877 336.273 276.874C340.299 277.367 344.351 277.615 348.408 277.614C352.694 277.604 356.975 277.334 361.228 276.805C369.404 284.859 380.895 288.015 394.236 287.887C403.565 287.814 412.771 286.237 422.347 283.746C426.088 282.762 434.258 280.077 440.956 277.222C446.569 274.807 451.221 272.296 454.964 269.344C458.065 266.858 460.599 264.075 462.372 260.479C464.834 255.554 465.278 249.89 463.431 244.571C465.136 240.502 465.579 235.847 464.226 230.702ZM454.701 244.221C456.587 247.801 456.707 251.847 455.043 255.615C452.519 261.327 446.25 265.825 434.075 270.654C426.505 273.659 419.571 275.579 419.51 275.597C409.496 278.195 400.44 279.514 392.6 279.514C379.617 279.514 369.958 275.931 363.832 268.853C353.471 270.618 342.892 270.678 332.513 269.03C326.379 275.991 316.773 279.514 303.9 279.514C296.059 279.514 287.004 278.195 276.99 275.597C276.928 275.579 269.999 273.659 262.425 270.654C250.25 265.825 243.98 261.329 241.457 255.615C239.792 251.847 239.913 247.801 241.799 244.221C241.974 243.889 242.16 243.563 242.36 243.251C241.23 241.552 240.472 239.633 240.136 237.62C239.799 235.608 239.893 233.546 240.41 231.572C241.159 228.724 242.708 226.355 244.809 224.654C243.797 222.989 243.133 221.137 242.857 219.209C242.252 215.015 243.642 210.826 246.773 207.413C249.211 204.756 252.656 203.294 256.472 203.294H256.574C253.697 194.069 252.238 184.461 252.248 174.798C252.248 122.096 294.954 79.3686 347.638 79.3686C400.323 79.3686 443.029 122.092 443.029 174.798C443.036 184.487 441.567 194.12 438.673 203.366C439.134 203.321 439.585 203.297 440.028 203.297C443.843 203.297 447.29 204.758 449.726 207.415C452.855 210.826 454.249 215.018 453.643 219.211C453.367 221.14 452.703 222.992 451.69 224.657C453.792 226.358 455.341 228.727 456.09 231.576C456.606 233.55 456.699 235.611 456.363 237.623C456.027 239.636 455.269 241.555 454.14 243.254C454.339 243.563 454.528 243.889 454.701 244.221Z" fill="white"/>
<path d="M454.14 243.254C455.269 241.555 456.027 239.636 456.363 237.623C456.699 235.611 456.606 233.55 456.09 231.576C455.341 228.728 453.792 226.359 451.691 224.657C452.702 222.992 453.366 221.14 453.643 219.212C454.248 215.018 452.858 210.83 449.727 207.416C447.29 204.759 443.843 203.297 440.028 203.297C439.584 203.297 439.134 203.319 438.673 203.366C441.564 194.12 443.03 184.487 443.021 174.799C443.021 122.098 400.315 79.3696 347.635 79.3696C294.955 79.3696 252.244 122.093 252.244 174.799C252.235 184.462 253.694 194.07 256.571 203.295H256.469C252.654 203.295 249.208 204.757 246.771 207.414C243.643 210.825 242.25 215.016 242.855 219.21C243.131 221.138 243.795 222.99 244.807 224.655C242.706 226.356 241.157 228.725 240.409 231.574C239.892 233.549 239.799 235.61 240.136 237.623C240.472 239.636 241.231 241.555 242.362 243.254C242.159 243.567 241.974 243.892 241.801 244.224C239.916 247.805 239.794 251.851 241.459 255.619C243.981 261.329 250.251 265.829 262.426 270.657C269.997 273.662 276.93 275.582 276.991 275.6C287.005 278.198 296.06 279.518 303.9 279.518C316.774 279.518 326.379 275.995 332.514 269.034C342.894 270.681 353.472 270.621 363.833 268.856C369.958 275.934 379.619 279.518 392.601 279.518C400.441 279.518 409.498 278.198 419.511 275.6C419.572 275.582 426.503 273.662 434.076 270.657C446.251 265.829 452.521 261.329 455.044 255.619C456.709 251.851 456.588 247.805 454.702 244.224C454.53 243.892 454.343 243.568 454.14 243.254ZM328.124 258.137C327.596 259.061 327.031 259.964 326.428 260.841C324.842 263.164 322.756 264.938 320.336 266.258C315.708 268.782 309.851 269.665 303.899 269.665C294.499 269.665 284.863 267.464 279.461 266.062C279.195 265.993 246.351 256.712 250.51 248.812C251.209 247.484 252.362 246.953 253.811 246.953C259.666 246.953 270.326 255.675 274.909 255.675C275.931 255.675 276.654 255.238 276.948 254.176C278.901 247.169 247.271 244.224 249.935 234.079C250.406 232.284 251.68 231.555 253.474 231.555C261.213 231.554 278.586 245.172 282.219 245.172C282.498 245.172 282.698 245.091 282.806 244.919L282.853 244.842C284.558 242.024 283.58 239.976 271.896 232.817L270.774 232.133C257.918 224.348 248.893 219.664 254.027 214.074C254.617 213.428 255.453 213.142 256.47 213.142C257.677 213.142 259.136 213.547 260.743 214.223C267.534 217.088 276.945 224.901 280.876 228.309C282.035 229.318 282.718 229.935 282.718 229.935C282.718 229.935 287.696 235.113 290.706 235.113C291.399 235.113 291.986 234.841 292.384 234.165C294.52 230.565 272.561 213.918 271.323 207.05C270.484 202.396 271.912 200.039 274.554 200.039C275.809 200.039 277.342 200.573 279.034 201.647C284.282 204.98 294.416 222.402 298.126 229.178C299.37 231.45 301.493 232.41 303.406 232.41C307.202 232.41 310.169 228.635 303.754 223.838C294.111 216.619 297.495 204.821 302.097 204.095C302.293 204.065 302.492 204.049 302.689 204.048C306.874 204.048 308.721 211.263 308.721 211.263C308.721 211.263 314.131 224.857 323.426 234.148C331.86 242.582 333.038 249.504 328.124 258.137ZM358.18 259.729L357.698 259.787L356.876 259.881C356.443 259.925 356.011 259.968 355.576 260.009L355.152 260.047L354.766 260.08L354.216 260.124C354.014 260.139 353.812 260.155 353.61 260.167L353.005 260.208L352.872 260.216L352.396 260.244L352.194 260.254L351.629 260.282L350.974 260.309L350.378 260.33L349.98 260.341H349.779C349.655 260.341 349.532 260.348 349.408 260.349H349.211C349.086 260.349 348.963 260.349 348.839 260.356L348.335 260.361H347.628C347.074 260.361 346.522 260.356 345.97 260.346L345.523 260.335C345.397 260.335 345.269 260.329 345.143 260.325L344.67 260.311L344.081 260.288L343.551 260.265L343.414 260.26L342.909 260.233C342.769 260.225 342.629 260.218 342.49 260.209L342.164 260.19C341.754 260.164 341.345 260.135 340.935 260.103L340.506 260.069L339.964 260.023L339.331 259.964C338.978 259.931 338.624 259.895 338.271 259.855H338.254C343.413 248.343 340.804 237.592 330.381 227.172C323.545 220.342 318.997 210.255 318.054 208.041C316.144 201.486 311.089 194.199 302.695 194.199C301.985 194.2 301.277 194.256 300.576 194.367C296.898 194.945 293.683 197.064 291.39 200.25C288.912 197.166 286.503 194.715 284.324 193.329C281.04 191.247 277.763 190.19 274.569 190.19C270.585 190.19 267.021 191.827 264.538 194.797L264.476 194.873L264.336 194.285L264.33 194.26C263.858 192.238 263.461 190.2 263.141 188.148C263.141 188.134 263.141 188.12 263.134 188.107L263.064 187.643C263.026 187.392 262.989 187.141 262.953 186.889C262.924 186.681 262.895 186.472 262.868 186.264C262.841 186.056 262.811 185.847 262.786 185.638C262.759 185.428 262.734 185.219 262.71 185.01C262.686 184.812 262.663 184.613 262.641 184.414L262.634 184.363C262.532 183.447 262.445 182.529 262.372 181.609L262.333 181.077C262.321 180.931 262.311 180.784 262.302 180.637C262.302 180.603 262.298 180.568 262.295 180.537L262.258 179.947C262.245 179.734 262.234 179.52 262.223 179.307C262.212 179.095 262.201 178.881 262.192 178.667L262.169 178.108L262.162 177.938L262.145 177.421L262.134 176.983C262.134 176.808 262.125 176.632 262.122 176.457L262.113 175.904C262.11 175.72 262.113 175.537 262.108 175.353C262.102 175.168 262.108 174.984 262.108 174.799C262.108 127.539 300.406 89.2242 347.649 89.2242C394.891 89.2242 433.188 127.537 433.188 174.799V175.904C433.188 176.089 433.183 176.274 433.179 176.457C433.179 176.61 433.173 176.76 433.169 176.914C433.169 177.051 433.163 177.186 433.157 177.318C433.157 177.491 433.147 177.663 433.142 177.835V177.85L433.095 178.975L433.088 179.099L433.059 179.659L433.032 180.103C432.969 181.155 432.887 182.206 432.786 183.255V183.269C432.768 183.466 432.748 183.663 432.726 183.86L432.575 185.232L432.517 185.691L432.446 186.231C432.421 186.429 432.394 186.625 432.366 186.822C432.336 187.042 432.303 187.261 432.271 187.48L432.192 187.997L432.1 188.584C432.068 188.78 432.037 188.974 431.999 189.169C431.961 189.364 431.932 189.558 431.898 189.753C431.83 190.142 431.76 190.529 431.684 190.916C431.535 191.687 431.377 192.457 431.211 193.224C431.17 193.416 431.127 193.607 431.083 193.798C428.675 191.457 425.488 190.182 421.971 190.182C418.78 190.182 415.5 191.238 412.217 193.321C410.037 194.706 407.63 197.158 405.15 200.242C402.853 197.055 399.638 194.937 395.965 194.358C395.263 194.248 394.555 194.192 393.845 194.191C385.449 194.191 380.396 201.478 378.486 208.033C377.539 210.247 372.99 220.333 366.147 227.174C355.731 237.56 353.102 248.264 358.18 259.729ZM446.489 236.684L446.456 236.785C446.432 236.849 446.408 236.913 446.382 236.977C446.244 237.301 446.077 237.613 445.883 237.908C445.695 238.189 445.488 238.458 445.264 238.711C445.212 238.77 445.162 238.827 445.103 238.885C445.024 238.972 444.94 239.057 444.856 239.141C443.336 240.649 441.02 241.969 438.401 243.182C438.104 243.316 437.804 243.45 437.499 243.585L437.197 243.719C436.995 243.808 436.794 243.897 436.582 243.984C436.375 244.073 436.168 244.159 435.96 244.245L435.33 244.506C433.857 245.113 432.348 245.69 430.875 246.261L430.246 246.505L429.623 246.749C429.21 246.91 428.802 247.072 428.399 247.233L427.799 247.475L427.211 247.716L426.921 247.837C426.729 247.919 426.54 247.998 426.352 248.079C422.021 249.938 418.905 251.829 419.56 254.177C419.578 254.243 419.598 254.307 419.621 254.368C419.68 254.541 419.76 254.706 419.859 254.86C419.918 254.952 419.985 255.039 420.061 255.118C420.831 255.918 422.232 255.791 423.998 255.157C424.141 255.105 424.288 255.05 424.436 254.991C424.537 254.952 424.638 254.912 424.74 254.871L424.892 254.807C425.296 254.635 425.724 254.444 426.162 254.235C426.271 254.185 426.382 254.135 426.492 254.076C428.652 253.02 431.1 251.596 433.529 250.301C433.901 250.099 434.275 249.906 434.646 249.714C435.253 249.399 435.866 249.096 436.485 248.805C438.785 247.723 440.946 246.955 442.686 246.955C443.501 246.955 444.222 247.123 444.821 247.506L444.922 247.573C445.225 247.788 445.489 248.051 445.705 248.353C445.755 248.424 445.807 248.498 445.851 248.574C445.898 248.651 445.943 248.732 445.986 248.813C446.845 250.444 446.126 252.134 444.444 253.79C442.829 255.38 440.317 256.94 437.46 258.384C437.249 258.491 437.036 258.599 436.821 258.703C428.321 262.878 417.192 266.023 417.036 266.063C414.07 266.832 409.828 267.842 405.051 268.598L404.343 268.707L404.228 268.724C403.144 268.887 402.057 269.03 400.968 269.154L400.868 269.165C398.887 269.39 396.855 269.554 394.82 269.623H394.79C394.058 269.65 393.328 269.663 392.597 269.663H391.755C390.64 269.647 389.525 269.597 388.414 269.511C388.388 269.511 388.361 269.511 388.333 269.506C387.252 269.419 386.173 269.292 385.101 269.124C384.837 269.08 384.555 269.034 384.283 268.986C384.158 268.964 384.035 268.941 383.912 268.916L383.883 268.911C383.492 268.836 383.102 268.754 382.714 268.664C382.489 268.614 382.263 268.563 382.041 268.503L381.908 268.468C381.798 268.441 381.689 268.412 381.58 268.382L381.521 268.366L381.172 268.266L380.794 268.155L380.749 268.142L380.42 268.041C380.296 268.003 380.173 267.962 380.05 267.923C379.948 267.889 379.848 267.854 379.746 267.821L379.524 267.743C379.31 267.668 379.097 267.589 378.885 267.508L378.684 267.43L378.518 267.364C378.198 267.235 377.881 267.1 377.566 266.959L377.356 266.859L377.321 266.843C377.246 266.808 377.173 266.773 377.098 266.741C376.953 266.671 376.809 266.599 376.665 266.526L376.622 266.504L376.414 266.395C376.045 266.203 375.683 265.997 375.329 265.778L375.135 265.66C375.034 265.599 374.943 265.536 374.847 265.474L374.594 265.306C374.502 265.245 374.411 265.183 374.322 265.119L374.159 265.004C373.988 264.88 373.82 264.755 373.654 264.625C373.566 264.557 373.479 264.487 373.392 264.423C373.199 264.268 373.01 264.109 372.824 263.945L372.816 263.939C372.635 263.782 372.457 263.62 372.285 263.453L372.276 263.442C372.185 263.356 372.097 263.27 372.009 263.181C371.922 263.092 371.834 263.004 371.75 262.914C371.664 262.824 371.578 262.733 371.494 262.639C371.414 262.551 371.334 262.462 371.255 262.371L371.228 262.341C370.82 261.867 370.439 261.372 370.086 260.856L369.946 260.649C369.853 260.513 369.762 260.375 369.672 260.237L369.405 259.827C369.183 259.484 368.968 259.138 368.759 258.787C368.685 258.663 368.612 258.54 368.542 258.418C368.502 258.351 368.465 258.284 368.428 258.216C368.391 258.146 368.347 258.075 368.307 258.004L368.244 257.892C368.222 257.855 368.216 257.843 368.204 257.818C368.128 257.684 368.053 257.547 367.981 257.408C367.948 257.349 367.915 257.288 367.88 257.228L367.779 257.034L367.678 256.84L367.484 256.449L367.392 256.256C367.325 256.117 367.262 255.98 367.199 255.843C367.174 255.788 367.148 255.733 367.125 255.677C367.038 255.489 366.956 255.298 366.878 255.105C366.825 254.977 366.777 254.851 366.725 254.724C366.579 254.352 366.442 253.976 366.317 253.595C366.28 253.482 366.243 253.37 366.21 253.257C366.129 253.001 366.055 252.743 365.99 252.482C365.909 252.178 365.839 251.871 365.779 251.563C365.74 251.381 365.707 251.198 365.678 251.014C365.589 250.475 365.53 249.931 365.502 249.385C365.502 249.326 365.497 249.265 365.495 249.205C365.49 249.085 365.486 248.965 365.485 248.846C365.422 244.022 367.863 239.382 373.081 234.164C382.375 224.874 387.786 211.279 387.786 211.279C387.786 211.279 387.932 210.709 388.235 209.889C388.337 209.617 388.443 209.346 388.555 209.078C388.682 208.776 388.819 208.476 388.966 208.183L389.008 208.097C389.197 207.722 389.401 207.357 389.624 207.002C389.674 206.919 389.724 206.837 389.783 206.756C389.947 206.51 390.122 206.271 390.306 206.04C390.449 205.862 390.6 205.691 390.759 205.528C391.299 204.973 391.914 204.519 392.61 204.276L392.698 204.248C392.757 204.228 392.814 204.21 392.874 204.193C392.944 204.175 393.014 204.158 393.084 204.144L393.116 204.138C393.264 204.109 393.411 204.088 393.562 204.078H393.575C393.653 204.078 393.731 204.07 393.811 204.07C394.011 204.071 394.209 204.087 394.407 204.118C395.244 204.25 396.042 204.749 396.729 205.519L396.821 205.628C397.045 205.889 397.248 206.17 397.428 206.463C397.564 206.681 397.691 206.91 397.812 207.151C397.861 207.252 397.907 207.345 397.953 207.444C397.976 207.495 397.998 207.545 398.02 207.597C398.065 207.697 398.107 207.799 398.149 207.905C398.385 208.51 398.567 209.135 398.696 209.772C398.833 210.459 398.912 211.157 398.934 211.858C398.942 212.167 398.942 212.478 398.934 212.795C398.929 212.914 398.923 213.035 398.914 213.156C398.821 214.499 398.529 215.82 398.046 217.077C397.997 217.201 397.944 217.327 397.895 217.454C397.652 218.034 397.37 218.597 397.052 219.138C396.87 219.448 396.673 219.755 396.463 220.06L396.335 220.243C395.837 220.939 395.282 221.591 394.674 222.194C394.076 222.793 393.435 223.349 392.757 223.855C392.076 224.358 391.438 224.916 390.849 225.522C389.153 227.304 388.758 228.875 389.139 230.066C389.184 230.2 389.238 230.332 389.298 230.46C389.44 230.737 389.622 230.991 389.841 231.212L389.901 231.272C389.963 231.332 390.029 231.389 390.095 231.445L390.163 231.5C390.328 231.626 390.502 231.739 390.683 231.838C390.735 231.866 390.784 231.894 390.844 231.921C391.093 232.045 391.354 232.145 391.622 232.22L391.697 232.24L391.797 232.267L391.885 232.288L391.979 232.308L392.073 232.328L392.162 232.342C392.229 232.355 392.296 232.365 392.363 232.374L392.428 232.383L392.545 232.395L392.617 232.402L392.736 232.411H392.805L392.93 232.417H393.321L393.433 232.411L393.562 232.403L393.718 232.389L393.865 232.371C393.898 232.371 393.932 232.362 393.966 232.356C394.59 232.265 395.196 232.071 395.757 231.782C396.231 231.542 396.671 231.238 397.065 230.88L397.224 230.729C397.249 230.704 397.275 230.68 397.299 230.654C397.454 230.498 397.601 230.333 397.738 230.161C397.979 229.856 398.194 229.532 398.38 229.191C400.589 225.173 402.904 221.214 405.323 217.319L405.654 216.787L405.99 216.254C406.158 215.986 406.326 215.719 406.494 215.456L406.665 215.191L407.004 214.661C407.46 213.955 407.917 213.258 408.378 212.566L408.722 212.052C409.413 211.029 410.103 210.033 410.784 209.085L411.125 208.618C411.867 207.593 412.64 206.591 413.442 205.613L413.762 205.231C413.814 205.167 413.862 205.105 413.92 205.043L414.233 204.68C414.284 204.62 414.334 204.562 414.388 204.504L414.691 204.162L414.843 203.997C414.99 203.838 415.139 203.681 415.29 203.525C415.392 203.424 415.485 203.323 415.584 203.229C416.155 202.643 416.787 202.118 417.467 201.663L417.624 201.562L417.783 201.461C417.885 201.397 417.988 201.337 418.093 201.279C420.761 199.765 422.971 199.653 424.242 200.924C425.013 201.696 425.438 202.973 425.416 204.749C425.416 204.828 425.416 204.906 425.409 204.987V205.075C425.409 205.155 425.402 205.238 425.396 205.32C425.396 205.421 425.384 205.522 425.374 205.623C425.364 205.725 425.359 205.801 425.349 205.891C425.349 205.917 425.343 205.943 425.34 205.969C425.332 206.048 425.322 206.128 425.312 206.207C425.312 206.232 425.312 206.255 425.302 206.28C425.29 206.387 425.275 206.495 425.255 206.601C425.243 206.7 425.227 206.798 425.208 206.896C425.2 206.952 425.189 207.007 425.18 207.064C425.15 207.224 425.112 207.383 425.066 207.539C424.979 207.831 424.872 208.117 424.747 208.394C424.693 208.515 424.636 208.635 424.577 208.754C424.455 208.999 424.317 209.25 424.166 209.51C424.091 209.637 424.013 209.769 423.929 209.902L423.803 210.103C423.674 210.305 423.54 210.509 423.4 210.716C423.26 210.922 423.11 211.134 422.948 211.347C422.739 211.632 422.519 211.922 422.287 212.215L422.111 212.438C421.613 213.057 421.103 213.667 420.581 214.267L420.167 214.736L419.956 214.973C419.668 215.295 419.379 215.614 419.088 215.932L418.865 216.173C418.717 216.334 418.562 216.496 418.414 216.658C418.263 216.821 418.11 216.984 417.956 217.147L417.491 217.637L417.02 218.128C416.863 218.292 416.705 218.458 416.546 218.621L415.588 219.609C411.011 224.306 406.188 228.986 404.556 231.904C404.448 232.095 404.35 232.29 404.26 232.49C404.029 233.021 403.932 233.475 403.997 233.842C404.019 233.963 404.062 234.079 404.124 234.184C404.216 234.343 404.328 234.49 404.457 234.621C404.517 234.68 404.579 234.735 404.646 234.785C404.982 235.024 405.388 235.147 405.8 235.135H405.929L406.061 235.126L406.194 235.11L406.303 235.094C406.318 235.093 406.333 235.09 406.347 235.086L406.448 235.067L406.475 235.06L406.586 235.037L406.625 235.026L406.744 234.996L406.885 234.954C406.977 234.926 407.07 234.894 407.165 234.859C407.369 234.787 407.569 234.703 407.764 234.61C407.814 234.586 407.864 234.563 407.913 234.537L408.063 234.463C408.259 234.364 408.455 234.256 408.651 234.14C408.808 234.047 408.964 233.953 409.12 233.852L409.271 233.752C409.32 233.72 409.371 233.687 409.421 233.65L409.571 233.549L409.65 233.494L409.867 233.343C410.069 233.203 410.257 233.059 410.449 232.914L410.466 232.901L410.769 232.666C411.183 232.339 411.577 232.009 411.932 231.699L412.169 231.49L412.192 231.469L412.315 231.36C412.606 231.099 412.866 230.855 413.082 230.653L413.17 230.567L413.384 230.365L413.511 230.241L413.555 230.196L413.568 230.183L413.784 229.965L413.793 229.956L413.834 229.92C413.846 229.907 413.863 229.893 413.883 229.876L413.898 229.861L413.941 229.823L414.17 229.621L414.299 229.505C414.362 229.45 414.431 229.388 414.501 229.322L414.656 229.186C414.683 229.164 414.71 229.138 414.738 229.113L414.9 228.972L415.138 228.764L415.263 228.654C415.754 228.226 416.352 227.71 417.037 227.129L417.318 226.892L417.783 226.502L418.257 226.105C418.878 225.59 419.546 225.042 420.253 224.473L420.717 224.1C421.112 223.786 421.518 223.464 421.929 223.142C422.094 223.012 422.262 222.882 422.434 222.753C423.827 221.675 425.243 220.625 426.68 219.605L427.114 219.303C427.417 219.093 427.719 218.884 428.023 218.68L428.297 218.494C428.84 218.128 429.388 217.77 429.939 217.42L430.214 217.247L430.486 217.078C430.758 216.909 431.03 216.742 431.298 216.581L431.568 216.42L432.109 216.105C432.286 216.003 432.462 215.902 432.638 215.803L432.744 215.743L433.164 215.514C433.338 215.419 433.513 215.327 433.686 215.238L433.945 215.105L434.196 214.977C434.769 214.689 435.353 214.423 435.946 214.179C436.028 214.145 436.108 214.112 436.188 214.077C436.347 214.011 436.505 213.95 436.662 213.896C436.819 213.842 436.973 213.787 437.126 213.733C437.265 213.687 437.399 213.644 437.53 213.603L437.574 213.59C437.644 213.568 437.714 213.548 437.784 213.53L437.804 213.524C437.946 213.483 438.089 213.446 438.232 213.412H438.243C438.454 213.361 438.66 213.319 438.861 213.285C438.929 213.273 438.997 213.262 439.063 213.253C439.258 213.224 439.454 213.203 439.651 213.19C439.775 213.181 439.9 213.177 440.024 213.177H440.119C440.246 213.177 440.367 213.185 440.488 213.198C440.544 213.198 440.599 213.208 440.653 213.216H440.676C440.73 213.221 440.785 213.23 440.838 213.242C440.891 213.253 440.945 213.261 440.997 213.273H441.015C441.067 213.285 441.116 213.299 441.17 213.314C441.601 213.43 441.997 213.649 442.326 213.952L442.355 213.981L442.413 214.038L442.469 214.098C442.922 214.574 443.296 215.12 443.579 215.714L443.623 215.814C443.719 216.04 443.794 216.274 443.847 216.513C443.994 217.18 443.954 217.876 443.732 218.522C443.636 218.803 443.519 219.076 443.38 219.338L443.287 219.505C442.936 220.096 442.52 220.646 442.047 221.145L441.945 221.252C441.651 221.566 441.343 221.866 441.021 222.151L440.901 222.26C440.653 222.48 440.399 222.694 440.142 222.904C440.097 222.941 440.05 222.977 440.006 223.015C439.827 223.16 439.642 223.306 439.45 223.453C438.788 223.959 438.115 224.447 437.428 224.918C437.024 225.194 436.607 225.473 436.175 225.757C435.372 226.284 434.563 226.8 433.745 227.306C433.509 227.452 433.272 227.6 433.031 227.746C430.811 229.113 428.349 230.574 425.724 232.163L425.044 232.576C424.3 233.03 423.598 233.464 422.938 233.876L422.605 234.086L421.975 234.49C421.726 234.648 421.483 234.804 421.247 234.958C421.069 235.072 420.895 235.185 420.725 235.296L420.388 235.518C420.225 235.625 420.062 235.732 419.9 235.842L419.742 235.942C419.575 236.054 419.412 236.164 419.254 236.272L418.996 236.448L418.692 236.659L418.412 236.855C417.97 237.165 417.533 237.482 417.099 237.805L416.948 237.921C416.778 238.049 416.613 238.178 416.454 238.303L416.246 238.469C415.896 238.751 415.579 239.02 415.292 239.278L415.152 239.407C415.072 239.48 414.993 239.553 414.919 239.626C414.866 239.675 414.817 239.726 414.764 239.776L414.691 239.848C414.529 240.01 414.372 240.176 414.22 240.346L414.146 240.432C413.98 240.624 413.835 240.808 413.708 240.988L413.651 241.069C413.505 241.283 413.375 241.51 413.264 241.746L413.226 241.829L413.202 241.886L413.183 241.936L413.157 242.005C413.149 242.029 413.133 242.07 413.124 242.107C413.078 242.241 413.044 242.38 413.021 242.521L413.01 242.597L413.001 242.666L412.995 242.732V243.087C412.995 243.116 412.995 243.147 413.002 243.177L413.008 243.231C413.008 243.261 413.016 243.29 413.019 243.32L413.041 243.445V243.45C413.049 243.49 413.056 243.529 413.067 243.569C413.077 243.608 413.087 243.652 413.099 243.694C413.135 243.822 413.179 243.948 413.23 244.071C413.23 244.08 413.238 244.091 413.242 244.1C413.255 244.13 413.267 244.162 413.282 244.192C413.337 244.321 413.4 244.446 413.467 244.569L413.538 244.697L413.613 244.826L413.691 244.954C413.704 244.976 413.719 244.996 413.736 245.014L413.762 245.041L413.789 245.066L413.819 245.09C413.84 245.104 413.862 245.118 413.884 245.129C413.906 245.14 413.931 245.151 413.956 245.16C413.983 245.169 414.01 245.177 414.037 245.184C414.689 245.33 416.027 244.791 417.805 243.851L418.124 243.682L418.665 243.387L418.93 243.24C419.117 243.139 419.311 243.026 419.506 242.914L419.864 242.712C422.215 241.358 425.024 239.618 427.927 237.919C428.198 237.76 428.471 237.602 428.744 237.444L429.293 237.094C429.567 236.936 429.84 236.78 430.114 236.627C431.282 235.963 432.464 235.325 433.66 234.714L434.196 234.442C434.552 234.265 434.906 234.094 435.254 233.927C435.93 233.606 436.613 233.302 437.303 233.014L437.681 232.861L437.727 232.843C439.73 232.049 441.546 231.558 443.015 231.558C443.334 231.555 443.651 231.581 443.965 231.635H443.974C444.075 231.653 444.167 231.674 444.259 231.698H444.276C444.412 231.73 444.545 231.772 444.673 231.824C444.776 231.861 444.875 231.905 444.971 231.957C445.428 232.19 445.813 232.542 446.085 232.976C446.185 233.127 446.271 233.286 446.341 233.453C446.382 233.549 446.421 233.649 446.457 233.756C446.493 233.864 446.524 233.968 446.557 234.08C446.797 234.936 446.773 235.842 446.489 236.684Z" fill="#FF9D00"/>
<path fill-rule="evenodd" clip-rule="evenodd" d="M433.174 175.352V174.799C433.174 127.537 394.891 89.2241 347.647 89.2241C300.406 89.2241 262.108 127.539 262.108 174.799V174.984C262.106 175.107 262.105 175.229 262.108 175.352C262.113 175.536 262.115 175.72 262.113 175.904L262.119 176.311L262.122 176.458L262.127 176.659C262.13 176.767 262.133 176.874 262.133 176.983L262.144 177.422L262.162 177.938L262.168 178.107L262.191 178.642V178.666L262.222 179.291V179.307C262.242 179.717 262.267 180.127 262.296 180.536L262.299 180.571C262.309 180.74 262.32 180.909 262.333 181.077L262.336 181.121C262.347 181.284 262.36 181.448 262.373 181.609L262.376 181.641L262.398 181.923C262.466 182.737 262.545 183.551 262.635 184.363L262.641 184.414L262.709 185.01L262.788 185.638C262.871 186.307 262.962 186.976 263.063 187.642L263.069 187.673C263.401 189.885 263.822 192.082 264.331 194.26L264.336 194.286L264.372 194.438C264.406 194.583 264.44 194.727 264.476 194.873L264.538 194.797C267.021 191.827 270.584 190.19 274.569 190.19C277.763 190.19 281.041 191.246 284.324 193.329C286.503 194.714 288.911 197.166 291.39 200.25C293.683 197.062 296.898 194.945 300.575 194.367C301.277 194.256 301.986 194.2 302.695 194.199C311.089 194.199 316.144 201.487 318.054 208.041C318.997 210.256 323.545 220.341 330.403 227.164C340.827 237.583 343.435 248.335 338.277 259.847H338.294C338.646 259.886 338.999 259.922 339.354 259.955C339.565 259.975 339.776 259.995 339.987 260.013L340.062 260.02C340.216 260.035 340.372 260.048 340.528 260.06L340.957 260.095C341.365 260.126 341.775 260.155 342.187 260.182L342.512 260.201L342.77 260.216L342.932 260.225L343.435 260.252L343.573 260.257L344.103 260.28L344.691 260.303L345.165 260.316L345.244 260.319C345.344 260.323 345.445 260.327 345.546 260.327L345.653 260.33C346.319 260.345 346.984 260.353 347.65 260.353H348.356L348.862 260.348C348.986 260.341 349.109 260.341 349.233 260.341H349.43L349.6 260.338C349.667 260.335 349.734 260.333 349.801 260.333H350.003L350.399 260.322L350.995 260.301L351.652 260.273C351.841 260.265 352.028 260.256 352.216 260.246L352.418 260.235L352.718 260.218L352.895 260.208L353.027 260.2L353.633 260.159C353.835 260.147 354.037 260.131 354.239 260.115L354.788 260.072L355.175 260.039L355.598 260.001C356.033 259.96 356.466 259.917 356.897 259.872C357.173 259.842 357.446 259.811 357.72 259.779L358.202 259.721C353.124 248.256 355.753 237.552 366.134 227.174C372.977 220.334 377.525 210.247 378.473 208.033C380.384 201.478 385.435 194.191 393.831 194.191C394.541 194.192 395.25 194.247 395.951 194.359C399.625 194.937 402.841 197.056 405.138 200.242C407.617 197.158 410.025 194.706 412.203 193.321C415.487 191.238 418.767 190.182 421.957 190.182C425.474 190.182 428.663 191.458 431.07 193.798C431.203 193.208 431.33 192.619 431.452 192.027C431.526 191.658 431.6 191.288 431.672 190.916C431.76 190.46 431.844 190.001 431.92 189.543C431.941 189.419 431.962 189.295 431.986 189.169C432.023 188.974 432.056 188.781 432.086 188.584L432.099 188.51L432.179 187.998L432.258 187.48L432.259 187.474C432.291 187.257 432.323 187.039 432.353 186.822C432.376 186.657 432.399 186.492 432.42 186.326L432.434 186.231L432.504 185.691L432.562 185.232C432.611 184.807 432.658 184.383 432.703 183.958L432.714 183.86C432.735 183.658 432.755 183.457 432.773 183.254L432.818 182.785C432.911 181.744 432.987 180.702 433.046 179.659V179.652L433.076 179.099L433.082 178.975L433.104 178.45C433.113 178.252 433.121 178.052 433.128 177.85V177.835L433.134 177.69C433.139 177.565 433.144 177.441 433.144 177.318L433.146 177.267C433.151 177.152 433.155 177.032 433.155 176.914L433.159 176.812C433.162 176.694 433.165 176.576 433.165 176.458L433.168 176.357C433.171 176.206 433.174 176.056 433.174 175.904V175.352ZM326.433 260.841C333.206 250.902 332.726 243.442 323.431 234.149C314.137 224.856 308.727 211.264 308.727 211.264C308.727 211.264 306.707 203.369 302.102 204.095C297.497 204.82 294.119 216.617 303.76 223.838C313.402 231.059 301.843 235.956 298.132 229.179C294.419 222.402 284.288 204.981 279.034 201.649C273.781 198.317 270.087 200.185 271.325 207.052C271.94 210.462 277.66 216.279 283.005 221.715C288.427 227.231 293.462 232.352 292.387 234.165C290.25 237.765 282.725 229.936 282.725 229.936C282.725 229.936 259.162 208.484 254.033 214.075C249.304 219.228 256.596 223.608 267.833 230.358C268.789 230.933 269.774 231.525 270.781 232.134C283.637 239.921 284.637 241.975 282.813 244.922C282.139 246.01 277.835 243.425 272.542 240.246C263.518 234.825 251.618 227.679 249.939 234.076C248.484 239.612 257.238 243.004 265.177 246.081C271.791 248.645 277.841 250.989 276.952 254.171C276.029 257.469 271.03 254.719 265.565 251.71C259.431 248.333 252.709 244.633 250.511 248.808C246.353 256.701 279.191 265.994 279.462 266.061C290.072 268.814 317.015 274.648 326.433 260.841ZM370.072 260.841C363.298 250.902 363.779 243.442 373.074 234.149C382.368 224.856 387.779 211.264 387.779 211.264C387.779 211.264 389.797 203.369 394.403 204.095C399.008 204.82 402.387 216.617 392.745 223.838C383.102 231.059 394.662 235.956 398.374 229.179C402.086 222.402 412.212 204.981 417.465 201.649C422.718 198.317 426.413 200.185 425.175 207.052C424.56 210.462 418.84 216.28 413.494 221.716C408.073 227.231 403.038 232.352 404.114 234.165C406.249 237.765 413.781 229.931 413.781 229.931C413.781 229.931 437.343 208.48 442.473 214.07C447.201 219.223 439.908 223.604 428.671 230.356C427.715 230.93 426.732 231.52 425.724 232.131C412.867 239.917 411.868 241.972 413.692 244.917C414.366 246.006 418.67 243.421 423.962 240.242C432.987 234.822 444.887 227.674 446.566 234.071C448.021 239.608 439.267 243.001 431.327 246.078C424.713 248.641 418.664 250.984 419.552 254.168C420.474 257.466 425.471 254.714 430.934 251.706C437.068 248.328 443.791 244.627 445.991 248.804C450.149 256.703 417.306 265.985 417.04 266.054C406.43 268.814 379.486 274.648 370.072 260.841Z" fill="#FFD21E"/>
<path fill-rule="evenodd" clip-rule="evenodd" d="M375.428 151.506C376.761 151.978 377.753 153.415 378.697 154.782C379.972 156.63 381.16 158.349 382.981 157.38C385.131 156.237 386.894 154.483 388.046 152.337C389.198 150.192 389.689 147.753 389.454 145.329C389.193 142.596 388.026 140.028 386.138 138.035C384.25 136.042 381.751 134.738 379.036 134.33C376.934 134.014 374.785 134.248 372.799 135.01C370.813 135.771 369.059 137.035 367.707 138.677C366.159 140.556 365.203 142.852 364.959 145.275C364.715 147.697 365.194 150.138 366.335 152.288C367.18 153.877 369.053 153.128 371.031 152.337C372.581 151.717 374.196 151.071 375.428 151.506ZM317.44 151.507C316.107 151.979 315.114 153.416 314.17 154.783C312.895 156.63 311.708 158.35 309.886 157.381C308.279 156.526 306.883 155.325 305.796 153.865C304.709 152.405 303.96 150.722 303.601 148.937C303.242 147.152 303.283 145.31 303.721 143.543C304.159 141.776 304.983 140.129 306.134 138.719C307.286 137.309 308.736 136.173 310.379 135.391C312.023 134.609 313.819 134.202 315.639 134.197C318.694 134.191 321.642 135.322 323.91 137.369C326.179 139.416 327.606 142.234 327.913 145.275C328.157 147.698 327.677 150.139 326.534 152.289C325.688 153.878 323.814 153.128 321.836 152.337C320.287 151.717 318.673 151.071 317.44 151.507ZM366.457 204.298C375.648 197.053 379.024 185.227 379.024 177.942C379.024 172.183 375.15 173.995 368.95 177.065L368.602 177.239C362.91 180.059 355.334 183.812 347.018 183.812C338.7 183.812 331.124 180.058 325.435 177.238C319.034 174.066 315.019 172.076 315.019 177.943C315.019 185.458 318.611 197.799 328.47 204.969C329.77 202.327 331.601 199.981 333.849 198.08C336.097 196.179 338.713 194.762 341.533 193.919C342.518 193.625 343.531 195.32 344.57 197.055C345.571 198.729 346.593 200.441 347.635 200.441C348.743 200.441 349.834 198.754 350.898 197.106C352.01 195.386 353.093 193.708 354.142 194.043C359.419 195.737 363.834 199.414 366.457 204.298Z" fill="#32343D"/>
<path d="M366.454 204.297C361.667 208.071 355.304 210.602 347.02 210.602C339.235 210.602 333.146 208.368 328.47 204.968C329.771 202.327 331.603 199.982 333.85 198.081C336.098 196.179 338.713 194.762 341.533 193.918C343.467 193.341 345.514 200.44 347.634 200.44C349.904 200.44 352.09 193.386 354.142 194.042C359.418 195.738 363.831 199.414 366.454 204.297Z" fill="#FF323D"/>
<path fill-rule="evenodd" clip-rule="evenodd" d="M295.463 161.752C294.59 162.34 293.609 162.751 292.577 162.959C291.545 163.167 290.482 163.169 289.449 162.965C287.894 162.657 286.466 161.894 285.345 160.773C284.223 159.652 283.46 158.223 283.152 156.667C282.844 155.112 283.005 153.5 283.613 152.035C284.222 150.571 285.252 149.321 286.572 148.443C288.336 147.272 290.493 146.848 292.569 147.264C294.645 147.68 296.471 148.903 297.648 150.664C298.824 152.426 299.255 154.582 298.846 156.66C298.436 158.738 297.22 160.569 295.463 161.752ZM409.926 161.752C408.611 162.638 407.062 163.114 405.477 163.117C403.891 163.12 402.34 162.652 401.021 161.771C400.145 161.187 399.393 160.435 398.808 159.56C398.223 158.684 397.817 157.701 397.612 156.668C397.201 154.582 397.634 152.417 398.818 150.65C399.7 149.337 400.951 148.315 402.412 147.712C403.874 147.11 405.482 146.954 407.032 147.264C409.108 147.681 410.934 148.904 412.11 150.665C413.287 152.426 413.718 154.581 413.309 156.659C412.899 158.738 411.683 160.569 409.926 161.752Z" fill="#FFAD03"/>
</svg>
