<svg width="1440" height="360" viewBox="0 0 1440 360" fill="none" xmlns="http://www.w3.org/2000/svg">
<rect width="1440" height="360" rx="180" fill="white"/>
<g clip-path="url(#clip0_1050_12)">
<path d="M461.444 138.685C459.14 138.676 456.858 139.124 454.729 140.003C452.6 140.882 450.666 142.175 449.039 143.806L435.697 157.117C433.915 158.898 432.539 161.043 431.664 163.405C430.789 165.768 430.435 168.292 430.626 170.804L430.71 171.648C431.164 175.526 432.923 179.135 435.697 181.882C437.62 183.801 439.737 185.017 442.31 185.862C442.443 186.635 442.518 187.418 442.518 188.205C442.518 191.73 441.148 195.042 438.654 197.523L437.832 198.346C433.376 196.824 429.662 194.6 426.307 191.252C421.869 186.846 418.894 181.179 417.788 175.023L417.638 174.169L416.961 174.717C416.507 175.084 416.073 175.476 415.662 175.889L402.319 189.2C399.868 191.65 398.198 194.772 397.523 198.172C396.847 201.571 397.196 205.095 398.526 208.296C399.855 211.497 402.104 214.231 404.989 216.151C407.874 218.071 411.264 219.091 414.729 219.082C417.032 219.086 419.313 218.637 421.441 217.758C423.57 216.879 425.504 215.589 427.134 213.961L440.48 200.65C442.106 199.024 443.396 197.094 444.276 194.97C445.155 192.846 445.608 190.569 445.608 188.269C445.608 185.97 445.155 183.693 444.276 181.569C443.396 179.445 442.106 177.515 440.48 175.889C438.654 174.07 436.446 172.68 434.017 171.821C433.634 169.543 433.805 167.206 434.516 165.009C435.227 162.811 436.457 160.817 438.102 159.195C442.538 160.697 446.569 163.203 449.879 166.519C454.311 170.929 457.283 176.594 458.393 182.748L458.548 183.602L459.224 183.053C459.684 182.686 460.117 182.288 460.533 181.873L473.875 168.562C476.328 166.113 477.998 162.99 478.674 159.59C479.349 156.19 479 152.666 477.67 149.465C476.34 146.264 474.089 143.53 471.203 141.611C468.317 139.691 464.927 138.673 461.461 138.685H461.444Z" fill="black"/>
<path d="M454.295 90.0044H279.717C229.965 90.0044 189.501 130.38 189.501 180.002C189.501 229.629 229.969 270 279.713 270H454.291C504.038 270 544.507 229.625 544.507 180.007C544.507 130.371 504.038 90 454.295 90V90.0044ZM368.187 231.106C365.309 231.699 362.068 231.805 359.867 229.514C359.058 231.371 357.161 230.394 355.698 230.151C355.565 230.527 355.446 230.858 355.322 231.239C350.459 231.562 346.812 226.613 344.495 222.881C339.898 220.395 334.672 218.883 329.973 216.283C329.699 220.563 330.636 225.879 326.551 228.638C326.343 236.873 339.036 229.611 340.203 235.749C339.301 235.847 338.302 235.604 337.577 236.298C334.266 239.508 330.468 233.866 326.653 236.196C321.525 238.77 321.012 240.879 314.672 241.41C314.319 240.879 314.465 240.526 314.761 240.203C316.547 238.133 316.675 235.692 319.721 234.808C316.582 234.317 313.961 236.046 311.317 237.417C307.878 238.819 307.904 234.246 302.617 237.655C302.033 237.178 302.312 236.744 302.648 236.377C303.992 234.741 305.76 234.498 307.754 234.586C297.944 229.134 293.329 241.255 288.797 235.228C287.436 235.586 286.923 236.811 286.065 237.673C285.327 236.864 285.888 235.882 285.919 234.931C285.035 234.516 283.917 234.317 284.178 232.902C282.449 232.318 281.238 233.344 279.947 234.317C278.784 233.419 280.734 232.105 281.096 231.168C282.131 229.368 284.496 230.797 285.694 229.501C289.107 227.568 293.859 230.708 297.758 230.177C300.765 230.553 304.478 227.48 302.971 224.406C299.761 220.311 300.327 214.956 300.256 210.06C299.858 207.208 292.993 203.573 291.008 200.495C288.554 197.722 286.644 194.512 284.73 191.35C277.829 178.021 280 160.898 271.304 148.52C267.37 150.687 262.25 149.665 258.855 146.756C257.025 148.423 256.945 150.603 256.799 152.911C252.405 148.533 252.953 140.25 256.468 135.373C257.895 133.49 259.601 131.834 261.525 130.464C261.959 130.154 262.104 129.845 262.096 129.358C265.57 113.774 289.257 116.777 296.746 127.819C302.179 134.616 303.819 143.607 309.982 149.917C318.271 158.97 327.718 166.943 335.366 176.584C342.603 185.393 347.771 195.723 352.28 206.138C354.119 209.596 354.137 213.833 356.865 216.787C358.209 218.569 364.778 223.42 363.35 225.136C364.172 226.918 370.304 229.377 368.178 231.106H368.187ZM483.243 177.933L469.901 191.244C466.351 194.79 461.987 197.414 457.191 198.885L456.943 198.956L456.855 199.19C455.32 203.256 452.931 206.945 449.848 210.007L436.502 223.318C433.641 226.184 430.242 228.455 426.499 229.999C422.757 231.544 418.746 232.332 414.698 232.318C410.65 232.332 406.639 231.544 402.897 229.999C399.154 228.455 395.755 226.184 392.895 223.318C390.035 220.464 387.767 217.073 386.219 213.34C384.672 209.608 383.875 205.606 383.875 201.565C383.875 197.524 384.672 193.523 386.219 189.79C387.767 186.058 390.035 182.667 392.895 179.812L406.237 166.501C409.777 162.958 414.136 160.344 418.929 158.89L419.172 158.815L419.26 158.581C420.805 154.504 423.202 150.805 426.289 147.728L439.636 134.417C442.496 131.552 445.896 129.281 449.638 127.737C453.38 126.192 457.391 125.404 461.439 125.418C469.684 125.418 477.425 128.615 483.243 134.417C486.113 137.265 488.388 140.655 489.936 144.39C491.484 148.126 492.275 152.131 492.261 156.175C492.261 164.4 489.061 172.126 483.243 177.924V177.933Z" fill="black"/>
<path d="M313.912 214.996C312.741 219.551 312.365 227.299 306.423 227.52C305.937 230.151 308.249 231.142 310.358 230.292C312.444 229.342 313.435 231.049 314.138 232.751C317.36 233.22 322.122 231.681 322.303 227.874C317.493 225.11 316.008 219.856 313.921 214.987L313.912 214.996ZM628.087 137.177H612.238V233.344H680.213V218.025H628.087V137.177ZM759.88 233.344H775.729V233.176H775.937L775.968 232.468C775.972 232.26 776.03 230.337 775.738 227.374V191.58C775.738 178.114 785.552 171.989 794.672 171.989C804.482 171.989 809.257 177.274 809.257 188.161V233.344H825.105V186.048C825.105 168.084 813.695 156.922 795.335 156.922C787.533 156.922 780.57 159.142 775.101 163.352L774.955 158.24H759.902V233.344H759.88ZM889.605 163.759C884.097 159.284 877.015 156.922 869.026 156.922C847.656 156.922 834.38 171.666 834.38 195.396C834.38 219.126 847.656 234.003 869.026 234.003C876.564 234.003 883.292 231.946 888.593 228.042C888.137 239.681 880.847 246.597 868.898 246.597C858.849 246.597 853.164 243.396 851.997 237.09L851.851 236.302L836.453 241.003L836.591 241.636C839.19 254.173 850.918 261.66 867.978 261.66C879.552 261.66 888.628 258.507 894.963 252.284C901.356 246.014 904.592 236.975 904.592 225.428V158.24H889.932L889.614 163.759H889.605ZM888.615 196.055C888.615 210.383 881.639 218.945 869.946 218.945C857.413 218.945 850.229 210.366 850.229 195.401C850.229 180.44 857.417 171.985 869.946 171.985C881.356 171.985 888.5 180.502 888.615 194.211V196.06V196.055ZM982.677 202.848C979.392 213.479 970.957 219.339 958.932 219.339C941.74 219.339 931.05 206.28 931.05 185.256C931.05 164.237 941.833 151.178 959.198 151.178C971.213 151.178 978.136 155.888 981.66 166.448L983.304 171.388L998.269 164.356L996.863 160.403C991.165 144.341 978.004 135.859 958.804 135.859C945.758 135.859 934.684 140.569 926.775 149.48C918.95 158.307 914.808 170.671 914.808 185.265C914.808 215.274 932.124 234.671 958.932 234.671C977.823 234.671 992.455 224.782 998.07 208.216L999.502 203.984L984.131 198.138L982.668 202.857L982.677 202.848ZM1041.86 156.922C1034.29 156.922 1027.56 159.001 1022.27 162.937V127.965H1006.43V233.357H1022.27V191.589C1022.27 178.039 1032.08 171.865 1041.21 171.865C1051.02 171.865 1055.79 177.154 1055.79 188.038V233.362H1071.64V185.928C1071.64 168.314 1059.96 156.936 1041.87 156.936L1041.86 156.922ZM1164.28 125.697C1158.39 125.697 1154.11 129.973 1154.11 135.859C1154.11 141.75 1158.39 146.026 1164.28 146.026C1170.16 146.026 1174.43 141.75 1174.43 135.859C1174.43 129.973 1170.16 125.697 1164.28 125.697ZM1220.71 156.922C1212.91 156.922 1205.95 159.142 1200.48 163.352L1200.33 158.24H1185.28V233.344H1201.13V191.58C1201.13 178.114 1210.94 171.989 1220.07 171.989C1229.88 171.989 1234.65 177.274 1234.65 188.161V233.344H1250.5V186.048C1250.5 168.084 1239.09 156.922 1220.73 156.922H1220.71ZM1171.97 158.245H1156.2V195.471C1151.83 191.797 1146.67 189.015 1140.85 187.197V183.412C1140.85 166.828 1129.97 156.922 1111.73 156.922C1096.92 156.922 1085.84 163.883 1081.33 176.005L1080.11 179.277L1092.82 188.643L1095 182.961C1097.87 175.47 1103.19 171.98 1111.73 171.98C1120.28 171.98 1125.01 176.093 1125.01 184.195V184.619C1124.49 184.597 1123.98 184.582 1123.47 184.575C1106.5 184.305 1094.13 188.272 1086.68 196.356C1079.06 204.626 1079.73 213.912 1079.83 214.938L1079.9 215.655H1079.97C1081.16 227.223 1091.26 234.648 1105.94 234.648C1114.03 234.648 1121.5 232.397 1127.15 228.28L1127.21 233.339H1140.85V209.844L1140.56 209.632C1138.63 208.216 1135.27 206.395 1130.2 205.753C1128.71 205.555 1127.21 205.465 1125.7 205.484H1125V207.642C1125 212.608 1119.29 219.604 1106.59 219.604C1097.22 219.604 1095.82 215.659 1095.82 213.307V213.068C1095.89 212.011 1096.34 209.428 1098.67 207.027C1101.62 203.971 1108.28 200.393 1123.21 200.619C1134.02 200.791 1142.31 203.812 1147.87 209.609C1154.68 216.721 1155.96 226.458 1156.19 230.275V233.344H1171.96V158.245H1171.97ZM718.904 156.595C704.09 156.595 693.011 163.551 688.497 175.677L687.282 178.95L699.987 188.316L702.167 182.634C705.04 175.142 710.363 171.649 718.904 171.649C727.449 171.649 732.175 175.761 732.175 183.867V185.769L715.853 188.652C696.72 192.035 687.016 200.221 687.016 212.966C687.016 225.711 697.255 234.326 713.104 234.326C721.194 234.326 728.66 232.07 734.31 227.958L734.377 233.012H748.015V183.085C748.015 166.497 737.135 156.595 718.904 156.595ZM732.175 200.628V207.319C732.175 212.289 726.463 219.281 713.767 219.281C704.395 219.281 703.002 215.341 703.002 212.988C703.002 210.896 703.002 206.01 719.602 202.927L732.175 200.628Z" fill="black"/>
</g>
<defs>
<clipPath id="clip0_1050_12">
<rect width="1066" height="180" fill="white" transform="translate(187 90)"/>
</clipPath>
</defs>
</svg>
