<svg width="1440" height="360" viewBox="0 0 1440 360" fill="none" xmlns="http://www.w3.org/2000/svg">
<rect width="1440" height="360" rx="180" fill="white"/>
<path d="M579.575 50.7036L586.515 63.7392C588.076 66.145 589.767 68.2739 591.75 70.2569C597.582 76.0165 603.021 82.1697 608.023 88.6729C619.775 104.1 627.707 121.247 633.365 139.794C636.762 151.109 638.599 162.745 638.745 174.483C639.314 209.609 627.27 239.763 603.007 264.828C599.07 268.794 594.798 272.454 590.248 275.72C587.842 275.72 586.705 273.883 585.713 272.177C583.905 269.027 582.71 265.571 582.17 261.984C581.31 257.727 580.756 253.484 581.033 249.109V247.126C580.843 246.674 578.729 51.7097 579.575 50.7036Z" fill="#599636"/>
<path d="M579.575 50.281C579.298 49.7124 579.007 50.1352 578.715 50.4268C578.861 53.2702 577.855 55.8073 576.309 58.2278C574.603 60.6336 572.343 62.4854 570.068 64.4685C557.485 75.3606 547.57 88.5419 539.638 103.269C529.066 123.085 523.628 144.329 522.096 166.711C521.397 174.775 524.648 203.237 527.2 211.446C534.141 233.26 546.593 251.53 562.749 267.38C566.715 271.2 570.958 274.743 575.332 278.155C576.615 278.155 576.747 277.018 577.038 276.172C577.607 274.364 578.03 272.527 578.321 270.66L581.165 249.43L579.575 50.281Z" fill="#6CAC48"/>
<path d="M586.516 284.323C586.793 281.071 588.353 278.388 590.059 275.691C588.353 274.991 587.084 273.577 586.093 272.016C585.233 270.529 584.533 268.969 583.979 267.336C581.996 261.401 581.573 255.146 581.004 249.08V245.406C580.304 245.974 580.144 250.786 580.144 251.501C579.735 257.931 578.875 264.303 577.592 270.617C577.169 273.168 576.892 275.72 575.317 277.98C575.317 278.257 575.317 278.549 575.463 278.972C578.015 286.481 578.715 294.121 579.138 301.922V304.766C579.138 308.163 578.992 307.449 581.821 308.586C582.958 309.009 584.226 309.155 585.364 310C586.224 310 586.355 309.3 586.355 308.717L585.932 304.037V291.001C585.801 288.726 586.224 286.466 586.516 284.323Z" fill="#C2BFBF"/>
<path d="M684.147 183.865V190.163C684.147 190.416 684.147 190.669 684.192 190.908C684.266 191.652 684.728 192.114 685.397 192.322C686.023 192.486 686.663 192.605 687.303 192.694C687.676 192.739 687.795 192.903 687.839 193.305C687.884 194.719 687.765 194.883 686.395 194.794C683.209 194.63 680.008 194.585 676.821 194.794H676.524C675.526 194.838 675.452 194.749 675.452 193.751C675.452 193.588 675.496 193.379 675.496 193.215C675.496 192.918 675.705 192.754 675.988 192.754C676.658 192.68 677.268 192.501 677.893 192.382C678.757 192.173 679.263 191.637 679.338 190.759C679.457 189.806 679.457 188.808 679.457 187.855L679.501 176.748C679.531 176.093 679.174 175.482 678.593 175.17C677.849 174.753 677.045 174.425 676.226 174.172C675.973 174.098 675.734 174.053 675.526 173.919C674.915 173.621 674.901 173.085 675.481 172.758C675.69 172.639 675.943 172.549 676.181 172.505C678.694 172.133 681.163 171.509 683.551 170.644C684.043 170.48 684.177 170.524 684.221 171.016C684.266 171.314 684.221 171.686 684.177 171.969C684.102 172.505 684.102 173.041 684.102 173.547C684.102 173.755 684.147 173.964 684.355 174.083C684.564 174.202 684.772 174.083 684.966 173.964C685.829 173.294 686.708 172.683 687.661 172.147C689.03 171.403 690.475 170.733 692.053 170.524C693.959 170.271 695.611 170.778 697.071 172.013C697.666 172.549 698.202 173.16 698.649 173.83C699.066 174.44 699.11 174.455 699.646 174.038C701.225 172.877 702.877 171.85 704.664 171.09C706.525 170.301 708.431 170.182 710.337 170.837C712.287 171.537 713.612 172.907 714.402 174.768C715.072 176.257 715.354 177.805 715.354 179.413V190.521C715.354 191.265 715.652 191.727 716.397 192.099C717.186 192.397 718.049 192.56 718.883 192.724C719.419 192.843 719.419 192.843 719.419 193.394C719.345 194.764 719.211 194.838 717.886 194.764C714.563 194.57 711.232 194.57 707.91 194.764C707.24 194.809 707.24 194.809 707.21 194.139V193.93C707.165 192.813 707.165 192.813 708.252 192.56L709.324 192.263C710.069 192.084 710.605 191.414 710.605 190.64L710.724 187.528L710.65 179.413C710.62 178.684 710.471 177.969 710.188 177.299C709.146 174.768 706.868 173.86 704.679 174.113C703.026 174.276 701.567 174.947 700.197 175.899C699.899 176.108 699.706 176.361 699.736 176.763C700.108 179.413 699.855 182.063 699.899 184.714V190.476C699.899 191.518 700.317 192.009 701.314 192.263L703.22 192.68C703.518 192.724 703.681 192.843 703.681 193.171V193.469C703.637 194.63 703.562 194.675 702.401 194.675C699.081 194.511 695.775 194.556 692.5 194.675C691.383 194.719 691.294 194.6 691.338 193.469C691.383 192.799 691.457 192.769 692.083 192.635L693.452 192.382C694.659 192.129 695.105 191.682 695.195 190.387L695.314 187.602L695.239 179.279C695.165 178.237 694.941 177.254 694.376 176.301C693.542 174.768 692.246 173.979 690.475 173.904C688.688 173.785 687.125 174.44 685.621 175.274C684.579 175.885 684.132 176.599 684.206 177.805V183.85L684.147 183.865ZM762.211 184.118V189.955C762.211 190.372 762.24 190.789 762.285 191.191C762.315 191.756 762.732 192.233 763.283 192.352C763.997 192.56 764.727 192.679 765.471 192.724C765.888 192.769 765.963 192.933 766.007 193.26V193.558C765.963 195.002 765.799 195.181 764.384 195.092C761.228 194.883 758.086 194.928 754.945 195.092L753.739 195.136C753.486 195.136 753.441 195.017 753.366 194.838C753.247 194.264 753.247 193.671 753.366 193.096C753.411 192.843 753.575 192.799 753.828 192.724C754.439 192.65 754.945 192.516 755.525 192.426C756.568 192.173 756.94 191.756 756.97 190.684L757.089 187.2V177.001C757.089 176.257 756.791 175.795 756.136 175.468C755.391 175.051 754.602 174.768 753.768 174.47C753.515 174.396 753.277 174.306 753.069 174.172C752.533 173.8 752.458 173.264 752.994 172.847C753.232 172.654 753.515 172.534 753.828 172.52C756.478 172.103 759.054 171.522 761.541 170.524C761.838 170.405 761.958 170.48 762.077 170.733C762.196 170.986 762.24 171.269 762.196 171.567L762.077 173.517C762.077 173.77 761.958 174.128 762.151 174.217C762.404 174.381 762.568 174.008 762.776 173.919C763.997 172.892 765.349 172.03 766.796 171.358C768.077 170.748 769.402 170.361 770.891 170.45C773.675 170.614 775.656 172.028 776.936 174.47C777.606 175.751 777.889 177.165 778.008 178.609L778.127 181.647L778.172 190.804C778.216 191.503 778.47 191.965 779.169 192.218C779.898 192.456 780.645 192.635 781.403 192.754C782.073 192.828 782.103 192.962 782.147 193.588V193.796C782.073 195.211 781.983 195.24 780.569 195.166C777.479 195.002 774.383 195.002 771.293 195.166C770.876 195.211 770.459 195.166 770.087 195.211C769.834 195.211 769.67 195.166 769.625 194.913C769.551 194.377 769.462 193.841 769.581 193.26C769.625 193.007 769.744 192.888 770.042 192.843L771.948 192.545C772.618 192.382 772.99 191.935 773.065 191.34L773.139 190.178L773.095 181.513C773.095 180.515 773.05 179.517 772.842 178.535C772.35 176.406 770.727 174.902 768.539 174.678C766.633 174.47 764.906 174.976 763.312 176.004C762.523 176.495 762.196 177.21 762.196 178.073V184.327C762.196 184.207 762.196 184.208 762.24 184.208L762.211 184.118Z" fill="#47474A"/>
<path d="M883.542 172.4C883.08 169.378 881.964 166.683 880.013 164.315C878.316 162.231 876.127 160.608 873.626 159.596C871.02 158.524 868.236 158.181 865.422 158.107C864.261 158.062 848.433 158.315 847.272 158.107C846.974 158.062 846.781 158.151 846.602 158.405C846.394 158.702 846.185 159.03 846.066 159.357C845.575 160.474 845.575 160.4 846.766 160.563C847.763 160.727 848.716 160.817 849.669 161.099C850.533 161.397 851.158 161.889 851.366 162.841C851.441 163.303 851.53 177.88 851.53 184.669L851.367 189.523C851.322 189.895 851.292 190.267 851.158 190.595C850.994 191.086 850.696 191.503 850.205 191.711C849.654 191.965 849.074 192.128 848.463 192.173C847.346 192.292 847.183 192.337 846.81 193.587L846.691 194.049C846.617 194.585 846.647 194.674 847.183 194.674L859.57 194.793L864.424 194.719L867.774 194.302C871.586 193.602 874.981 192.024 877.884 189.493C879.537 188.034 880.892 186.262 881.86 184.267C883.021 181.944 883.512 179.413 883.646 176.852C883.87 175.378 883.795 173.889 883.542 172.4ZM877.542 178.282C877.378 180.932 876.842 183.508 875.472 185.815C873.73 188.838 871.244 190.952 867.804 191.697C866.315 191.994 864.826 192.158 863.263 191.95C862.146 191.831 861.074 191.697 860.032 191.324C858.171 190.654 857.501 189.508 857.471 187.691L857.426 162.707C857.426 161.219 858.096 160.891 859.168 160.846C860.791 160.727 862.444 160.772 864.052 160.921C865.779 161.085 867.462 161.501 869.07 162.127C870.261 162.618 871.363 163.303 872.345 164.152C874.579 166.057 876.068 168.455 876.886 171.269C877.556 173.547 877.676 175.869 877.556 178.192L877.542 178.282ZM917.98 182.346C917.98 182.093 917.98 181.885 917.936 181.646C917.564 179.368 916.358 177.626 914.496 176.301C913.29 175.438 911.936 174.857 910.521 174.44C910.268 174.366 910.06 174.276 909.821 174.232C909.866 174.023 909.985 173.978 910.119 173.934C910.953 173.517 911.742 173.07 912.442 172.445C913.722 171.373 914.571 170.048 915.003 168.425C915.256 167.561 915.256 166.683 915.166 165.775C915.032 163.616 913.916 161.635 912.144 160.385C910.238 158.97 908.005 158.39 905.682 158.36C901.201 158.285 896.689 158.36 892.222 158.36C890.942 158.36 889.661 158.434 888.321 158.241C888.068 158.196 887.711 158.122 887.532 158.405C887.234 158.941 886.862 159.477 886.743 160.102C886.698 160.4 886.788 160.563 887.115 160.593L889.974 161.01C891.091 161.174 891.88 161.799 891.969 162.797C892.044 163.482 892.088 164.181 892.088 164.866L892.014 172.609L891.969 187.93C891.969 188.838 891.85 189.716 891.671 190.625C891.582 191.22 891.165 191.697 890.599 191.86C889.766 192.113 888.977 192.352 888.113 192.352C887.636 192.307 887.19 192.605 887.041 193.052C886.877 193.424 886.743 193.841 886.669 194.213C886.594 194.704 886.713 194.883 887.205 194.823C887.577 194.779 901.245 195.121 903.821 194.868C905.355 194.704 906.858 194.496 908.377 194.034C910.983 193.2 913.395 192.009 915.3 189.969C916.879 188.317 917.787 186.322 917.862 183.999C917.98 183.463 917.98 182.927 917.98 182.346ZM897.88 165.358L897.999 162.038C897.999 161.412 898.252 161.129 898.863 160.995C899.861 160.787 900.858 160.876 901.841 160.921C902.838 160.995 903.791 161.129 904.789 161.412C906.605 161.948 908.02 162.99 908.854 164.732C909.226 165.521 909.434 166.385 909.434 167.264C909.479 168.425 909.39 169.542 908.943 170.658C908.243 172.192 907.126 173.189 905.503 173.472C903.881 173.77 899.295 173.636 898.58 173.636C897.955 173.636 897.91 173.562 897.91 172.936V169.035C897.806 167.829 897.806 166.608 897.865 165.387L897.88 165.358ZM911.34 187.647C910.64 189.508 909.345 190.803 907.528 191.503C906.531 191.875 905.533 192.113 904.491 192.039C903.211 191.994 901.93 192.039 900.635 191.786C898.893 191.414 898.103 189.761 897.984 188.555C897.776 186.441 897.91 184.282 897.865 182.718V177.254C897.865 176.584 897.94 176.39 898.655 176.39L902.555 176.435L905.206 176.733C907.067 177.15 908.764 177.85 910.089 179.294C911.161 180.455 911.742 181.855 911.876 183.388C911.995 184.833 911.921 186.247 911.385 187.617L911.34 187.647Z" fill="#C2BFBF"/>
<path d="M806.074 175.17L807.146 175.334C808.307 175.378 809.677 174.962 810.094 173.339C810.317 172.565 810.317 171.745 810.094 170.971C809.841 170.971 809.722 171.18 809.603 171.269C808.977 171.76 808.277 172.058 807.533 172.132C806.044 172.296 804.555 172.207 803.096 171.671L801.071 170.971C799.657 170.51 798.168 170.316 796.679 170.39C794.565 170.554 792.584 171.254 790.708 172.252C788.713 173.324 787.314 174.947 786.644 177.135C786.271 178.416 786.227 179.741 786.39 181.066C786.807 184.089 788.386 186.203 791.2 187.319C791.363 187.364 791.497 187.439 791.661 187.483C792.033 187.692 792.078 187.9 791.736 188.183L790.693 188.883L788.207 190.416C787.582 190.789 787.507 191.086 787.716 191.741C787.969 192.516 788.415 193.201 789.041 193.737C789.606 194.228 790.247 194.615 790.946 194.898C791.408 195.107 791.408 195.196 790.991 195.568L788.624 197.265C787.835 197.876 787.046 198.471 786.39 199.261C785.93 199.75 785.597 200.347 785.423 200.996C785.249 201.646 785.239 202.328 785.393 202.983C785.706 204.427 786.45 205.722 787.552 206.705C788.627 207.706 789.938 208.418 791.363 208.775C793.686 209.445 796.083 209.475 798.451 209.028C801.845 208.402 804.823 206.899 807.146 204.353C808.769 202.655 809.707 200.66 809.796 198.293C809.99 195.449 808.084 192.903 805.315 192.248L803.081 191.831L796.247 191.22C795.503 191.176 794.758 191.057 794.133 190.684C793.344 190.193 793.135 189.24 793.641 188.615C794.014 188.153 794.475 187.87 795.056 187.826L796.381 187.707C799 187.44 801.459 186.321 803.379 184.52C804.404 183.569 805.138 182.345 805.493 180.992C805.985 179.205 805.985 177.359 805.568 175.542C805.449 175.081 805.493 175.051 806.059 175.125L806.074 175.17ZM795.919 195.806C796.173 195.851 796.411 195.806 796.664 195.806C798.406 195.881 800.193 196.015 801.89 196.476C802.441 196.64 802.992 196.849 803.513 197.102C805.166 198.01 805.791 199.588 805.583 201.285C805.329 203.147 804.302 204.472 802.679 205.35C801.607 205.961 800.401 206.214 799.151 206.348C798.689 206.392 798.287 206.348 797.825 206.348C796.381 206.392 794.967 206.229 793.597 205.648C792.644 205.276 791.855 204.74 791.155 203.995C789.711 202.551 789.026 199.901 791.2 197.742C792.525 196.506 794.014 195.643 795.919 195.806ZM800.654 182.882C799.791 185.071 797.87 185.741 795.979 185.443C794.237 185.19 792.957 184.237 792.123 182.659C791.051 180.545 790.753 178.356 791.378 176.078C791.84 174.381 792.867 173.1 794.698 172.802C797.021 172.386 799.24 173.22 800.416 175.542C801.027 176.659 801.28 178.029 801.28 179.979C801.235 180.768 801.071 181.84 800.654 182.882ZM748.453 180.054C748.081 177.82 747.247 175.78 745.713 174.083C743.435 171.552 740.532 170.45 737.256 170.435C734.398 170.39 731.703 171.224 729.305 172.713C726.938 174.128 725.211 176.391 724.451 179.056C723.752 181.453 723.781 183.91 724.333 186.352C725.777 192.903 730.839 195.717 736.884 195.3C738.671 195.181 740.368 194.6 741.976 193.811C744.373 192.695 746.115 190.908 747.321 188.555C748.274 186.605 748.691 184.535 748.646 182.168L748.453 180.054ZM742.572 189.255C741.961 191.161 740.294 192.531 738.298 192.739C736.482 192.992 734.77 192.531 733.251 191.459C732.149 190.64 731.256 189.583 730.645 188.347C728.948 184.863 728.65 181.23 729.529 177.493C729.812 176.331 730.407 175.289 731.271 174.47C732.804 173.056 734.591 172.728 736.571 173.145C738.477 173.562 739.921 174.589 741.112 176.168C742.304 177.746 742.854 179.562 743.182 181.468C743.346 182.421 743.346 183.418 743.391 184.029C743.391 186.024 743.227 187.662 742.601 189.255H742.572ZM838.979 180.396C838.681 177.999 837.773 175.795 836.076 173.979C833.842 171.537 830.939 170.495 827.708 170.45C824.924 170.405 822.363 171.194 819.995 172.564C817.345 174.142 815.514 176.376 814.814 179.399C813.98 182.704 814.322 186.188 815.811 189.255C817.181 192.158 819.504 194.02 822.571 194.853C825.966 195.762 829.197 195.345 832.353 193.811C835.093 192.486 837.028 190.416 838.16 187.602C838.83 185.95 839.068 184.163 839.113 182.093C839.143 181.721 839.053 181.051 838.979 180.396ZM833.261 188.719C832.591 190.952 831.192 192.412 828.824 192.739C827.082 192.992 825.43 192.575 823.941 191.578C822.66 190.714 821.752 189.553 821.082 188.183C820.338 186.739 819.921 185.205 819.757 183.627C819.504 181.676 819.504 179.771 819.966 177.82C820.055 177.433 820.174 177.061 820.338 176.704C821.499 173.8 824.06 172.475 827.097 173.145C829.122 173.606 830.656 174.723 831.817 176.421C832.934 178.073 833.47 179.905 833.723 181.87C833.842 182.659 833.887 183.493 833.842 184.193C833.842 185.816 833.723 187.304 833.232 188.749L833.261 188.719Z" fill="#47474A"/>
</svg>
