<svg width="1440" height="360" viewBox="0 0 1440 360" fill="none" xmlns="http://www.w3.org/2000/svg">
<rect width="1440" height="360" rx="180" fill="white"/>
<path d="M843.3 173.633C846.124 179.919 847.916 186.638 848.649 193.493C849.355 200.348 849.002 207.284 847.536 214.031C846.096 220.777 843.598 227.253 840.122 233.213C837.841 237.196 835.153 240.935 832.058 244.376C828.989 247.79 825.568 250.879 821.847 253.588C818.1 256.298 814.108 258.574 809.872 260.443C805.663 262.286 801.264 263.695 796.757 264.616C794.639 271.173 791.489 277.377 787.415 282.959C783.369 288.54 778.454 293.444 772.861 297.481C767.267 301.545 761.075 304.688 754.504 306.802C747.933 308.942 741.063 309.999 734.138 309.999C729.549 310.026 724.933 309.538 720.425 308.617C715.945 307.669 711.546 306.233 707.337 304.363C703.128 302.494 699.136 300.164 695.416 297.454C691.723 294.745 688.301 291.629 685.26 288.188C678.471 289.651 671.52 290.003 664.65 289.299C657.779 288.567 651.045 286.779 644.718 283.961C638.418 281.17 632.58 277.377 627.448 272.744C622.316 268.111 617.944 262.692 614.495 256.731C612.187 252.748 610.286 248.549 608.847 244.187C607.408 239.824 606.457 235.327 605.969 230.748C605.48 226.196 605.507 221.59 605.996 217.011C606.484 212.459 607.489 207.961 608.928 203.599C604.312 198.478 600.51 192.653 597.686 186.367C594.889 180.054 593.07 173.362 592.364 166.507C591.631 159.652 592.011 152.716 593.45 145.969C594.889 139.223 597.388 132.747 600.863 126.787C603.144 122.804 605.833 119.038 608.901 115.624C611.97 112.21 615.418 109.121 619.138 106.412C622.859 103.702 626.878 101.399 631.087 99.5568C635.323 97.6873 639.722 96.3054 644.229 95.3842C646.347 88.8003 649.497 82.6228 653.543 77.0413C657.617 71.4599 662.532 66.5558 668.125 62.4916C673.719 58.4546 679.91 55.3116 686.482 53.1712C693.053 51.0578 699.923 49.974 706.848 50.0011C711.437 49.974 716.053 50.4346 720.561 51.3829C725.068 52.3312 729.468 53.7402 733.676 55.6097C737.885 57.5063 741.877 59.8093 745.597 62.5187C749.318 65.2553 752.739 68.344 755.78 71.785C762.542 70.349 769.493 69.9968 776.363 70.7012C783.234 71.4057 789.941 73.221 796.268 76.0117C802.568 78.8296 808.406 82.5957 813.538 87.2288C818.67 91.8349 823.042 97.2267 826.491 103.215C828.799 107.17 830.7 111.37 832.139 115.759C833.578 120.121 834.556 124.619 835.017 129.198C835.506 133.777 835.506 138.383 834.99 142.962C834.501 147.541 833.497 152.039 832.058 156.401C836.701 161.522 840.475 167.32 843.3 173.633ZM752.82 289.299C758.74 286.86 764.117 283.257 768.652 278.732C773.186 274.207 776.798 268.843 779.242 262.909C781.686 257.002 782.962 250.662 782.962 244.268V183.847C782.944 183.793 782.926 183.73 782.908 183.658C782.89 183.604 782.862 183.549 782.826 183.495C782.79 183.441 782.745 183.396 782.69 183.36C782.636 183.306 782.582 183.269 782.528 183.251L760.614 170.625V243.618C760.614 244.349 760.505 245.108 760.315 245.812C760.125 246.544 759.853 247.221 759.473 247.871C759.093 248.522 758.659 249.118 758.116 249.633C757.588 250.158 756.995 250.613 756.351 250.987L704.458 280.872C704.024 281.143 703.291 281.523 702.91 281.739C705.056 283.555 707.391 285.153 709.835 286.562C712.306 287.971 714.858 289.163 717.52 290.139C720.181 291.087 722.923 291.819 725.693 292.306C728.49 292.794 731.314 293.038 734.138 293.038C740.547 293.038 746.901 291.764 752.82 289.299ZM629.24 248.278C632.471 253.832 636.735 258.655 641.813 262.557C646.918 266.458 652.702 269.303 658.893 270.956C665.084 272.609 671.547 273.042 677.901 272.202C684.255 271.362 690.365 269.303 695.932 266.106L748.394 235.896L748.53 235.76C748.566 235.724 748.593 235.67 748.612 235.598C748.648 235.544 748.675 235.489 748.693 235.435V209.966L685.369 246.517C684.717 246.896 684.038 247.167 683.332 247.384C682.599 247.573 681.866 247.655 681.105 247.655C680.372 247.655 679.639 247.573 678.906 247.384C678.2 247.167 677.494 246.896 676.842 246.517L624.95 216.605C624.488 216.334 623.809 215.927 623.429 215.683C622.94 218.474 622.696 221.292 622.696 224.11C622.696 226.928 622.967 229.745 623.456 232.536C623.945 235.3 624.705 238.036 625.656 240.691C626.633 243.347 627.828 245.894 629.24 248.332V248.278ZM615.608 135.294C612.404 140.849 610.34 146.972 609.499 153.312C608.657 159.652 609.091 166.074 610.748 172.278C612.404 178.456 615.255 184.227 619.166 189.321C623.076 194.387 627.937 198.641 633.476 201.838L685.912 232.075C685.966 232.094 686.029 232.112 686.102 232.13H686.292C686.364 232.13 686.428 232.112 686.482 232.075C686.536 232.057 686.59 232.03 686.645 231.994L708.64 219.314L645.316 182.845C644.691 182.466 644.094 182.005 643.55 181.49C643.024 180.964 642.568 180.372 642.193 179.729C641.84 179.079 641.541 178.401 641.351 177.67C641.161 176.965 641.052 176.234 641.079 175.475V113.944C638.418 114.919 635.839 116.111 633.395 117.52C630.951 118.956 628.643 120.582 626.47 122.397C624.325 124.213 622.316 126.218 620.496 128.385C618.677 130.526 617.075 132.856 615.663 135.294H615.608ZM795.725 177.128C796.376 177.507 796.974 177.941 797.517 178.483C798.033 178.998 798.494 179.594 798.875 180.244C799.228 180.894 799.526 181.599 799.716 182.303C799.879 183.035 799.988 183.766 799.961 184.525V246.056C808.677 242.859 816.281 237.25 821.902 229.881C827.55 222.511 830.944 213.705 831.732 204.493C832.519 195.281 830.673 186.015 826.382 177.805C822.092 169.596 815.548 162.768 807.51 158.162L755.074 127.925C755.02 127.907 754.957 127.888 754.884 127.87H754.694C754.64 127.888 754.576 127.907 754.504 127.925C754.45 127.943 754.395 127.97 754.341 128.006L732.455 140.632L795.779 177.128H795.725ZM817.584 144.344H817.557V144.371L817.584 144.344ZM817.557 144.317C819.132 135.213 818.073 125.838 814.489 117.304C810.931 108.769 804.984 101.426 797.381 96.1158C789.778 90.8324 780.817 87.7978 771.557 87.3914C762.27 87.0121 753.092 89.2609 745.054 93.867L692.619 124.077C692.564 124.113 692.519 124.158 692.483 124.213L692.374 124.375C692.356 124.429 692.338 124.493 692.32 124.565C692.302 124.619 692.293 124.682 692.293 124.755V150.007L755.617 113.51C756.269 113.131 756.975 112.86 757.681 112.643C758.414 112.454 759.147 112.372 759.881 112.372C760.641 112.372 761.374 112.454 762.107 112.643C762.813 112.86 763.492 113.131 764.144 113.51L816.036 143.423C816.498 143.694 817.177 144.073 817.557 144.317ZM680.345 116.355C680.345 115.624 680.454 114.892 680.644 114.161C680.834 113.456 681.105 112.752 681.485 112.101C681.866 111.478 682.3 110.882 682.843 110.34C683.359 109.826 683.956 109.365 684.608 109.013L736.501 79.1276C736.989 78.8296 737.668 78.4502 738.048 78.2606C730.934 72.3269 722.244 68.5337 713.039 67.3686C703.834 66.1765 694.492 67.6396 686.102 71.5683C677.684 75.497 670.569 81.7558 665.6 89.5589C660.631 97.3892 657.997 106.439 657.997 115.705V176.126C658.015 176.198 658.033 176.261 658.051 176.315C658.069 176.369 658.096 176.424 658.132 176.478C658.169 176.532 658.214 176.586 658.268 176.64C658.304 176.676 658.359 176.713 658.431 176.749L680.345 189.375V116.355ZM692.239 196.202L720.452 212.459L748.666 196.202V163.716L720.479 147.46L692.266 163.716L692.239 196.202Z" fill="black"/>
</svg>
