<svg width="1440" height="360" viewBox="0 0 1440 360" fill="none" xmlns="http://www.w3.org/2000/svg">
<rect width="1440" height="360" rx="180" fill="white"/>
<g clip-path="url(#clip0_1050_26)">
<path d="M845.024 205.675C843.513 201.097 839.555 197.908 834.436 197.143C832.022 196.783 829.258 196.936 825.987 197.611C820.286 198.788 816.056 199.236 812.969 199.323C824.621 179.642 834.095 157.2 839.55 136.074C848.37 101.914 843.657 86.352 838.149 79.313C823.573 60.6816 802.308 50.6726 776.653 50.3663C762.967 50.1989 750.953 52.902 744.686 54.8459C738.85 53.8159 732.576 53.2408 725.992 53.1344C713.651 52.9375 702.747 55.6288 693.43 61.1601C688.272 59.4152 679.993 56.9553 670.433 55.3856C647.948 51.6928 629.826 54.5702 616.57 63.9381C600.519 75.2805 593.078 94.9873 594.454 122.511C594.891 131.25 599.778 157.838 607.472 183.053C611.893 197.547 616.609 209.583 621.486 218.829C628.403 231.941 635.805 239.663 644.114 242.436C648.771 243.988 657.233 245.075 666.132 237.66C667.261 239.027 668.766 240.385 670.763 241.646C673.3 243.246 676.401 244.554 679.499 245.329C690.663 248.121 701.12 247.423 710.041 243.509C710.097 245.097 710.139 246.613 710.174 247.923C710.233 250.047 710.292 252.13 710.37 254.078C710.899 267.248 711.795 277.488 714.448 284.653C714.594 285.047 714.79 285.648 714.997 286.285C716.321 290.34 718.535 297.129 724.167 302.446C730 307.953 737.055 309.642 743.516 309.642C746.757 309.642 749.849 309.217 752.561 308.636C762.227 306.563 773.206 303.406 781.148 292.093C788.657 281.399 792.307 265.291 792.967 239.911C793.053 239.193 793.132 238.508 793.207 237.855L793.365 236.514L795.134 236.669L795.59 236.7C805.435 237.149 817.474 235.06 824.868 231.624C830.71 228.912 849.432 219.024 845.024 205.675Z" fill="black"/>
<path d="M828.189 208.271C798.914 214.313 796.901 204.397 796.901 204.397C827.81 158.515 840.732 100.274 829.582 86.0193C799.161 47.1365 746.502 65.5257 745.623 66.0023L745.34 66.0535C739.556 64.8521 733.084 64.1372 725.808 64.0181C712.562 63.8014 702.514 67.4922 694.889 73.2767C694.889 73.2767 600.95 34.5622 605.32 121.967C606.249 140.561 631.961 262.661 662.628 225.781C673.837 212.295 684.668 200.892 684.668 200.892C690.047 204.467 696.487 206.291 703.237 205.636L703.762 205.191C703.599 206.865 703.674 208.503 703.972 210.442C696.071 219.272 698.393 220.822 682.6 224.074C666.619 227.369 676.007 233.235 682.136 234.769C689.567 236.627 706.759 239.26 718.374 222.993L717.912 224.849C721.006 227.33 723.18 240.983 722.816 253.36C722.451 265.736 722.208 274.234 724.647 280.871C727.087 287.508 729.517 302.442 750.28 297.992C767.627 294.272 776.618 284.635 777.869 268.558C778.756 257.129 780.765 258.818 780.891 248.6L782.502 243.763C784.36 228.269 782.798 223.271 793.485 225.596L796.084 225.824C803.949 226.182 814.245 224.558 820.289 221.748C833.3 215.708 841.017 205.621 828.187 208.271H828.189Z" fill="#336791"/>
<path d="M700.387 130.282C697.749 129.914 695.36 130.254 694.151 131.17C693.472 131.685 693.261 132.282 693.204 132.692C693.053 133.781 693.815 134.984 694.283 135.604C695.608 137.361 697.543 138.568 699.459 138.834C699.737 138.874 700.013 138.891 700.288 138.891C703.482 138.891 706.387 136.403 706.643 134.566C706.963 132.266 703.625 130.732 700.387 130.282ZM787.784 130.355C787.532 128.552 784.325 128.037 781.281 128.461C778.241 128.884 775.294 130.257 775.54 132.064C775.737 133.469 778.274 135.868 781.276 135.868C781.53 135.868 781.786 135.851 782.044 135.815C784.048 135.537 785.519 134.264 786.218 133.53C787.281 132.412 787.897 131.165 787.784 130.355Z" fill="white"/>
<path d="M837.93 207.585C836.814 204.208 833.221 203.122 827.252 204.355C809.528 208.014 803.181 205.479 801.097 203.944C814.873 182.949 826.206 157.57 832.32 133.892C835.216 122.676 836.816 112.259 836.947 103.768C837.092 94.4498 835.505 87.6018 832.233 83.4186C819.04 66.5547 799.677 57.5088 776.24 57.2607C760.126 57.0795 746.512 61.2046 743.873 62.3646C738.315 60.982 732.257 60.1332 725.66 60.0249C713.564 59.8289 703.108 62.726 694.452 68.6316C690.691 67.2313 680.974 63.8939 669.089 61.9786C648.543 58.6698 632.217 61.177 620.566 69.4342C606.663 79.2876 600.245 96.9008 601.488 121.783C601.907 130.155 606.675 155.908 614.2 180.571C624.104 213.032 634.871 231.409 646.2 235.189C647.526 235.631 649.054 235.941 650.741 235.941C654.873 235.941 659.94 234.077 665.211 227.738C671.64 220.022 678.291 212.493 685.155 205.161C689.609 207.552 694.501 208.888 699.505 209.021C699.514 209.152 699.527 209.283 699.539 209.413C698.678 210.441 697.834 211.483 697.009 212.54C693.542 216.943 692.821 217.86 681.661 220.158C678.486 220.814 670.055 222.552 669.931 228.464C669.797 234.924 679.898 237.637 681.048 237.925C685.059 238.929 688.922 239.425 692.607 239.425C701.568 239.425 709.454 236.478 715.756 230.778C715.562 253.807 716.521 276.499 719.286 283.413C721.55 289.074 727.08 302.907 744.549 302.906C747.112 302.906 749.933 302.607 753.037 301.941C771.268 298.032 779.186 289.971 782.248 272.199C783.887 262.701 786.699 240.021 788.022 227.856C790.814 228.727 794.408 229.126 798.293 229.125C806.397 229.125 815.747 227.403 821.611 224.68C828.199 221.619 840.086 214.11 837.93 207.585ZM794.513 125.378C794.453 128.969 793.959 132.23 793.436 135.633C792.872 139.293 792.289 143.078 792.142 147.672C791.997 152.142 792.556 156.79 793.095 161.286C794.186 170.365 795.305 179.712 790.973 188.936C790.253 187.66 789.612 186.342 789.053 184.988C788.515 183.682 787.345 181.584 785.726 178.681C779.427 167.38 764.676 140.916 772.227 130.117C774.476 126.903 780.185 123.598 794.513 125.378ZM777.145 64.533C798.146 64.9969 814.758 72.8562 826.519 87.8913C835.54 99.4237 825.607 151.898 796.85 197.168C796.561 196.8 796.27 196.434 795.978 196.068L795.614 195.613C803.045 183.336 801.592 171.189 800.299 160.42C799.767 156.001 799.265 151.826 799.393 147.905C799.525 143.749 800.074 140.184 800.606 136.738C801.258 132.491 801.923 128.096 801.74 122.915C801.877 122.371 801.932 121.729 801.86 120.967C801.392 115.999 795.722 101.13 784.166 87.6727C777.844 80.3117 768.625 72.0743 756.038 66.5183C761.452 65.3957 768.856 64.3489 777.145 64.533ZM659.632 223.097C653.825 230.083 649.814 228.744 648.495 228.305C639.902 225.437 629.93 207.267 621.138 178.453C613.531 153.521 609.086 128.45 608.733 121.42C607.623 99.1864 613.01 83.6914 624.747 75.3643C643.848 61.8142 675.251 69.9246 687.87 74.0379C687.689 74.2171 687.5 74.3845 687.321 74.5667C666.614 95.4867 667.105 131.229 667.156 133.414C667.154 134.257 667.225 135.451 667.321 137.092C667.678 143.104 668.341 154.293 666.569 166.964C664.923 178.738 668.552 190.263 676.522 198.583C677.34 199.435 678.2 200.246 679.098 201.013C675.551 204.815 667.84 213.22 659.632 223.097ZM681.76 193.562C675.336 186.856 672.418 177.528 673.754 167.968C675.625 154.584 674.935 142.926 674.563 136.663C674.511 135.787 674.465 135.018 674.438 134.413C677.463 131.729 691.482 124.216 701.479 126.507C706.041 127.552 708.821 130.66 709.976 136.005C715.957 163.68 710.768 175.214 706.598 184.483C705.739 186.393 704.926 188.198 704.233 190.065L703.696 191.509C702.336 195.158 701.07 198.552 700.285 201.774C693.456 201.754 686.812 198.835 681.76 193.561V193.562ZM682.809 230.884C680.814 230.386 679.021 229.52 677.968 228.802C678.847 228.389 680.412 227.825 683.125 227.266C696.253 224.563 698.281 222.654 702.709 217.03C703.724 215.74 704.874 214.279 706.468 212.499L706.47 212.497C708.843 209.838 709.929 210.289 711.898 211.106C713.493 211.766 715.048 213.767 715.678 215.969C715.976 217.009 716.311 218.982 715.215 220.518C705.966 233.474 692.488 233.307 682.809 230.884ZM751.517 294.845C735.456 298.288 729.769 290.09 726.022 280.718C723.603 274.668 722.414 247.384 723.257 217.254C723.268 216.853 723.211 216.466 723.101 216.102C723.002 215.382 722.852 214.671 722.652 213.973C721.398 209.589 718.342 205.921 714.675 204.401C713.218 203.797 710.544 202.69 707.331 203.512C708.016 200.688 709.205 197.498 710.493 194.044L711.034 192.592C711.642 190.954 712.406 189.258 713.213 187.461C717.577 177.764 723.553 164.48 717.067 134.472C714.637 123.232 706.524 117.743 694.225 119.018C686.852 119.781 680.106 122.757 676.742 124.464C676.018 124.83 675.357 125.185 674.739 125.529C675.678 114.205 679.225 93.0406 692.497 79.6499C700.853 71.2205 711.981 67.057 725.54 67.2815C752.256 67.7187 769.388 81.4343 779.057 92.8643C787.389 102.713 791.9 112.634 793.7 117.985C780.16 116.608 770.951 119.281 766.284 125.958C756.128 140.481 771.839 168.668 779.39 182.216C780.776 184.698 781.971 186.844 782.347 187.756C784.806 193.717 787.989 197.698 790.313 200.603C791.026 201.493 791.717 202.357 792.242 203.111C788.142 204.294 780.776 207.026 781.447 220.686C780.905 227.54 777.056 259.629 775.1 270.966C772.518 285.944 767.008 291.523 751.517 294.846V294.845ZM818.557 218.098C814.363 220.045 807.346 221.505 800.68 221.819C793.316 222.164 789.568 220.994 788.686 220.274C788.273 211.762 791.439 210.873 794.791 209.931C795.318 209.784 795.832 209.639 796.328 209.466C796.636 209.717 796.973 209.966 797.344 210.21C803.262 214.118 813.817 214.539 828.72 211.462L828.883 211.429C826.873 213.309 823.433 215.832 818.557 218.098Z" fill="white"/>
</g>
<defs>
<clipPath id="clip0_1050_26">
<rect width="252" height="260" fill="white" transform="translate(594 50)"/>
</clipPath>
</defs>
</svg>
