<svg width="1440" height="360" viewBox="0 0 1440 360" fill="none" xmlns="http://www.w3.org/2000/svg">
<rect width="1440" height="360" rx="180" fill="white"/>
<g clip-path="url(#clip0_1050_3)">
<path d="M718.887 50.0732C653.048 50.0732 657.159 78.7395 657.159 78.7395L657.232 108.439H720.061V117.355H632.278C632.278 117.355 590.147 112.558 590.147 179.256C590.147 245.955 626.92 243.59 626.92 243.59H648.865V212.639C648.865 212.639 647.682 175.719 685.051 175.719H747.366C747.366 175.719 782.376 176.286 782.376 141.746V84.6359C782.376 84.6359 787.693 50.0732 718.887 50.0732ZM684.243 70.0453C685.728 70.044 687.198 70.3366 688.57 70.9064C689.942 71.4762 691.189 72.3121 692.239 73.3662C693.288 74.4202 694.121 75.6718 694.689 77.0492C695.256 78.4266 695.548 79.9029 695.546 81.3936C695.548 82.8842 695.256 84.3605 694.689 85.7379C694.121 87.1154 693.288 88.3669 692.239 89.421C691.189 90.475 689.942 91.3109 688.57 91.8807C687.198 92.4505 685.728 92.7431 684.243 92.7418C682.759 92.7431 681.288 92.4505 679.916 91.8807C678.544 91.3109 677.298 90.475 676.248 89.421C675.198 88.3669 674.366 87.1154 673.798 85.7379C673.231 84.3605 672.939 82.8842 672.941 81.3936C672.939 79.9029 673.231 78.4266 673.798 77.0492C674.366 75.6718 675.198 74.4202 676.248 73.3662C677.298 72.3121 678.544 71.4762 679.916 70.9064C681.288 70.3366 682.759 70.044 684.243 70.0453Z" fill="url(#paint0_linear_1050_3)"/>
<path d="M720.757 309.109C786.596 309.109 782.485 280.443 782.485 280.443L782.412 250.744H719.582V241.828H807.365C807.365 241.828 849.496 246.625 849.496 179.926C849.496 113.227 812.723 115.592 812.723 115.592H790.778V146.543C790.778 146.543 791.961 183.463 754.592 183.463H692.277C692.277 183.463 657.267 182.895 657.267 217.436V274.547C657.267 274.547 651.951 309.109 720.756 309.109H720.757ZM755.401 289.139C753.916 289.14 752.446 288.848 751.074 288.278C749.702 287.708 748.455 286.872 747.405 285.818C746.356 284.764 745.523 283.512 744.956 282.135C744.388 280.758 744.097 279.281 744.098 277.791C744.096 276.3 744.388 274.823 744.955 273.446C745.523 272.068 746.355 270.817 747.405 269.763C748.455 268.708 749.702 267.872 751.074 267.303C752.446 266.733 753.916 266.44 755.401 266.441C756.885 266.44 758.356 266.733 759.728 267.302C761.1 267.872 762.346 268.708 763.396 269.762C764.446 270.816 765.278 272.068 765.846 273.445C766.414 274.823 766.705 276.299 766.704 277.79C766.705 279.28 766.414 280.757 765.846 282.134C765.278 283.511 764.446 284.763 763.396 285.817C762.346 286.871 761.1 287.707 759.728 288.277C758.356 288.847 756.885 289.14 755.401 289.139Z" fill="url(#paint1_linear_1050_3)"/>
</g>
<defs>
<linearGradient id="paint0_linear_1050_3" x1="3082.47" y1="2379.94" x2="15986" y2="15103.6" gradientUnits="userSpaceOnUse">
<stop stop-color="#387EB8"/>
<stop offset="1" stop-color="#366994"/>
</linearGradient>
<linearGradient id="paint1_linear_1050_3" x1="4335.94" y1="4098.17" x2="18190.2" y2="17142.7" gradientUnits="userSpaceOnUse">
<stop stop-color="#FFE052"/>
<stop offset="1" stop-color="#FFC331"/>
</linearGradient>
<clipPath id="clip0_1050_3">
<rect width="260" height="260" fill="white" transform="translate(590 50)"/>
</clipPath>
</defs>
</svg>
