<svg width="1440" height="360" viewBox="0 0 1440 360" fill="none" xmlns="http://www.w3.org/2000/svg">
<rect width="1440" height="360" rx="180" fill="white"/>
<path d="M583.4 144.146L570.781 156.784C591.814 177.811 591.814 212.096 570.781 233.123C549.727 254.183 515.469 254.183 494.409 233.123C473.388 212.103 473.388 177.811 494.409 156.784L528.081 123.112L532.298 118.302V93.0508L481.184 144.146C474.472 150.795 469.144 158.709 465.508 167.43C461.872 176.151 460 185.505 460 194.954C460 204.402 461.872 213.757 465.508 222.477C469.144 231.198 474.472 239.112 481.184 245.762C487.834 252.475 495.748 257.803 504.469 261.44C513.191 265.076 522.546 266.949 531.995 266.949C541.444 266.949 550.8 265.076 559.521 261.44C568.242 257.803 576.157 252.475 582.807 245.762C611.662 217.499 611.662 171.815 583.4 144.146Z" fill="#EE4C2C"/>
<path d="M567.769 130.908C567.704 133.416 566.661 135.8 564.863 137.552C563.066 139.303 560.655 140.283 558.145 140.283C555.636 140.283 553.225 139.303 551.428 137.552C549.63 135.8 548.587 133.416 548.521 130.908C548.521 128.355 549.535 125.907 551.34 124.102C553.145 122.298 555.593 121.284 558.145 121.284C560.698 121.284 563.146 122.298 564.951 124.102C566.755 125.907 567.769 128.355 567.769 130.908Z" fill="#EE4C2C"/>
<path d="M660.747 190.015H650.862V215.444H643.476V143.269H661.518C680.64 143.269 689.674 152.56 689.674 166.023C689.674 181.877 678.452 189.811 660.694 190.061L660.747 190.015ZM661.234 150.116H650.605V183.195L661.004 182.905C674.67 182.648 682.057 177.172 682.057 165.97C682.057 155.855 674.953 150.116 661.287 150.116H661.234ZM723.063 215.154L718.688 226.639C713.772 239.489 708.804 243.317 701.463 243.317C697.377 243.317 694.359 242.236 691.065 240.846L693.252 234.309C695.723 235.673 698.458 236.497 701.463 236.497C705.562 236.497 708.573 234.309 712.401 224.142L715.96 214.85L695.466 162.622H703.11L719.795 206.376L736.189 162.622H743.576L723.063 215.154ZM768.161 150.399V215.727H760.775V150.399H735.366V143.269H793.564V150.116H768.168L768.161 150.399ZM814.36 217.084C799.587 217.084 788.648 206.146 788.648 189.191C788.648 172.256 799.87 161.028 814.854 161.028C829.602 161.028 840.283 171.966 840.283 188.928C840.283 205.862 829.061 217.091 814.314 217.091L814.36 217.084ZM814.624 167.663C803.422 167.663 796.042 176.678 796.042 188.98C796.042 201.83 803.705 210.581 814.901 210.581C826.103 210.581 833.483 201.566 833.483 189.264C833.483 176.394 825.819 167.67 814.617 167.67L814.624 167.663ZM858.642 215.727H851.525V162.682L858.642 161.311V172.533C862.187 165.686 867.386 161.311 874.232 161.311C877.474 161.337 880.67 162.187 883.523 163.782L881.593 170.602C879.431 169.238 876.42 168.415 873.408 168.415C867.926 168.415 862.753 172.533 858.378 182.081V215.727H858.642ZM911.66 217.091C895.806 217.091 885.691 205.612 885.691 189.191C885.691 172.533 896.63 161.028 911.654 161.028C918.223 161.028 923.712 162.675 928.338 165.686L926.434 172.25C922.058 169.347 916.912 167.823 911.66 167.874C900.182 167.874 893.078 176.342 893.078 188.928C893.078 201.777 900.748 210.244 911.944 210.244C917.184 210.217 922.308 208.7 926.717 205.869L928.081 212.432C923.423 215.444 917.683 217.065 911.66 217.065V217.091ZM972.613 215.727V181.541C972.613 172.25 968.804 168.21 961.411 168.21C955.395 168.21 949.398 171.195 945.016 175.854V216.037H937.886V137.859L945.016 136.495V169.831C950.479 164.375 957.582 161.364 963.322 161.364C973.72 161.364 980 167.927 980 179.406V215.753L972.613 215.727Z" fill="#252525"/>
</svg>
