<svg width="1440" height="360" viewBox="0 0 1440 360" fill="none" xmlns="http://www.w3.org/2000/svg">
<rect width="1440" height="360" rx="180" fill="white"/>
<g clip-path="url(#clip0_1053_224)">
<path d="M567.898 240.597C562.333 240.545 556.777 240.113 551.271 239.303C545.303 238.492 539.385 237.347 533.544 235.876V226.887C539.322 228.347 545.175 229.491 551.077 230.314C556.432 231.121 561.836 231.553 567.251 231.607C574.741 232.082 582.19 230.181 588.536 226.175C590.95 224.411 592.888 222.075 594.175 219.377C595.463 216.68 596.059 213.704 595.912 210.719C596.062 207.573 595.404 204.442 593.999 201.623C592.595 198.804 590.491 196.391 587.889 194.616C585.307 192.749 582.503 191.206 579.543 190.024C576.179 188.774 572.578 187.588 568.739 186.467C563.575 184.987 558.535 183.106 553.665 180.841C549.914 179.142 546.463 176.849 543.443 174.051C540.871 171.64 538.88 168.677 537.62 165.385C536.333 161.775 535.697 157.964 535.744 154.132C535.685 149.826 536.591 145.561 538.396 141.651C540.165 137.894 542.752 134.58 545.966 131.95C549.422 129.034 553.425 126.835 557.741 125.483C562.729 124.095 567.898 123.462 573.074 123.607C582.69 123.799 592.256 125.035 601.605 127.294V136.477C596.854 135.256 592.037 134.306 587.178 133.631C582.891 133.024 578.568 132.7 574.238 132.661C567.129 132.29 560.103 134.342 554.312 138.482C551.821 140.251 549.799 142.601 548.424 145.329C547.048 148.056 546.36 151.078 546.419 154.132C546.37 156.803 546.831 159.459 547.777 161.957C548.754 164.44 550.306 166.657 552.306 168.424C554.763 170.543 557.535 172.267 560.523 173.533C564.722 175.316 569.046 176.786 573.462 177.931C578.25 179.354 582.692 180.884 586.789 182.522C590.639 183.99 594.239 186.04 597.464 188.601C600.458 191.023 602.887 194.069 604.581 197.526C606.414 201.585 607.299 206.008 607.169 210.46C607.409 214.745 606.618 219.024 604.862 222.94C603.106 226.856 600.436 230.294 597.076 232.966C588.474 238.692 578.203 241.378 567.898 240.597ZM661.191 240.273C656.092 240.634 650.975 239.884 646.194 238.075C641.414 236.266 637.083 233.442 633.5 229.797C626.721 221.17 623.359 210.349 624.055 199.401C623.347 187.882 626.613 176.469 633.306 167.066C636.577 163.221 640.704 160.195 645.355 158.229C650.006 156.264 655.052 155.415 660.091 155.749C664.292 155.465 668.502 156.151 672.395 157.755C676.288 159.358 679.759 161.836 682.54 164.997C688.035 172.756 690.727 182.151 690.175 191.641V197.591C690.12 198.986 689.925 200.373 689.592 201.73H634.147C633.928 209.93 636.608 217.945 641.717 224.364C644.452 226.965 647.701 228.964 651.255 230.234C654.81 231.504 658.591 232.016 662.355 231.737C666.304 231.713 670.244 231.345 674.13 230.637C678.38 229.872 682.557 228.747 686.616 227.275L687.393 235.488C683.205 237.09 678.872 238.281 674.453 239.045C670.078 239.851 665.639 240.262 661.191 240.273ZM659.767 163.38C643.895 163.38 635.398 173.598 634.277 194.034H680.535C681.176 185.884 679.422 177.725 675.488 170.558C673.69 168.129 671.304 166.197 668.555 164.941C665.805 163.686 662.781 163.148 659.767 163.38ZM713.077 115.33H723.299V238.915H713.077V115.33ZM783.726 240.273C778.627 240.634 773.51 239.884 768.73 238.075C763.949 236.266 759.618 233.442 756.036 229.797C749.28 221.161 745.94 210.341 746.655 199.401C745.947 187.882 749.213 176.469 755.906 167.066C759.177 163.221 763.304 160.195 767.955 158.229C772.606 156.264 777.652 155.415 782.691 155.749C786.892 155.465 791.102 156.151 794.995 157.755C798.888 159.358 802.359 161.836 805.14 164.997C810.52 172.797 813.097 182.189 812.451 191.641V197.591C812.396 198.986 812.201 200.373 811.869 201.73H756.683C756.468 209.929 759.148 217.942 764.252 224.364C766.995 226.973 770.254 228.978 773.821 230.248C777.387 231.518 781.18 232.025 784.955 231.737C788.904 231.713 792.844 231.345 796.73 230.637C800.98 229.871 805.157 228.746 809.216 227.275L809.993 235.488C805.805 237.09 801.472 238.281 797.053 239.045C792.657 239.855 788.196 240.266 783.726 240.273ZM782.367 163.38C766.495 163.38 757.998 173.598 756.877 194.034H803.135C803.776 185.884 802.022 177.725 798.088 170.558C796.29 168.129 793.904 166.197 791.155 164.941C788.405 163.686 785.381 163.148 782.367 163.38ZM835.16 156.525H843.7L844.476 166.161H845.252C849.307 164.221 853.016 162.539 856.38 161.116C859.744 159.694 862.828 158.53 865.632 157.624C868.167 156.766 870.762 156.096 873.395 155.619C875.747 155.225 878.127 155.031 880.512 155.037C883.425 154.818 886.351 155.198 889.111 156.155C891.871 157.112 894.405 158.624 896.557 160.599C900.515 165.342 902.445 171.453 901.926 177.607V239.109H891.64V180.906C892.03 176.309 890.768 171.723 888.081 167.972C886.638 166.587 884.917 165.525 883.032 164.856C881.147 164.187 879.141 163.926 877.148 164.091C872.207 164.207 867.316 165.101 862.656 166.743C856.731 168.739 850.958 171.16 845.382 173.986V238.657H835.16V156.525ZM933.757 138.094C932.86 138.224 931.945 138.149 931.081 137.876C930.216 137.603 929.425 137.138 928.765 136.516C928.106 135.894 927.595 135.132 927.272 134.285C926.949 133.438 926.822 132.529 926.899 131.627C926.899 129.809 927.622 128.065 928.908 126.779C930.194 125.494 931.938 124.772 933.757 124.772C935.576 124.772 937.32 125.494 938.606 126.779C939.892 128.065 940.615 129.809 940.615 131.627C940.693 132.529 940.565 133.438 940.242 134.285C939.919 135.132 939.409 135.894 938.749 136.516C938.09 137.138 937.298 137.603 936.434 137.876C935.569 138.149 934.654 138.224 933.757 138.094ZM928.581 156.525H938.803V238.915H928.581V156.525ZM985.903 240.403C972.359 240.403 965.588 232.922 965.588 217.962V156.525H975.81V214.728C975.373 219.265 976.466 223.818 978.915 227.663C980.217 229.055 981.822 230.129 983.606 230.802C985.39 231.475 987.305 231.729 989.202 231.543C994.697 231.514 1000.14 230.462 1005.25 228.439C1010.64 226.369 1016.22 223.912 1022 221.066V156.525H1032.42V238.915H1023.88L1023.1 228.697H1022.52L1011.33 233.936C1008.14 235.401 1005.16 236.63 1002.4 237.622C999.809 238.546 997.148 239.26 994.443 239.756C991.621 240.228 988.763 240.445 985.903 240.403ZM1059.46 156.525H1067.87L1068.78 166.161H1069.36C1074.71 162.928 1080.29 160.096 1086.05 157.689C1090.16 156.007 1094.55 155.108 1098.99 155.037C1103.04 154.509 1107.15 155.348 1110.67 157.422C1114.18 159.496 1116.91 162.686 1118.4 166.484H1119.18C1122.63 164.328 1125.75 162.539 1128.56 161.116C1131.08 159.818 1133.68 158.652 1136.32 157.624C1138.42 156.774 1140.58 156.103 1142.79 155.619C1144.92 155.216 1147.09 155.022 1149.26 155.037C1152.13 154.828 1155.02 155.201 1157.74 156.134C1160.47 157.068 1162.97 158.543 1165.11 160.47C1169.07 165.212 1171 171.323 1170.48 177.478V238.98H1160.39V180.776C1160.84 176.174 1159.57 171.568 1156.83 167.842C1155.38 166.479 1153.65 165.435 1151.77 164.778C1149.88 164.121 1147.89 163.865 1145.9 164.027C1141.94 164.154 1138.04 164.987 1134.38 166.484C1129.53 168.439 1124.86 170.797 1120.41 173.533V238.851H1110.06V180.647C1110.5 176.045 1109.24 171.438 1106.5 167.713C1105.04 166.35 1103.32 165.306 1101.43 164.649C1099.55 163.992 1097.55 163.736 1095.56 163.897C1091.43 164.018 1087.35 164.895 1083.53 166.484C1078.72 168.433 1074.09 170.791 1069.68 173.533V238.915H1059.46V156.525ZM407.774 209.167C403.731 209.044 399.79 210.446 396.734 213.093C393.678 215.741 391.729 219.441 391.277 223.459C391.256 223.537 391.255 223.618 391.271 223.697C391.288 223.775 391.323 223.849 391.373 223.912C391.424 223.975 391.488 224.025 391.561 224.058C391.634 224.092 391.714 224.108 391.794 224.106H423.819C423.893 224.106 423.966 224.091 424.033 224.061C424.101 224.031 424.161 223.987 424.21 223.932C424.259 223.877 424.295 223.812 424.317 223.742C424.339 223.671 424.346 223.597 424.336 223.524C424.022 219.433 422.106 215.632 419.006 212.944C415.905 210.257 411.869 208.899 407.774 209.167Z" fill="#01A71C"/>
<path d="M476.417 101.813L408.486 178.06C408.292 178.27 408.057 178.437 407.795 178.551C407.534 178.666 407.251 178.725 406.965 178.725C406.68 178.725 406.397 178.666 406.136 178.551C405.874 178.437 405.639 178.27 405.445 178.06L370.768 142.297C370.474 141.93 370.314 141.474 370.314 141.004C370.314 140.534 370.474 140.077 370.768 139.71L382.219 125.03C382.411 124.763 382.663 124.546 382.956 124.395C383.248 124.245 383.572 124.167 383.901 124.167C384.23 124.167 384.554 124.245 384.846 124.395C385.139 124.546 385.392 124.763 385.583 125.03L404.992 146.501C405.187 146.732 405.429 146.918 405.703 147.045C405.977 147.173 406.275 147.239 406.577 147.239C406.879 147.239 407.178 147.173 407.452 147.045C407.725 146.918 407.968 146.732 408.162 146.501L462.249 72.3882C462.399 72.1692 462.488 71.9139 462.506 71.6488C462.525 71.3838 462.472 71.1186 462.353 70.881C462.234 70.6434 462.054 70.4419 461.831 70.2975C461.607 70.1531 461.35 70.0711 461.084 70.0601H270.617C270.188 70.0601 269.777 70.2304 269.474 70.5336C269.17 70.8368 269 71.248 269 71.6768V288.324C269 288.752 269.17 289.164 269.474 289.467C269.777 289.77 270.188 289.94 270.617 289.94H477.646C478.075 289.94 478.487 289.77 478.79 289.467C479.093 289.164 479.264 288.752 479.264 288.324V102.783C479.393 102.406 479.366 101.993 479.19 101.635C479.014 101.278 478.703 101.004 478.326 100.876C477.948 100.747 477.535 100.774 477.177 100.949C476.819 101.125 476.546 101.436 476.417 101.813ZM327.615 265.818C314.024 266.503 300.702 261.863 290.479 252.884C290.156 252.518 289.978 252.047 289.978 251.558C289.978 251.07 290.156 250.599 290.479 250.233L298.566 238.915C298.7 238.683 298.878 238.481 299.092 238.319C299.305 238.157 299.548 238.04 299.807 237.973C300.067 237.907 300.336 237.893 300.601 237.933C300.866 237.972 301.12 238.065 301.348 238.204C308.736 245.05 318.447 248.841 328.521 248.81C339.131 248.81 344.307 243.895 344.307 238.721C344.307 222.683 292.032 233.677 292.032 199.531C292.032 184.463 304.971 171.916 326.451 171.916C338.777 171.478 350.845 175.522 360.416 183.298C360.776 183.672 360.977 184.17 360.977 184.689C360.977 185.207 360.776 185.706 360.416 186.079L352.459 197.138C352.294 197.358 352.086 197.542 351.848 197.678C351.61 197.815 351.346 197.901 351.073 197.931C350.8 197.961 350.524 197.935 350.261 197.854C349.999 197.774 349.756 197.64 349.547 197.461C342.489 191.854 333.719 188.84 324.704 188.925C316.423 188.925 311.764 192.611 311.764 198.043C311.764 212.465 363.91 202.829 363.91 236.846C363.91 253.272 352.07 265.818 327.55 265.818H327.615ZM441.61 234.324C441.62 234.564 441.579 234.803 441.491 235.027C441.403 235.251 441.27 235.454 441.1 235.624C440.93 235.794 440.727 235.927 440.503 236.015C440.279 236.103 440.039 236.143 439.799 236.134H391.923C391.847 236.142 391.773 236.166 391.705 236.203C391.637 236.239 391.578 236.289 391.53 236.35C391.481 236.41 391.446 236.479 391.424 236.553C391.403 236.627 391.397 236.705 391.406 236.781C392.182 241.253 394.605 245.273 398.197 248.049C401.788 250.826 406.29 252.158 410.815 251.785C416.753 251.659 422.519 249.768 427.377 246.352C427.567 246.193 427.788 246.077 428.026 246.01C428.264 245.943 428.514 245.927 428.759 245.964C429.003 246 429.237 246.089 429.445 246.222C429.653 246.356 429.83 246.533 429.965 246.74L435.788 255.212C436.03 255.588 436.125 256.041 436.053 256.483C435.982 256.925 435.749 257.325 435.4 257.605C427.713 263.212 418.387 266.123 408.874 265.883C404.122 266.148 399.367 265.417 394.913 263.738C390.46 262.058 386.407 259.467 383.014 256.131C379.621 252.794 376.963 248.785 375.211 244.362C373.459 239.938 372.65 235.197 372.838 230.443C372.706 225.803 373.517 221.185 375.221 216.867C376.925 212.549 379.487 208.621 382.752 205.321C386.018 202.02 389.919 199.416 394.219 197.665C398.52 195.914 403.131 195.053 407.774 195.133C427.895 195.133 441.546 210.201 441.546 232.254L441.61 234.324Z" fill="#01A71C"/>
</g>
<defs>
<clipPath id="clip0_1053_224">
<rect width="902" height="220" fill="white" transform="translate(269 70)"/>
</clipPath>
</defs>
</svg>
