<svg width="1440" height="360" viewBox="0 0 1440 360" fill="none" xmlns="http://www.w3.org/2000/svg">
<rect width="1440" height="360" rx="180" fill="white"/>
<g clip-path="url(#clip0_1050_4)">
<path d="M737.287 89.9985V129.997L806.436 169.995V129.997L737.287 89.9985ZM599 129.997V169.995L633.574 189.995V149.996L599 129.997ZM702.713 149.996L668.138 169.995V289.991L702.713 310V230.003L737.287 250.003V210.004L702.713 190.005V149.996Z" fill="#E55B2D"/>
<path d="M737.287 89.9985L633.574 149.996V189.995L702.723 149.996V189.995L737.297 169.995V89.9985H737.287ZM841 109.998L806.425 129.997V169.995L841 149.996V109.998ZM771.861 190.005L737.287 210.004V250.003L771.861 230.003V190.005ZM737.287 250.003L702.713 230.003V310L737.287 290.001V250.003Z" fill="#ED8E24"/>
<path d="M737.287 50L599 129.997L633.574 149.996L737.287 89.9984L806.436 129.997L841.01 109.998L737.287 50ZM737.287 169.995L702.713 189.994L737.287 209.994L771.862 189.994L737.287 169.995Z" fill="#F8BF3C"/>
</g>
<defs>
<clipPath id="clip0_1050_4">
<rect width="242" height="260" fill="white" transform="translate(599 50)"/>
</clipPath>
</defs>
</svg>
