<svg width="720" height="480" viewBox="0 0 720 480" fill="none" xmlns="http://www.w3.org/2000/svg">
<rect width="720" height="480" fill="white"/>
<path d="M238.568 266.167C234.012 266.167 229.845 265 226.068 262.667C222.29 260.278 219.262 257.111 216.984 253.167C214.762 249.167 213.651 244.778 213.651 240C213.651 235.222 214.762 230.861 216.984 226.917C219.262 222.917 222.29 219.75 226.068 217.417C229.845 215.028 234.012 213.833 238.568 213.833C241.845 213.833 244.873 214.417 247.651 215.583C250.429 216.75 252.79 218.389 254.734 220.5V215H266.151V265H254.734V259.5C252.79 261.556 250.429 263.194 247.651 264.417C244.873 265.583 241.845 266.167 238.568 266.167ZM240.151 254.583C242.818 254.583 245.207 253.917 247.318 252.583C249.484 251.25 251.207 249.5 252.484 247.333C253.762 245.111 254.401 242.667 254.401 240C254.401 237.333 253.762 234.917 252.484 232.75C251.207 230.528 249.484 228.75 247.318 227.417C245.207 226.083 242.845 225.417 240.234 225.417C237.568 225.417 235.151 226.083 232.984 227.417C230.873 228.75 229.179 230.528 227.901 232.75C226.623 234.917 225.984 237.333 225.984 240C225.984 242.667 226.623 245.111 227.901 247.333C229.179 249.5 230.873 251.25 232.984 252.583C235.151 253.917 237.54 254.583 240.151 254.583ZM278.51 290V215H289.927V220.333C291.927 218.333 294.288 216.75 297.01 215.583C299.788 214.417 302.788 213.833 306.01 213.833C310.677 213.833 314.899 215.028 318.677 217.417C322.455 219.75 325.455 222.889 327.677 226.833C329.955 230.778 331.094 235.167 331.094 240C331.094 244.778 329.955 249.167 327.677 253.167C325.455 257.111 322.455 260.278 318.677 262.667C314.899 265 310.677 266.167 306.01 266.167C303.177 266.167 300.538 265.722 298.094 264.833C295.705 263.944 293.538 262.722 291.594 261.167V290H278.51ZM304.427 254.583C307.094 254.583 309.483 253.917 311.594 252.583C313.76 251.25 315.483 249.5 316.76 247.333C318.038 245.111 318.677 242.667 318.677 240C318.677 237.333 318.038 234.917 316.76 232.75C315.483 230.528 313.76 228.75 311.594 227.417C309.483 226.083 307.122 225.417 304.51 225.417C301.844 225.417 299.427 226.083 297.26 227.417C295.149 228.75 293.455 230.528 292.177 232.75C290.899 234.917 290.26 237.333 290.26 240C290.26 242.667 290.899 245.111 292.177 247.333C293.455 249.5 295.149 251.25 297.26 252.583C299.427 253.917 301.816 254.583 304.427 254.583ZM340.62 290V215H352.036V220.333C354.036 218.333 356.398 216.75 359.12 215.583C361.898 214.417 364.898 213.833 368.12 213.833C372.786 213.833 377.009 215.028 380.786 217.417C384.564 219.75 387.564 222.889 389.786 226.833C392.064 230.778 393.203 235.167 393.203 240C393.203 244.778 392.064 249.167 389.786 253.167C387.564 257.111 384.564 260.278 380.786 262.667C377.009 265 372.786 266.167 368.12 266.167C365.286 266.167 362.648 265.722 360.203 264.833C357.814 263.944 355.648 262.722 353.703 261.167V290H340.62ZM366.536 254.583C369.203 254.583 371.592 253.917 373.703 252.583C375.87 251.25 377.592 249.5 378.87 247.333C380.148 245.111 380.786 242.667 380.786 240C380.786 237.333 380.148 234.917 378.87 232.75C377.592 230.528 375.87 228.75 373.703 227.417C371.592 226.083 369.231 225.417 366.62 225.417C363.953 225.417 361.536 226.083 359.37 227.417C357.259 228.75 355.564 230.528 354.286 232.75C353.009 234.917 352.37 237.333 352.37 240C352.37 242.667 353.009 245.111 354.286 247.333C355.564 249.5 357.259 251.25 359.37 252.583C361.536 253.917 363.925 254.583 366.536 254.583ZM402.813 265V185H415.896V265H402.813ZM450.443 266.167C445.887 266.167 441.72 265 437.943 262.667C434.165 260.278 431.137 257.111 428.859 253.167C426.637 249.167 425.526 244.778 425.526 240C425.526 235.222 426.637 230.861 428.859 226.917C431.137 222.917 434.165 219.75 437.943 217.417C441.72 215.028 445.887 213.833 450.443 213.833C453.72 213.833 456.748 214.417 459.526 215.583C462.304 216.75 464.665 218.389 466.609 220.5V215H478.026V265H466.609V259.5C464.665 261.556 462.304 263.194 459.526 264.417C456.748 265.583 453.72 266.167 450.443 266.167ZM452.026 254.583C454.693 254.583 457.082 253.917 459.193 252.583C461.359 251.25 463.082 249.5 464.359 247.333C465.637 245.111 466.276 242.667 466.276 240C466.276 237.333 465.637 234.917 464.359 232.75C463.082 230.528 461.359 228.75 459.193 227.417C457.082 226.083 454.72 225.417 452.109 225.417C449.443 225.417 447.026 226.083 444.859 227.417C442.748 228.75 441.054 230.528 439.776 232.75C438.498 234.917 437.859 237.333 437.859 240C437.859 242.667 438.498 245.111 439.776 247.333C441.054 249.5 442.748 251.25 444.859 252.583C447.026 253.917 449.415 254.583 452.026 254.583ZM490.469 265V215H503.552V265H490.469ZM497.052 207.333C494.997 207.333 493.247 206.639 491.802 205.25C490.413 203.806 489.719 202.056 489.719 200C489.719 197.889 490.413 196.139 491.802 194.75C493.247 193.361 494.997 192.667 497.052 192.667C499.163 192.667 500.913 193.361 502.302 194.75C503.691 196.139 504.385 197.889 504.385 200C504.385 202.056 503.691 203.806 502.302 205.25C500.913 206.639 499.163 207.333 497.052 207.333Z" fill="#2D2D2D"/>
</svg>
