<svg width="720" height="480" viewBox="0 0 720 480" fill="none" xmlns="http://www.w3.org/2000/svg">
<rect width="720" height="480" fill="white"/>
<path d="M178.76 281V245.6C178.76 240.16 179.96 235.4 182.36 231.32C184.84 227.24 188.24 224.08 192.56 221.84C196.88 219.52 201.8 218.36 207.32 218.36C212.92 218.36 217.84 219.52 222.08 221.84C226.4 224.08 229.76 227.24 232.16 231.32C234.64 235.4 235.88 240.16 235.88 245.6V281H224.84V245.72C224.84 242.04 224 238.88 222.32 236.24C220.72 233.52 218.56 231.44 215.84 230C213.2 228.56 210.36 227.84 207.32 227.84C204.28 227.84 201.4 228.56 198.68 230C196.04 231.44 193.88 233.52 192.2 236.24C190.6 238.88 189.8 242.04 189.8 245.72V281H178.76ZM253.408 281V193.4H264.448V281H253.408ZM302.882 281C297.442 281 293.162 279.44 290.042 276.32C287.002 273.2 285.482 268.96 285.482 263.6V204.44H296.522V262.88C296.522 265.52 297.242 267.64 298.682 269.24C300.202 270.76 302.282 271.52 304.922 271.52H317.282V281H302.882ZM274.922 229.28V219.8H317.522V229.28H274.922ZM330.869 281V193.4H341.909V245.48H358.709L374.789 219.8H387.029L369.629 247.16C375.389 248.84 379.869 252 383.069 256.64C386.349 261.2 387.989 266.52 387.989 272.6V281H376.829V272.6C376.829 269.24 376.069 266.24 374.549 263.6C373.109 260.96 371.069 258.88 368.429 257.36C365.789 255.76 362.749 254.96 359.309 254.96H341.909V281H330.869Z" fill="black"/>
<path d="M445.2 283.44C439.28 283.44 434.16 282.04 429.84 279.24C425.52 276.36 422.2 272.48 419.88 267.6C417.56 262.72 416.4 257.32 416.4 251.4C416.4 245.4 417.68 240 420.24 235.2C422.8 230.32 426.48 226.48 431.28 223.68C436.08 220.8 441.84 219.36 448.56 219.36C455.04 219.36 460.6 220.76 465.24 223.56C469.88 226.36 473.44 230.16 475.92 234.96C478.48 239.76 479.76 245.12 479.76 251.04V282H468.6V269.52H468.36C467.16 271.84 465.52 274.08 463.44 276.24C461.44 278.32 458.92 280.04 455.88 281.4C452.84 282.76 449.28 283.44 445.2 283.44ZM448.08 273.96C452.08 273.96 455.6 273 458.64 271.08C461.76 269.08 464.16 266.36 465.84 262.92C467.6 259.4 468.48 255.48 468.48 251.16C468.48 246.92 467.64 243.12 465.96 239.76C464.36 236.4 462.04 233.76 459 231.84C455.96 229.84 452.4 228.84 448.32 228.84C444 228.84 440.28 229.84 437.16 231.84C434.12 233.84 431.76 236.56 430.08 240C428.48 243.36 427.68 247.2 427.68 251.52C427.68 255.68 428.48 259.48 430.08 262.92C431.68 266.28 434 268.96 437.04 270.96C440.08 272.96 443.76 273.96 448.08 273.96ZM506.338 282C503.778 282 501.498 281.4 499.498 280.2C497.498 279 495.898 277.4 494.698 275.4C493.578 273.32 493.018 271.08 493.018 268.68C493.018 266.12 493.618 263.88 494.818 261.96C496.098 259.96 497.938 258.16 500.338 256.56L528.538 238.68C529.738 237.96 530.498 237.24 530.818 236.52C531.218 235.8 531.418 235.04 531.418 234.24C531.418 233.28 531.018 232.4 530.218 231.6C529.418 230.72 528.378 230.28 527.098 230.28H496.018V220.8H530.458C532.938 220.8 535.138 221.4 537.058 222.6C539.058 223.8 540.618 225.44 541.738 227.52C542.938 229.52 543.538 231.72 543.538 234.12C543.538 236.6 542.898 238.88 541.618 240.96C540.418 242.96 538.658 244.72 536.338 246.24L508.138 264.12C506.938 264.84 506.138 265.56 505.738 266.28C505.418 267 505.258 267.76 505.258 268.56C505.258 269.52 505.658 270.44 506.458 271.32C507.258 272.12 508.338 272.52 509.698 272.52H542.458V282H506.338Z" fill="url(#paint0_linear_1067_96)"/>
<defs>
<linearGradient id="paint0_linear_1067_96" x1="447.547" y1="219.648" x2="515.485" y2="282.479" gradientUnits="userSpaceOnUse">
<stop stop-color="#0092BC"/>
<stop offset="0.5" stop-color="#E4002B"/>
<stop offset="1" stop-color="#00AF66"/>
</linearGradient>
</defs>
</svg>
