<svg width="720" height="480" viewBox="0 0 720 480" fill="none" xmlns="http://www.w3.org/2000/svg">
<rect width="720" height="480" fill="#242424"/>
<path d="M228.55 232.272L223.366 250H218.534L215.302 237.616L212.07 250H207.206L201.99 232.272H206.534L209.67 245.776L213.062 232.272H217.798L221.126 245.744L224.262 232.272H228.55ZM229.822 241.072C229.822 239.28 230.174 237.691 230.878 236.304C231.603 234.917 232.574 233.851 233.79 233.104C235.027 232.357 236.403 231.984 237.918 231.984C239.24 231.984 240.392 232.251 241.374 232.784C242.376 233.317 243.176 233.989 243.774 234.8V232.272H248.286V250H243.774V247.408C243.198 248.24 242.398 248.933 241.374 249.488C240.371 250.021 239.208 250.288 237.886 250.288C236.392 250.288 235.027 249.904 233.79 249.136C232.574 248.368 231.603 247.291 230.878 245.904C230.174 244.496 229.822 242.885 229.822 241.072ZM243.774 241.136C243.774 240.048 243.56 239.12 243.134 238.352C242.707 237.563 242.131 236.965 241.406 236.56C240.68 236.133 239.902 235.92 239.07 235.92C238.238 235.92 237.47 236.123 236.766 236.528C236.062 236.933 235.486 237.531 235.038 238.32C234.611 239.088 234.398 240.005 234.398 241.072C234.398 242.139 234.611 243.077 235.038 243.888C235.486 244.677 236.062 245.285 236.766 245.712C237.491 246.139 238.259 246.352 239.07 246.352C239.902 246.352 240.68 246.149 241.406 245.744C242.131 245.317 242.707 244.72 243.134 243.952C243.56 243.163 243.774 242.224 243.774 241.136ZM262.485 232.016C264.597 232.016 266.304 232.688 267.605 234.032C268.906 235.355 269.557 237.211 269.557 239.6V250H265.077V240.208C265.077 238.8 264.725 237.723 264.021 236.976C263.317 236.208 262.357 235.824 261.141 235.824C259.904 235.824 258.922 236.208 258.197 236.976C257.493 237.723 257.141 238.8 257.141 240.208V250H252.661V232.272H257.141V234.48C257.738 233.712 258.496 233.115 259.413 232.688C260.352 232.24 261.376 232.016 262.485 232.016ZM283.641 232.016C285.753 232.016 287.46 232.688 288.761 234.032C290.063 235.355 290.713 237.211 290.713 239.6V250H286.233V240.208C286.233 238.8 285.881 237.723 285.177 236.976C284.473 236.208 283.513 235.824 282.297 235.824C281.06 235.824 280.079 236.208 279.353 236.976C278.649 237.723 278.297 238.8 278.297 240.208V250H273.817V232.272H278.297V234.48C278.895 233.712 279.652 233.115 280.569 232.688C281.508 232.24 282.532 232.016 283.641 232.016ZM293.822 241.072C293.822 239.28 294.174 237.691 294.878 236.304C295.603 234.917 296.574 233.851 297.79 233.104C299.027 232.357 300.403 231.984 301.918 231.984C303.24 231.984 304.392 232.251 305.374 232.784C306.376 233.317 307.176 233.989 307.774 234.8V232.272H312.286V250H307.774V247.408C307.198 248.24 306.398 248.933 305.374 249.488C304.371 250.021 303.208 250.288 301.886 250.288C300.392 250.288 299.027 249.904 297.79 249.136C296.574 248.368 295.603 247.291 294.878 245.904C294.174 244.496 293.822 242.885 293.822 241.072ZM307.774 241.136C307.774 240.048 307.56 239.12 307.134 238.352C306.707 237.563 306.131 236.965 305.406 236.56C304.68 236.133 303.902 235.92 303.07 235.92C302.238 235.92 301.47 236.123 300.766 236.528C300.062 236.933 299.486 237.531 299.038 238.32C298.611 239.088 298.398 240.005 298.398 241.072C298.398 242.139 298.611 243.077 299.038 243.888C299.486 244.677 300.062 245.285 300.766 245.712C301.491 246.139 302.259 246.352 303.07 246.352C303.902 246.352 304.68 246.149 305.406 245.744C306.131 245.317 306.707 244.72 307.134 243.952C307.56 243.163 307.774 242.224 307.774 241.136ZM329.502 235.952V244.528C329.502 245.125 329.641 245.563 329.918 245.84C330.217 246.096 330.707 246.224 331.39 246.224H333.47V250H330.654C326.878 250 324.99 248.165 324.99 244.496V235.952H322.878V232.272H324.99V227.888H329.502V232.272H333.47V235.952H329.502ZM335.54 241.072C335.54 239.28 335.892 237.691 336.596 236.304C337.322 234.917 338.292 233.851 339.508 233.104C340.746 232.357 342.122 231.984 343.636 231.984C344.959 231.984 346.111 232.251 347.092 232.784C348.095 233.317 348.895 233.989 349.492 234.8V232.272H354.004V250H349.492V247.408C348.916 248.24 348.116 248.933 347.092 249.488C346.09 250.021 344.927 250.288 343.604 250.288C342.111 250.288 340.746 249.904 339.508 249.136C338.292 248.368 337.322 247.291 336.596 245.904C335.892 244.496 335.54 242.885 335.54 241.072ZM349.492 241.136C349.492 240.048 349.279 239.12 348.852 238.352C348.426 237.563 347.85 236.965 347.124 236.56C346.399 236.133 345.62 235.92 344.788 235.92C343.956 235.92 343.188 236.123 342.484 236.528C341.78 236.933 341.204 237.531 340.756 238.32C340.33 239.088 340.116 240.005 340.116 241.072C340.116 242.139 340.33 243.077 340.756 243.888C341.204 244.677 341.78 245.285 342.484 245.712C343.21 246.139 343.978 246.352 344.788 246.352C345.62 246.352 346.399 246.149 347.124 245.744C347.85 245.317 348.426 244.72 348.852 243.952C349.279 243.163 349.492 242.224 349.492 241.136ZM368.876 250L362.86 242.448V250H358.38V226.32H362.86V239.792L368.812 232.272H374.636L366.828 241.168L374.7 250H368.876ZM393.547 240.752C393.547 241.392 393.505 241.968 393.419 242.48H380.459C380.566 243.76 381.014 244.763 381.803 245.488C382.593 246.213 383.563 246.576 384.715 246.576C386.379 246.576 387.563 245.861 388.267 244.432H393.099C392.587 246.139 391.606 247.547 390.155 248.656C388.705 249.744 386.923 250.288 384.811 250.288C383.105 250.288 381.569 249.915 380.203 249.168C378.859 248.4 377.803 247.323 377.035 245.936C376.289 244.549 375.915 242.949 375.915 241.136C375.915 239.301 376.289 237.691 377.035 236.304C377.782 234.917 378.827 233.851 380.171 233.104C381.515 232.357 383.062 231.984 384.811 231.984C386.497 231.984 388.001 232.347 389.323 233.072C390.667 233.797 391.702 234.832 392.427 236.176C393.174 237.499 393.547 239.024 393.547 240.752ZM388.907 239.472C388.886 238.32 388.47 237.403 387.659 236.72C386.849 236.016 385.857 235.664 384.683 235.664C383.574 235.664 382.635 236.005 381.867 236.688C381.121 237.349 380.662 238.277 380.491 239.472H388.907ZM414.266 232.016C416.378 232.016 418.085 232.688 419.386 234.032C420.688 235.355 421.338 237.211 421.338 239.6V250H416.858V240.208C416.858 238.8 416.506 237.723 415.802 236.976C415.098 236.208 414.138 235.824 412.922 235.824C411.685 235.824 410.704 236.208 409.978 236.976C409.274 237.723 408.922 238.8 408.922 240.208V250H404.442V232.272H408.922V234.48C409.52 233.712 410.277 233.115 411.194 232.688C412.133 232.24 413.157 232.016 414.266 232.016ZM433.471 250.288C431.764 250.288 430.228 249.915 428.863 249.168C427.497 248.4 426.42 247.323 425.631 245.936C424.863 244.549 424.479 242.949 424.479 241.136C424.479 239.323 424.873 237.723 425.663 236.336C426.473 234.949 427.572 233.883 428.959 233.136C430.345 232.368 431.892 231.984 433.599 231.984C435.305 231.984 436.852 232.368 438.239 233.136C439.625 233.883 440.713 234.949 441.503 236.336C442.313 237.723 442.719 239.323 442.719 241.136C442.719 242.949 442.303 244.549 441.471 245.936C440.66 247.323 439.551 248.4 438.143 249.168C436.756 249.915 435.199 250.288 433.471 250.288ZM433.471 246.384C434.281 246.384 435.039 246.192 435.743 245.808C436.468 245.403 437.044 244.805 437.471 244.016C437.897 243.227 438.111 242.267 438.111 241.136C438.111 239.451 437.663 238.16 436.767 237.264C435.892 236.347 434.815 235.888 433.535 235.888C432.255 235.888 431.177 236.347 430.303 237.264C429.449 238.16 429.023 239.451 429.023 241.136C429.023 242.821 429.439 244.123 430.271 245.04C431.124 245.936 432.191 246.384 433.471 246.384ZM451.221 235.952V244.528C451.221 245.125 451.36 245.563 451.637 245.84C451.936 246.096 452.426 246.224 453.109 246.224H455.189V250H452.373C448.597 250 446.709 248.165 446.709 244.496V235.952H444.597V232.272H446.709V227.888H451.221V232.272H455.189V235.952H451.221ZM474.891 240.752C474.891 241.392 474.848 241.968 474.763 242.48H461.803C461.91 243.76 462.358 244.763 463.147 245.488C463.936 246.213 464.907 246.576 466.059 246.576C467.723 246.576 468.907 245.861 469.611 244.432H474.443C473.931 246.139 472.95 247.547 471.499 248.656C470.048 249.744 468.267 250.288 466.155 250.288C464.448 250.288 462.912 249.915 461.547 249.168C460.203 248.4 459.147 247.323 458.379 245.936C457.632 244.549 457.259 242.949 457.259 241.136C457.259 239.301 457.632 237.691 458.379 236.304C459.126 234.917 460.171 233.851 461.515 233.104C462.859 232.357 464.406 231.984 466.155 231.984C467.84 231.984 469.344 232.347 470.667 233.072C472.011 233.797 473.046 234.832 473.771 236.176C474.518 237.499 474.891 239.024 474.891 240.752ZM470.251 239.472C470.23 238.32 469.814 237.403 469.003 236.72C468.192 236.016 467.2 235.664 466.027 235.664C464.918 235.664 463.979 236.005 463.211 236.688C462.464 237.349 462.006 238.277 461.835 239.472H470.251ZM484.945 250.288C483.494 250.288 482.193 250.032 481.041 249.52C479.889 248.987 478.972 248.272 478.289 247.376C477.628 246.48 477.265 245.488 477.201 244.4H481.713C481.798 245.083 482.129 245.648 482.705 246.096C483.302 246.544 484.038 246.768 484.913 246.768C485.766 246.768 486.428 246.597 486.897 246.256C487.388 245.915 487.633 245.477 487.633 244.944C487.633 244.368 487.334 243.941 486.737 243.664C486.161 243.365 485.233 243.045 483.953 242.704C482.63 242.384 481.542 242.053 480.689 241.712C479.857 241.371 479.132 240.848 478.513 240.144C477.916 239.44 477.617 238.491 477.617 237.296C477.617 236.315 477.894 235.419 478.449 234.608C479.025 233.797 479.836 233.157 480.881 232.688C481.948 232.219 483.196 231.984 484.625 231.984C486.737 231.984 488.422 232.517 489.681 233.584C490.94 234.629 491.633 236.048 491.761 237.84H487.473C487.409 237.136 487.11 236.581 486.577 236.176C486.065 235.749 485.372 235.536 484.497 235.536C483.686 235.536 483.057 235.685 482.609 235.984C482.182 236.283 481.969 236.699 481.969 237.232C481.969 237.829 482.268 238.288 482.865 238.608C483.462 238.907 484.39 239.216 485.649 239.536C486.929 239.856 487.985 240.187 488.817 240.528C489.649 240.869 490.364 241.403 490.961 242.128C491.58 242.832 491.9 243.771 491.921 244.944C491.921 245.968 491.633 246.885 491.057 247.696C490.502 248.507 489.692 249.147 488.625 249.616C487.58 250.064 486.353 250.288 484.945 250.288ZM509.464 226.896C511.682 226.896 513.464 227.504 514.808 228.72C516.173 229.915 516.856 231.568 516.856 233.68C516.856 235.771 516.184 237.371 514.84 238.48C513.496 239.568 511.714 240.112 509.496 240.112L509.368 242.576H505.432L505.272 237.136H506.712C508.568 237.136 509.997 236.891 511 236.4C512.002 235.909 512.504 235.013 512.504 233.712C512.504 232.773 512.226 232.027 511.672 231.472C511.138 230.917 510.402 230.64 509.464 230.64C508.482 230.64 507.714 230.907 507.16 231.44C506.626 231.973 506.36 232.709 506.36 233.648H502.136C502.114 232.347 502.392 231.184 502.968 230.16C503.544 229.136 504.386 228.336 505.496 227.76C506.626 227.184 507.949 226.896 509.464 226.896ZM507.384 250.224C506.573 250.224 505.901 249.979 505.368 249.488C504.856 248.976 504.6 248.347 504.6 247.6C504.6 246.853 504.856 246.235 505.368 245.744C505.901 245.232 506.573 244.976 507.384 244.976C508.173 244.976 508.824 245.232 509.336 245.744C509.848 246.235 510.104 246.853 510.104 247.6C510.104 248.347 509.848 248.976 509.336 249.488C508.824 249.979 508.173 250.224 507.384 250.224Z" fill="white"/>
</svg>
