<svg width="720" height="480" viewBox="0 0 720 480" fill="none" xmlns="http://www.w3.org/2000/svg">
<g clip-path="url(#clip0_1065_5)">
<rect width="720" height="480" fill="white"/>
<g clip-path="url(#clip1_1065_5)">
<path d="M779 0H0V479.836H779V0Z" fill="#242424"/>
<path d="M630.906 37H52.0938C40.444 37 31 47.8113 31 61.1477V80.8523C31 94.1887 40.444 105 52.0938 105H630.906C642.556 105 652 94.1887 652 80.8523V61.1477C652 47.8113 642.556 37 630.906 37Z" fill="#FEBA17"/>
<path d="M533.493 118H51.5066C40.1811 118 31 128.811 31 142.148V161.852C31 175.189 40.1811 186 51.5066 186H533.493C544.819 186 554 175.189 554 161.852V142.148C554 128.811 544.819 118 533.493 118Z" fill="#169976"/>
<path d="M463.661 199H51.3394C40.1063 199 31 209.811 31 223.148V242.852C31 256.189 40.1063 267 51.3394 267H463.661C474.894 267 484 256.189 484 242.852V223.148C484 209.811 474.894 199 463.661 199Z" fill="#27548A"/>
<path d="M391.378 280H54.622C41.576 280 31 290.811 31 304.148V323.852C31 337.189 41.576 348 54.622 348H391.378C404.424 348 415 337.189 415 323.852V304.148C415 290.811 404.424 280 391.378 280Z" fill="#A94A4A"/>
<path d="M77.2353 67.6717H72.3722C72.3073 67.1725 72.1744 66.7219 71.9735 66.3199C71.7725 65.918 71.5067 65.5744 71.176 65.2891C70.8453 65.0038 70.453 64.7867 69.9992 64.6376C69.5519 64.4819 69.0559 64.4042 68.5112 64.4042C67.5452 64.4042 66.712 64.6408 66.0118 65.1141C65.318 65.5874 64.7831 66.2713 64.4071 67.166C64.0375 68.0607 63.8528 69.1434 63.8528 70.4141C63.8528 71.7367 64.0408 72.8453 64.4168 73.74C64.7994 74.6282 65.3342 75.2992 66.0215 75.753C66.7153 76.2005 67.5354 76.4241 68.482 76.4241C69.0137 76.4241 69.4967 76.3556 69.9312 76.2195C70.372 76.0833 70.7578 75.8859 71.0885 75.6266C71.4256 75.3608 71.7012 75.0399 71.9151 74.6638C72.1356 74.2813 72.2879 73.8502 72.3722 73.3704L77.2353 73.3996C77.1508 74.2813 76.8945 75.1501 76.4669 76.0059C76.0452 76.8615 75.4649 77.6427 74.7257 78.3494C73.9866 79.05 73.0854 79.6076 72.0221 80.0222C70.9652 80.4368 69.7528 80.6444 68.3848 80.6444C66.5824 80.6444 64.9679 80.2489 63.5415 79.4585C62.1216 78.6606 61 77.5005 60.1765 75.9767C59.3531 74.4531 58.9414 72.5989 58.9414 70.4141C58.9414 68.2228 59.3596 66.3653 60.196 64.8418C61.0324 63.3182 62.1638 62.161 63.5902 61.37C65.0165 60.5791 66.6148 60.1836 68.3848 60.1836C69.5907 60.1836 70.7059 60.3522 71.7303 60.6892C72.7547 61.0199 73.656 61.5061 74.434 62.148C75.212 62.7834 75.8442 63.5646 76.3308 64.4917C76.8169 65.4188 77.1181 66.4787 77.2353 67.6717ZM84.7453 71.8534V80.3721H79.9899V60.4558H84.5894V68.1774H84.7552C85.0922 67.2568 85.643 66.5371 86.4083 66.0184C87.1797 65.4998 88.123 65.2405 89.2383 65.2405C90.2889 65.2405 91.2033 65.4739 91.9807 65.9407C92.759 66.401 93.3623 67.0525 93.7898 67.8954C94.2242 68.7382 94.4379 69.7237 94.4319 70.8517V80.3721H89.6765V71.7853C89.6825 70.9554 89.4749 70.3071 89.0534 69.8403C88.632 69.3735 88.0393 69.1401 87.274 69.1401C86.775 69.1401 86.3338 69.2503 85.9511 69.4708C85.5753 69.6847 85.2801 69.9927 85.0664 70.3947C84.8587 70.7966 84.7522 71.2828 84.7453 71.8534ZM97.4003 80.3721V65.435H102.02V68.1579H102.175C102.448 67.1725 102.892 66.4399 103.508 65.9601C104.124 65.4739 104.84 65.2307 105.657 65.2307C105.878 65.2307 106.105 65.2469 106.338 65.2794C106.572 65.3053 106.789 65.3474 106.989 65.4058V69.5389C106.763 69.4611 106.465 69.3994 106.095 69.3541C105.732 69.3087 105.408 69.286 105.123 69.286C104.558 69.286 104.049 69.4124 103.596 69.6653C103.148 69.9116 102.795 70.2585 102.535 70.7059C102.283 71.1467 102.156 71.6653 102.156 72.2618V80.3721H97.4003ZM115.125 80.6543C113.556 80.6543 112.207 80.3333 111.079 79.6913C109.958 79.0432 109.092 78.1418 108.483 76.9878C107.879 75.8276 107.578 74.4823 107.578 72.9523C107.578 71.4157 107.879 70.0705 108.483 68.9165C109.092 67.756 109.958 66.8548 111.079 66.213C112.207 65.5646 113.556 65.2405 115.125 65.2405C116.694 65.2405 118.039 65.5646 119.161 66.213C120.289 66.8548 121.154 67.756 121.758 68.9165C122.367 70.0705 122.672 71.4157 122.672 72.9523C122.672 74.4823 122.367 75.8276 121.758 76.9878C121.154 78.1418 120.289 79.0432 119.161 79.6913C118.039 80.3333 116.694 80.6543 115.125 80.6543ZM115.154 77.0661C115.725 77.0661 116.208 76.8912 116.604 76.5405C116.999 76.1906 117.301 75.7044 117.507 75.082C117.722 74.4596 117.828 73.74 117.828 72.9231C117.828 72.0932 117.722 71.3671 117.507 70.7447C117.301 70.1223 116.999 69.6361 116.604 69.286C116.208 68.9359 115.725 68.7608 115.154 68.7608C114.564 68.7608 114.065 68.9359 113.657 69.286C113.255 69.6361 112.947 70.1223 112.732 70.7447C112.525 71.3671 112.421 72.0932 112.421 72.9231C112.421 73.74 112.525 74.4596 112.732 75.082C112.947 75.7044 113.255 76.1906 113.657 76.5405C114.065 76.8912 114.564 77.0661 115.154 77.0661ZM125.108 80.3721V65.435H129.631V68.1774H129.796C130.107 67.2697 130.633 66.5534 131.371 66.0282C132.111 65.5031 132.992 65.2405 134.016 65.2405C135.054 65.2405 135.943 65.5063 136.681 66.0379C137.421 66.5696 137.891 67.2827 138.092 68.1774H138.247C138.526 67.2892 139.071 66.5792 139.881 66.0477C140.692 65.5095 141.648 65.2405 142.75 65.2405C144.163 65.2405 145.311 65.6943 146.193 66.602C147.074 67.5031 147.516 68.7414 147.516 70.3168V80.3721H142.76V71.406C142.76 70.6604 142.569 70.0932 142.186 69.7042C141.803 69.3087 141.307 69.111 140.698 69.111C140.043 69.111 139.528 69.3249 139.151 69.7528C138.782 70.1742 138.598 70.7415 138.598 71.4546V80.3721H134.026V71.3574C134.026 70.6637 133.838 70.1159 133.462 69.7139C133.086 69.312 132.59 69.111 131.974 69.111C131.559 69.111 131.193 69.2115 130.875 69.4124C130.558 69.607 130.308 69.8857 130.127 70.2488C129.952 70.6118 129.864 71.0397 129.864 71.5324V80.3721H125.108ZM157.445 80.6543C155.882 80.6543 154.534 80.3463 153.399 79.7301C152.271 79.1078 151.402 78.2231 150.793 77.0753C150.19 75.9216 149.888 74.5504 149.888 72.962C149.888 71.419 150.193 70.0705 150.803 68.9165C151.412 67.756 152.271 66.8548 153.38 66.213C154.489 65.5646 155.795 65.2405 157.3 65.2405C158.362 65.2405 159.335 65.4058 160.217 65.7365C161.099 66.0671 161.86 66.5566 162.502 67.2049C163.144 67.8533 163.643 68.6539 164 69.607C164.357 70.5535 164.535 71.6394 164.535 72.8647V74.0512H151.551V71.2893H160.11C160.104 70.7836 159.983 70.333 159.75 69.9376C159.516 69.5421 159.195 69.2341 158.787 69.0137C158.385 68.7868 157.922 68.6734 157.396 68.6734C156.865 68.6734 156.388 68.7933 155.967 69.0332C155.545 69.2665 155.211 69.5875 154.965 69.9959C154.718 70.3979 154.589 70.855 154.576 71.3671V74.1776C154.576 74.787 154.696 75.3218 154.936 75.7822C155.176 76.2362 155.516 76.5892 155.957 76.8425C156.398 77.095 156.923 77.2213 157.532 77.2213C157.954 77.2213 158.336 77.1627 158.68 77.0463C159.024 76.93 159.319 76.758 159.565 76.5314C159.812 76.3039 159.996 76.0253 160.12 75.6947L164.486 75.8211C164.304 76.7999 163.906 77.6526 163.29 78.3791C162.68 79.0987 161.88 79.6593 160.888 80.061C159.896 80.4566 158.748 80.6543 157.445 80.6543Z" fill="white"/>
<path d="M528.829 81.4609C527.312 81.4609 525.966 81.2015 524.793 80.6827C523.626 80.1578 522.705 79.4351 522.031 78.5147C521.357 77.5935 521.013 76.5337 521 75.3343H525.843C525.863 75.7687 526.002 76.1545 526.261 76.4916C526.521 76.8223 526.874 77.0815 527.322 77.2694C527.769 77.4573 528.278 77.5516 528.849 77.5516C529.419 77.5516 529.921 77.4512 530.356 77.2504C530.797 77.0427 531.14 76.7607 531.386 76.4041C531.633 76.041 531.753 75.6261 531.746 75.1593C531.753 74.6926 531.62 74.2776 531.348 73.9146C531.075 73.5515 530.69 73.2694 530.191 73.0685C529.698 72.8675 529.114 72.767 528.44 72.767H526.505V69.3439H528.44C529.03 69.3439 529.548 69.2466 529.996 69.0521C530.45 68.8576 530.803 68.5854 531.056 68.2352C531.309 67.8787 531.432 67.4703 531.425 67.0099C531.432 66.5626 531.325 66.1704 531.105 65.8332C530.89 65.4896 530.589 65.2238 530.2 65.0358C529.818 64.8478 529.373 64.7537 528.868 64.7537C528.336 64.7537 527.853 64.8478 527.418 65.0358C526.991 65.2238 526.651 65.4896 526.397 65.8332C526.145 66.1768 526.012 66.5755 525.999 67.0294H521.399C521.412 65.843 521.742 64.7992 522.391 63.898C523.039 62.9904 523.92 62.2804 525.036 61.7682C526.158 61.2561 527.435 61 528.868 61C530.294 61 531.548 61.2496 532.632 61.7488C533.714 62.248 534.557 62.9287 535.16 63.791C535.763 64.6468 536.065 65.6161 536.065 66.6988C536.071 67.8203 535.704 68.7442 534.966 69.4703C534.233 70.1965 533.29 70.6437 532.136 70.8123V70.9679C533.679 71.1495 534.842 71.6487 535.627 72.4655C536.418 73.2824 536.81 74.3035 536.804 75.5289C536.804 76.6829 536.464 77.7076 535.783 78.6022C535.108 79.4899 534.168 80.1905 532.962 80.7024C531.763 81.2083 530.385 81.4609 528.829 81.4609ZM544.314 72.6698V81.1885H539.558V61.2723H544.158V68.9938H544.324C544.661 68.0732 545.212 67.3535 545.977 66.8349C546.749 66.3162 547.692 66.0569 548.807 66.0569C549.858 66.0569 550.772 66.2903 551.55 66.7571C552.328 67.2174 552.931 67.8689 553.359 68.7118C553.793 69.5546 554.007 70.5401 554.001 71.6681V81.1885H549.245V72.6017C549.252 71.7719 549.044 71.1235 548.623 70.6567C548.201 70.1899 547.608 69.9565 546.842 69.9565C546.343 69.9565 545.903 70.0668 545.52 70.2872C545.144 70.5011 544.849 70.8091 544.635 71.2111C544.428 71.613 544.321 72.0993 544.314 72.6698ZM562.572 77.8825V74.1285L570.73 61.2723H574.066V66.3681H572.131L567.356 73.934V74.0896H579.172V77.8825H562.572ZM572.19 81.1885V76.7347L572.287 75.0912V61.2723H576.79V81.1885H572.19ZM589.681 81.4609C588.591 81.4609 587.547 81.2859 586.549 80.936C585.55 80.5792 584.663 80.0155 583.884 79.2434C583.106 78.466 582.494 77.4482 582.046 76.1901C581.599 74.9259 581.379 73.3861 581.385 71.5709C581.391 69.9306 581.592 68.4589 581.988 67.1558C582.384 65.8462 582.947 64.7343 583.68 63.8202C584.419 62.9061 585.301 62.2091 586.326 61.7294C587.356 61.2431 588.507 61 589.778 61C591.172 61 592.4 61.2723 593.464 61.8168C594.533 62.355 595.389 63.0811 596.031 63.9952C596.673 64.9029 597.053 65.9143 597.169 67.0294H592.433C592.291 66.4005 591.976 65.924 591.49 65.5999C591.01 65.2692 590.439 65.1039 589.778 65.1039C588.559 65.1039 587.648 65.6323 587.045 66.689C586.449 67.7458 586.144 69.1591 586.131 70.929H586.257C586.53 70.3325 586.922 69.8204 587.434 69.3925C587.946 68.9646 588.533 68.6372 589.194 68.4103C589.862 68.1769 590.569 68.0602 591.315 68.0602C592.507 68.0602 593.561 68.3357 594.476 68.8868C595.389 69.4379 596.106 70.1932 596.625 71.1527C597.143 72.1057 597.4 73.1982 597.393 74.43C597.4 75.8174 597.075 77.0427 596.421 78.1062C595.766 79.1628 594.858 79.9859 593.697 80.5762C592.543 81.1657 591.204 81.4609 589.681 81.4609ZM589.652 77.7654C590.241 77.7654 590.77 77.6262 591.237 77.3478C591.703 77.0686 592.07 76.6894 592.336 76.2096C592.602 75.7298 592.731 75.1885 592.725 74.5856C592.731 73.9761 592.602 73.4348 592.336 72.9615C592.076 72.4882 591.713 72.1122 591.246 71.8335C590.786 71.5547 590.258 71.4152 589.662 71.4152C589.227 71.4152 588.822 71.4963 588.446 71.6584C588.069 71.8205 587.742 72.0474 587.463 72.3391C587.191 72.6244 586.977 72.9615 586.822 73.3505C586.666 73.733 586.585 74.148 586.578 74.5953C586.585 75.1853 586.721 75.7201 586.987 76.1999C587.252 76.6796 587.616 77.0625 588.076 77.3478C588.536 77.6262 589.061 77.7654 589.652 77.7654ZM600.162 81.1885V66.2514H604.685V68.9938H604.85C605.161 68.0861 605.687 67.3698 606.425 66.8446C607.165 66.3195 608.046 66.0569 609.07 66.0569C610.108 66.0569 610.997 66.3227 611.735 66.8543C612.475 67.386 612.945 68.0991 613.146 68.9938H613.302C613.58 68.1056 614.125 67.3956 614.935 66.8641C615.746 66.3259 616.702 66.0569 617.804 66.0569C619.218 66.0569 620.365 66.5107 621.247 67.4184C622.128 68.3195 622.57 69.5578 622.57 71.1332V81.1885H617.814V72.2224C617.814 71.4769 617.623 70.9096 617.24 70.5206C616.857 70.1251 616.361 69.9274 615.752 69.9274C615.097 69.9274 614.582 70.1413 614.205 70.5692C613.836 70.9906 613.652 71.5579 613.652 72.271V81.1885H609.08V72.1738C609.08 71.4801 608.892 70.9323 608.517 70.5303C608.14 70.1284 607.644 69.9274 607.028 69.9274C606.613 69.9274 606.247 70.0279 605.929 70.2289C605.612 70.4234 605.362 70.7021 605.181 71.0652C605.006 71.4282 604.918 71.8561 604.918 72.3488V81.1885H600.162Z" fill="white"/>
<path d="M63.6769 141.468L68.1312 156.055H68.2965L72.7507 141.468H78.1383L71.4183 161.383H65.0093L58.2891 141.468H63.6769ZM91.0488 147.438C90.9842 146.725 90.6958 146.171 90.1839 145.775C89.678 145.373 88.9545 145.172 88.015 145.172C87.3919 145.172 86.8739 145.254 86.4585 145.416C86.0439 145.578 85.7328 145.801 85.5251 146.087C85.3174 146.365 85.2109 146.686 85.204 147.05C85.1911 147.348 85.2497 147.61 85.379 147.837C85.5152 148.064 85.7099 148.265 85.9625 148.44C86.2219 148.608 86.5331 148.757 86.8959 148.887C87.2596 149.017 87.6681 149.13 88.1215 149.228L89.8332 149.617C90.8191 149.831 91.6879 150.116 92.4395 150.473C93.1987 150.829 93.8339 151.254 94.3459 151.746C94.8647 152.239 95.2573 152.807 95.5228 153.449C95.7883 154.09 95.9244 154.81 95.9313 155.607C95.9244 156.865 95.6072 157.944 94.9781 158.846C94.3489 159.746 93.4444 160.437 92.2645 160.917C91.0914 161.396 89.6742 161.637 88.015 161.637C86.3482 161.637 84.8959 161.387 83.6575 160.887C82.4197 160.388 81.4566 159.63 80.7697 158.612C80.082 157.594 79.729 156.307 79.7092 154.752H84.3193C84.3581 155.393 84.53 155.928 84.8343 156.356C85.1394 156.784 85.5578 157.108 86.0888 157.328C86.6274 157.549 87.2497 157.659 87.9564 157.659C88.6046 157.659 89.1561 157.572 89.6095 157.397C90.0698 157.222 90.4235 156.978 90.67 156.667C90.9165 156.356 91.0427 155.999 91.0488 155.598C91.0427 155.221 90.9256 154.901 90.6989 154.635C90.4722 154.362 90.1222 154.129 89.6483 153.935C89.182 153.734 88.5855 153.549 87.859 153.38L85.7776 152.894C84.053 152.499 82.6951 151.86 81.7031 150.978C80.7111 150.09 80.2181 148.891 80.225 147.38C80.2181 146.148 80.5491 145.069 81.217 144.141C81.8842 143.214 82.8085 142.492 83.9884 141.973C85.1683 141.454 86.514 141.195 88.0241 141.195C89.5677 141.195 90.9066 141.458 92.0408 141.983C93.1819 142.501 94.0674 143.231 94.6958 144.171C95.325 145.111 95.646 146.2 95.6589 147.438H91.0488ZM122.326 148.683H117.463C117.399 148.184 117.266 147.734 117.065 147.331C116.864 146.929 116.598 146.586 116.267 146.3C115.937 146.015 115.544 145.798 115.091 145.649C114.643 145.493 114.147 145.416 113.603 145.416C112.636 145.416 111.803 145.652 111.103 146.125C110.409 146.599 109.874 147.282 109.498 148.178C109.129 149.072 108.944 150.155 108.944 151.425C108.944 152.748 109.132 153.856 109.508 154.752C109.89 155.639 110.425 156.31 111.113 156.765C111.806 157.212 112.627 157.435 113.573 157.435C114.105 157.435 114.588 157.368 115.022 157.232C115.463 157.095 115.849 156.898 116.179 156.638C116.517 156.372 116.792 156.051 117.006 155.675C117.227 155.293 117.379 154.861 117.463 154.382L122.326 154.411C122.242 155.293 121.985 156.161 121.558 157.017C121.136 157.873 120.556 158.654 119.817 159.361C119.078 160.061 118.176 160.619 117.113 161.034C116.056 161.449 114.844 161.656 113.476 161.656C111.673 161.656 110.059 161.26 108.633 160.47C107.212 159.672 106.091 158.512 105.268 156.988C104.444 155.464 104.032 153.611 104.032 151.425C104.032 149.234 104.451 147.377 105.287 145.853C106.124 144.329 107.255 143.172 108.681 142.381C110.108 141.59 111.706 141.195 113.476 141.195C114.682 141.195 115.797 141.363 116.821 141.7C117.846 142.031 118.747 142.517 119.525 143.159C120.303 143.795 120.935 144.576 121.421 145.503C121.908 146.43 122.21 147.49 122.326 148.683ZM132.054 161.666C130.485 161.666 129.136 161.345 128.008 160.703C126.887 160.055 126.021 159.154 125.412 157.999C124.808 156.839 124.507 155.493 124.507 153.964C124.507 152.427 124.808 151.082 125.412 149.928C126.021 148.767 126.887 147.866 128.008 147.225C129.136 146.576 130.485 146.252 132.054 146.252C133.623 146.252 134.968 146.576 136.09 147.225C137.218 147.866 138.083 148.767 138.687 149.928C139.296 151.082 139.601 152.427 139.601 153.964C139.601 155.493 139.296 156.839 138.687 157.999C138.083 159.154 137.218 160.055 136.09 160.703C134.968 161.345 133.623 161.666 132.054 161.666ZM132.083 158.077C132.654 158.077 133.137 157.903 133.532 157.552C133.927 157.202 134.229 156.716 134.436 156.094C134.651 155.471 134.757 154.752 134.757 153.935C134.757 153.105 134.651 152.378 134.436 151.756C134.229 151.134 133.927 150.648 133.532 150.297C133.137 149.947 132.654 149.772 132.083 149.772C131.493 149.772 130.994 149.947 130.585 150.297C130.183 150.648 129.876 151.134 129.661 151.756C129.454 152.378 129.35 153.105 129.35 153.935C129.35 154.752 129.454 155.471 129.661 156.094C129.876 156.716 130.183 157.202 130.585 157.552C130.994 157.903 131.493 158.077 132.083 158.077ZM147.493 161.598C146.391 161.598 145.389 161.313 144.488 160.742C143.586 160.172 142.867 159.316 142.329 158.175C141.79 157.034 141.522 155.617 141.522 153.925C141.522 152.168 141.8 150.722 142.358 149.587C142.915 148.453 143.645 147.613 144.546 147.069C145.454 146.524 146.429 146.252 147.473 146.252C148.258 146.252 148.929 146.388 149.487 146.66C150.044 146.926 150.505 147.269 150.868 147.691C151.23 148.112 151.507 148.55 151.694 149.004H151.792V141.468H156.547V161.383H151.84V158.962H151.694C151.493 159.422 151.208 159.854 150.839 160.255C150.469 160.658 150.006 160.982 149.448 161.228C148.896 161.475 148.245 161.598 147.493 161.598ZM149.146 157.893C149.723 157.893 150.216 157.731 150.624 157.407C151.033 157.076 151.348 156.612 151.568 156.016C151.788 155.419 151.898 154.719 151.898 153.915C151.898 153.098 151.788 152.395 151.568 151.805C151.354 151.214 151.039 150.761 150.624 150.443C150.216 150.126 149.723 149.967 149.146 149.967C148.556 149.967 148.057 150.129 147.649 150.453C147.24 150.777 146.928 151.234 146.715 151.825C146.508 152.414 146.403 153.111 146.403 153.915C146.403 154.719 146.511 155.419 146.725 156.016C146.938 156.612 147.246 157.076 147.649 157.407C148.057 157.731 148.556 157.893 149.146 157.893ZM166.537 161.666C164.975 161.666 163.627 161.358 162.492 160.742C161.363 160.119 160.495 159.234 159.885 158.087C159.282 156.933 158.981 155.562 158.981 153.973C158.981 152.43 159.286 151.082 159.895 149.928C160.505 148.767 161.363 147.866 162.473 147.225C163.581 146.576 164.887 146.252 166.392 146.252C167.455 146.252 168.428 146.417 169.309 146.748C170.191 147.079 170.953 147.568 171.595 148.217C172.237 148.865 172.736 149.666 173.093 150.618C173.449 151.565 173.627 152.651 173.627 153.876V155.063H160.644V152.301H169.202C169.196 151.795 169.076 151.345 168.842 150.949C168.609 150.553 168.288 150.245 167.88 150.025C167.478 149.798 167.014 149.685 166.489 149.685C165.958 149.685 165.481 149.805 165.059 150.045C164.638 150.278 164.304 150.599 164.057 151.008C163.812 151.409 163.681 151.866 163.669 152.378V155.189C163.669 155.798 163.789 156.333 164.028 156.793C164.268 157.248 164.609 157.601 165.049 157.854C165.49 158.106 166.015 158.233 166.625 158.233C167.046 158.233 167.429 158.175 167.773 158.058C168.117 157.941 168.411 157.769 168.657 157.543C168.904 157.315 169.089 157.037 169.212 156.706L173.579 156.832C173.397 157.811 172.998 158.664 172.383 159.39C171.773 160.11 170.972 160.671 169.98 161.072C168.988 161.468 167.84 161.666 166.537 161.666Z" fill="white"/>
<path d="M434.409 161.383V157.922L441.674 151.561C442.218 151.069 442.682 150.618 443.064 150.21C443.447 149.795 443.738 149.38 443.94 148.965C444.141 148.544 444.241 148.086 444.241 147.594C444.241 147.043 444.121 146.573 443.881 146.184C443.642 145.788 443.311 145.483 442.889 145.27C442.468 145.056 441.985 144.949 441.44 144.949C440.889 144.949 440.406 145.062 439.991 145.289C439.576 145.509 439.252 145.83 439.019 146.252C438.792 146.673 438.678 147.186 438.678 147.788H434.117C434.117 146.433 434.421 145.264 435.031 144.278C435.641 143.293 436.497 142.534 437.598 142.002C438.707 141.464 439.995 141.195 441.46 141.195C442.971 141.195 444.283 141.448 445.398 141.954C446.513 142.46 447.376 143.166 447.986 144.074C448.602 144.974 448.909 146.022 448.909 147.215C448.909 147.973 448.757 148.725 448.453 149.471C448.148 150.216 447.6 151.039 446.809 151.941C446.024 152.842 444.909 153.922 443.463 155.179L441.08 157.377V157.503H449.152V161.383H434.409ZM456.668 152.864V161.383H451.912V141.468H456.512V149.189H456.678C457.015 148.268 457.566 147.549 458.331 147.03C459.102 146.511 460.046 146.252 461.161 146.252C462.211 146.252 463.125 146.485 463.903 146.952C464.682 147.412 465.285 148.064 465.712 148.906C466.147 149.749 466.36 150.735 466.354 151.863V161.383H461.598V152.797C461.605 151.967 461.397 151.319 460.976 150.852C460.555 150.385 459.961 150.152 459.197 150.152C458.697 150.152 458.256 150.262 457.874 150.482C457.498 150.696 457.203 151.004 456.989 151.406C456.781 151.808 456.674 152.294 456.668 152.864ZM484.378 141.468V161.383H479.574V145.96H479.457L475.003 148.683V144.521L479.914 141.468H484.378ZM497.991 141.468V161.383H493.187V145.96H493.07L488.616 148.683V144.521L493.527 141.468H497.991ZM502.433 161.383V146.446H506.955V149.189H507.121C507.432 148.281 507.957 147.565 508.697 147.04C509.435 146.514 510.317 146.252 511.342 146.252C512.379 146.252 513.267 146.518 514.007 147.05C514.745 147.581 515.215 148.294 515.416 149.189H515.572C515.851 148.3 516.395 147.59 517.206 147.059C518.016 146.521 518.973 146.252 520.075 146.252C521.488 146.252 522.636 146.706 523.518 147.613C524.4 148.515 524.84 149.753 524.84 151.329V161.383H520.085V152.417C520.085 151.672 519.893 151.105 519.51 150.715C519.129 150.32 518.633 150.122 518.022 150.122C517.368 150.122 516.852 150.337 516.477 150.764C516.107 151.186 515.922 151.753 515.922 152.466V161.383H511.352V152.368C511.352 151.675 511.163 151.127 510.787 150.725C510.411 150.324 509.915 150.122 509.299 150.122C508.884 150.122 508.518 150.222 508.201 150.424C507.883 150.618 507.633 150.897 507.451 151.26C507.276 151.623 507.189 152.051 507.189 152.544V161.383H502.433Z" fill="white"/>
<path d="M59.1562 243.174V223.258H67.3839C68.8751 223.258 70.1621 223.55 71.2449 224.133C72.3341 224.71 73.1738 225.517 73.7638 226.555C74.3538 227.585 74.6488 228.785 74.6488 230.153C74.6488 231.527 74.3473 232.73 73.7443 233.761C73.1478 234.785 72.2953 235.579 71.1865 236.143C70.0778 236.707 68.7617 236.989 67.2381 236.989H62.1614V233.196H66.3433C67.0695 233.196 67.6756 233.07 68.1619 232.818C68.6547 232.564 69.0275 232.211 69.2804 231.757C69.5332 231.297 69.6597 230.762 69.6597 230.153C69.6597 229.537 69.5332 229.005 69.2804 228.558C69.0275 228.104 68.6547 227.754 68.1619 227.508C67.6692 227.261 67.0629 227.138 66.3433 227.138H63.9703V243.174H59.1562ZM81.7778 234.655V243.174H77.0216V223.258H81.6218V230.98H81.7869C82.1247 230.058 82.6754 229.339 83.4407 228.821C84.2121 228.302 85.1555 228.043 86.2707 228.043C87.3213 228.043 88.2349 228.276 89.0132 228.742C89.7914 229.203 90.3939 229.855 90.8222 230.697C91.2566 231.54 91.4704 232.525 91.4643 233.654V243.174H86.7081V234.588C86.715 233.758 86.5073 233.109 86.0858 232.643C85.6644 232.175 85.071 231.942 84.3065 231.942C83.8067 231.942 83.3662 232.052 82.9835 232.273C82.6077 232.487 82.3126 232.795 82.0988 233.196C81.8911 233.599 81.7838 234.085 81.7778 234.655ZM101.406 243.457C99.837 243.457 98.4882 243.136 97.36 242.494C96.2387 241.845 95.373 240.944 94.7636 239.79C94.1604 238.629 93.8591 237.284 93.8591 235.755C93.8591 234.218 94.1604 232.872 94.7636 231.718C95.373 230.558 96.2387 229.657 97.36 229.015C98.4882 228.367 99.837 228.043 101.406 228.043C102.975 228.043 104.32 228.367 105.442 229.015C106.57 229.657 107.435 230.558 108.039 231.718C108.648 232.872 108.953 234.218 108.953 235.755C108.953 237.284 108.648 238.629 108.039 239.79C107.435 240.944 106.57 241.845 105.442 242.494C104.32 243.136 102.975 243.457 101.406 243.457ZM101.435 239.868C102.006 239.868 102.488 239.693 102.884 239.343C103.279 238.993 103.581 238.507 103.788 237.884C104.003 237.262 104.109 236.542 104.109 235.725C104.109 234.895 104.003 234.169 103.788 233.547C103.581 232.924 103.279 232.438 102.884 232.088C102.488 231.738 102.006 231.563 101.435 231.563C100.845 231.563 100.346 231.738 99.9374 232.088C99.535 232.438 99.2277 232.924 99.0131 233.547C98.8062 234.169 98.702 234.895 98.702 235.725C98.702 236.542 98.8062 237.262 99.0131 237.884C99.2277 238.507 99.535 238.993 99.9374 239.343C100.346 239.693 100.845 239.868 101.435 239.868ZM119.821 228.237V231.738H110.397V228.237H119.821ZM112.371 224.658H117.127V238.477C117.127 238.769 117.172 239.006 117.263 239.187C117.36 239.363 117.5 239.489 117.681 239.566C117.863 239.638 118.08 239.674 118.333 239.674C118.515 239.674 118.706 239.657 118.907 239.625C119.114 239.586 119.269 239.553 119.374 239.528L120.093 242.961C119.867 243.025 119.546 243.106 119.13 243.203C118.722 243.301 118.233 243.362 117.662 243.388C116.547 243.44 115.59 243.311 114.792 242.999C114.002 242.681 113.396 242.189 112.974 241.521C112.559 240.854 112.358 240.014 112.371 239.003V224.658ZM129.06 243.457C127.491 243.457 126.143 243.136 125.015 242.494C123.892 241.845 123.027 240.944 122.417 239.79C121.815 238.629 121.513 237.284 121.513 235.755C121.513 234.218 121.815 232.872 122.417 231.718C123.027 230.558 123.892 229.657 125.015 229.015C126.143 228.367 127.491 228.043 129.06 228.043C130.629 228.043 131.975 228.367 133.096 229.015C134.224 229.657 135.09 230.558 135.692 231.718C136.302 232.872 136.607 234.218 136.607 235.755C136.607 237.284 136.302 238.629 135.692 239.79C135.09 240.944 134.224 241.845 133.096 242.494C131.975 243.136 130.629 243.457 129.06 243.457ZM129.089 239.868C129.66 239.868 130.143 239.693 130.538 239.343C130.934 238.993 131.235 238.507 131.443 237.884C131.657 237.262 131.764 236.542 131.764 235.725C131.764 234.895 131.657 234.169 131.443 233.547C131.235 232.924 130.934 232.438 130.538 232.088C130.143 231.738 129.66 231.563 129.089 231.563C128.5 231.563 128 231.738 127.591 232.088C127.189 232.438 126.881 232.924 126.668 233.547C126.46 234.169 126.356 234.895 126.356 235.725C126.356 236.542 126.46 237.262 126.668 237.884C126.881 238.507 127.189 238.993 127.591 239.343C128 239.693 128.5 239.868 129.089 239.868ZM152.085 232.798L147.718 232.915C147.672 232.604 147.549 232.328 147.348 232.088C147.148 231.842 146.885 231.651 146.561 231.514C146.243 231.371 145.873 231.3 145.452 231.3C144.901 231.3 144.431 231.41 144.042 231.631C143.66 231.851 143.472 232.15 143.478 232.525C143.472 232.818 143.588 233.07 143.828 233.284C144.074 233.498 144.512 233.67 145.141 233.8L148.019 234.344C149.511 234.629 150.62 235.103 151.345 235.764C152.079 236.425 152.448 237.3 152.455 238.39C152.448 239.414 152.143 240.306 151.54 241.064C150.944 241.823 150.127 242.412 149.09 242.834C148.052 243.249 146.865 243.457 145.53 243.457C143.397 243.457 141.714 243.018 140.483 242.144C139.257 241.262 138.557 240.082 138.382 238.603L143.079 238.487C143.183 239.032 143.452 239.446 143.886 239.731C144.321 240.017 144.875 240.16 145.549 240.16C146.159 240.16 146.655 240.046 147.037 239.819C147.42 239.592 147.615 239.291 147.621 238.914C147.615 238.577 147.466 238.309 147.173 238.107C146.882 237.9 146.425 237.738 145.803 237.621L143.196 237.125C141.698 236.853 140.583 236.351 139.851 235.618C139.118 234.879 138.754 233.939 138.761 232.798C138.754 231.8 139.021 230.947 139.558 230.24C140.097 229.527 140.862 228.983 141.854 228.606C142.846 228.23 144.016 228.043 145.364 228.043C147.387 228.043 148.982 228.467 150.149 229.317C151.316 230.159 151.962 231.32 152.085 232.798ZM159.551 234.655V243.174H154.796V223.258H159.396V230.98H159.561C159.898 230.058 160.449 229.339 161.214 228.821C161.986 228.302 162.929 228.043 164.044 228.043C165.095 228.043 166.009 228.276 166.787 228.742C167.565 229.203 168.168 229.855 168.596 230.697C169.03 231.54 169.245 232.525 169.238 233.654V243.174H164.483V234.588C164.489 233.758 164.281 233.109 163.86 232.643C163.438 232.175 162.845 231.942 162.08 231.942C161.581 231.942 161.14 232.052 160.757 232.273C160.381 232.487 160.086 232.795 159.873 233.196C159.665 233.599 159.558 234.085 159.551 234.655ZM179.18 243.457C177.611 243.457 176.262 243.136 175.134 242.494C174.012 241.845 173.147 240.944 172.537 239.79C171.934 238.629 171.633 237.284 171.633 235.755C171.633 234.218 171.934 232.872 172.537 231.718C173.147 230.558 174.012 229.657 175.134 229.015C176.262 228.367 177.611 228.043 179.18 228.043C180.749 228.043 182.095 228.367 183.216 229.015C184.344 229.657 185.21 230.558 185.812 231.718C186.422 232.872 186.727 234.218 186.727 235.755C186.727 237.284 186.422 238.629 185.812 239.79C185.21 240.944 184.344 241.845 183.216 242.494C182.095 243.136 180.749 243.457 179.18 243.457ZM179.209 239.868C179.78 239.868 180.263 239.693 180.658 239.343C181.054 238.993 181.355 238.507 181.563 237.884C181.777 237.262 181.884 236.542 181.884 235.725C181.884 234.895 181.777 234.169 181.563 233.547C181.355 232.924 181.054 232.438 180.658 232.088C180.263 231.738 179.78 231.563 179.209 231.563C178.619 231.563 178.12 231.738 177.711 232.088C177.309 232.438 177.001 232.924 176.788 233.547C176.58 234.169 176.476 234.895 176.476 235.725C176.476 236.542 176.58 237.262 176.788 237.884C177.001 238.507 177.309 238.993 177.711 239.343C178.12 239.693 178.619 239.868 179.209 239.868ZM189.163 248.776V228.237H193.87V230.795H194.016C194.21 230.341 194.486 229.903 194.842 229.482C195.206 229.06 195.666 228.717 196.224 228.451C196.788 228.179 197.462 228.043 198.247 228.043C199.284 228.043 200.253 228.315 201.154 228.86C202.062 229.404 202.794 230.243 203.352 231.378C203.91 232.512 204.189 233.959 204.189 235.715C204.189 237.408 203.919 238.824 203.382 239.965C202.85 241.106 202.13 241.962 201.223 242.532C200.321 243.103 199.319 243.388 198.217 243.388C197.465 243.388 196.813 243.265 196.263 243.018C195.711 242.772 195.248 242.448 194.872 242.046C194.502 241.645 194.217 241.213 194.016 240.753H193.919V248.776H189.163ZM193.821 235.706C193.821 236.51 193.929 237.21 194.142 237.806C194.363 238.403 194.677 238.867 195.086 239.197C195.5 239.521 195.996 239.683 196.574 239.683C197.157 239.683 197.653 239.521 198.062 239.197C198.47 238.867 198.778 238.403 198.985 237.806C199.2 237.21 199.306 236.51 199.306 235.706C199.306 234.902 199.2 234.205 198.985 233.615C198.778 233.025 198.47 232.568 198.062 232.244C197.659 231.919 197.163 231.757 196.574 231.757C195.99 231.757 195.494 231.916 195.086 232.234C194.677 232.551 194.363 233.005 194.142 233.596C193.929 234.185 193.821 234.889 193.821 235.706Z" fill="white"/>
<path d="M369.171 223.257V243.173H364.367V227.749H364.251L359.797 230.473V226.31L364.708 223.257H369.171ZM378.37 234.654V243.173H373.614V223.257H378.214V230.979H378.38C378.717 230.057 379.267 229.338 380.033 228.82C380.804 228.301 381.747 228.041 382.863 228.041C383.913 228.041 384.828 228.275 385.605 228.741C386.383 229.202 386.987 229.853 387.414 230.696C387.848 231.539 388.062 232.524 388.056 233.652V243.173H383.301V234.587C383.307 233.757 383.099 233.108 382.678 232.641C382.256 232.174 381.664 231.941 380.898 231.941C380.399 231.941 379.958 232.051 379.575 232.272C379.2 232.485 378.904 232.794 378.691 233.195C378.483 233.598 378.376 234.084 378.37 234.654ZM396.87 243.173V239.711L404.134 233.351C404.679 232.858 405.143 232.408 405.525 231.999C405.908 231.584 406.2 231.169 406.401 230.755C406.602 230.333 406.702 229.876 406.702 229.383C406.702 228.833 406.583 228.363 406.342 227.973C406.103 227.577 405.772 227.273 405.35 227.059C404.929 226.845 404.446 226.738 403.901 226.738C403.35 226.738 402.867 226.852 402.452 227.078C402.037 227.299 401.713 227.62 401.479 228.041C401.253 228.463 401.139 228.975 401.139 229.578H396.578C396.578 228.223 396.883 227.053 397.492 226.067C398.102 225.082 398.958 224.323 400.06 223.791C401.168 223.254 402.455 222.984 403.921 222.984C405.431 222.984 406.745 223.237 407.86 223.743C408.974 224.249 409.837 224.955 410.446 225.863C411.063 226.764 411.371 227.811 411.371 229.004C411.371 229.763 411.218 230.515 410.913 231.26C410.608 232.005 410.061 232.829 409.269 233.731C408.485 234.631 407.37 235.711 405.924 236.969L403.541 239.167V239.293H411.613V243.173H396.87ZM422.572 243.659C420.834 243.659 419.336 243.248 418.078 242.425C416.821 241.595 415.851 240.405 415.171 238.856C414.49 237.299 414.153 235.429 414.159 233.244C414.166 231.059 414.506 229.205 415.18 227.682C415.861 226.151 416.827 224.988 418.078 224.19C419.336 223.387 420.834 222.984 422.572 222.984C424.309 222.984 425.807 223.387 427.065 224.19C428.329 224.988 429.301 226.151 429.982 227.682C430.663 229.211 431 231.066 430.994 233.244C430.994 235.435 430.653 237.309 429.972 238.865C429.291 240.421 428.322 241.611 427.065 242.434C425.813 243.251 424.315 243.659 422.572 243.659ZM422.572 239.721C423.609 239.721 424.449 239.193 425.091 238.136C425.733 237.072 426.05 235.442 426.044 233.244C426.044 231.805 425.898 230.619 425.606 229.685C425.314 228.745 424.909 228.045 424.39 227.584C423.871 227.124 423.266 226.894 422.572 226.894C421.541 226.894 420.707 227.415 420.072 228.46C419.437 229.497 419.116 231.092 419.11 233.244C419.103 234.703 419.242 235.912 419.527 236.872C419.819 237.831 420.228 238.547 420.753 239.021C421.278 239.488 421.884 239.721 422.572 239.721ZM433.79 243.173V228.236H438.312V230.979H438.477C438.789 230.07 439.313 229.354 440.053 228.829C440.792 228.304 441.674 228.041 442.698 228.041C443.736 228.041 444.624 228.307 445.363 228.839C446.102 229.37 446.572 230.083 446.773 230.979H446.928C447.208 230.09 447.752 229.38 448.563 228.849C449.373 228.311 450.33 228.041 451.431 228.041C452.845 228.041 453.993 228.495 454.874 229.403C455.756 230.304 456.197 231.542 456.197 233.118V243.173H451.441V234.207C451.441 233.461 451.25 232.894 450.868 232.505C450.485 232.11 449.989 231.912 449.38 231.912C448.725 231.912 448.21 232.126 447.833 232.554C447.464 232.975 447.279 233.542 447.279 234.256V243.173H442.708V234.158C442.708 233.465 442.52 232.917 442.144 232.515C441.768 232.113 441.272 231.912 440.656 231.912C440.241 231.912 439.875 232.012 439.557 232.213C439.239 232.408 438.989 232.686 438.808 233.05C438.633 233.413 438.546 233.84 438.546 234.333V243.173H433.79Z" fill="white"/>
<path d="M63.9292 323.407L58.1328 303.49H63.4526L66.4578 316.541H66.6232L70.0562 303.49H74.3937L77.8265 316.57H77.9924L81.0072 303.49H86.3172L80.5302 323.407H75.8914L72.3028 311.328H72.1471L68.5585 323.407H63.9292ZM93.0619 314.888V323.407H88.3058V303.49H92.906V311.211H93.071C93.4088 310.291 93.9596 309.571 94.7249 309.052C95.4963 308.534 96.4396 308.274 97.5549 308.274C98.6054 308.274 99.5191 308.508 100.297 308.975C101.076 309.435 101.678 310.087 102.106 310.93C102.541 311.772 102.755 312.758 102.748 313.886V323.407H97.9923V314.819C97.9991 313.989 97.7914 313.341 97.37 312.874C96.9485 312.408 96.3552 312.174 95.5899 312.174C95.0908 312.174 94.6503 312.285 94.2677 312.505C93.8919 312.719 93.5967 313.027 93.3822 313.429C93.1753 313.83 93.068 314.317 93.0619 314.888ZM109.928 323.659C108.975 323.659 108.128 323.5 107.39 323.182C106.657 322.858 106.077 322.372 105.648 321.724C105.227 321.069 105.016 320.249 105.016 319.264C105.016 318.434 105.162 317.734 105.454 317.163C105.746 316.592 106.148 316.129 106.66 315.772C107.172 315.416 107.762 315.147 108.43 314.965C109.098 314.777 109.811 314.651 110.57 314.586C111.419 314.508 112.103 314.428 112.622 314.343C113.14 314.252 113.517 314.126 113.75 313.963C113.99 313.795 114.11 313.559 114.11 313.254V313.205C114.11 312.706 113.938 312.32 113.594 312.048C113.25 311.776 112.787 311.64 112.204 311.64C111.575 311.64 111.069 311.776 110.687 312.048C110.304 312.32 110.061 312.696 109.957 313.176L105.571 313.02C105.701 312.113 106.035 311.303 106.573 310.589C107.117 309.869 107.863 309.306 108.809 308.897C109.762 308.482 110.907 308.274 112.243 308.274C113.196 308.274 114.074 308.388 114.878 308.615C115.682 308.836 116.382 309.16 116.979 309.587C117.575 310.009 118.036 310.527 118.36 311.144C118.691 311.759 118.856 312.463 118.856 313.254V323.407H114.382V321.326H114.265C114 321.831 113.659 322.259 113.244 322.609C112.836 322.959 112.353 323.222 111.795 323.397C111.244 323.572 110.621 323.659 109.928 323.659ZM111.397 320.547C111.909 320.547 112.369 320.444 112.777 320.236C113.193 320.029 113.523 319.743 113.769 319.38C114.016 319.011 114.139 318.583 114.139 318.096V316.677C114.003 316.748 113.838 316.813 113.643 316.872C113.455 316.929 113.247 316.985 113.021 317.037C112.793 317.088 112.56 317.134 112.32 317.173C112.08 317.212 111.85 317.247 111.63 317.28C111.183 317.351 110.8 317.461 110.482 317.61C110.171 317.759 109.931 317.954 109.762 318.194C109.6 318.427 109.519 318.706 109.519 319.031C109.519 319.523 109.695 319.899 110.045 320.159C110.402 320.418 110.852 320.547 111.397 320.547ZM130.195 308.469V311.97H120.772V308.469H130.195ZM122.746 304.891H127.501V318.709C127.501 319.001 127.547 319.237 127.638 319.419C127.735 319.594 127.874 319.72 128.056 319.799C128.238 319.87 128.455 319.905 128.708 319.905C128.889 319.905 129.081 319.889 129.282 319.857C129.489 319.818 129.644 319.786 129.748 319.759L130.468 323.192C130.241 323.258 129.92 323.338 129.505 323.436C129.097 323.533 128.607 323.595 128.036 323.621C126.921 323.672 125.965 323.543 125.168 323.231C124.376 322.914 123.77 322.421 123.349 321.753C122.934 321.085 122.733 320.246 122.746 319.234V304.891ZM145.476 313.03L141.11 313.147C141.065 312.835 140.942 312.56 140.741 312.32C140.539 312.074 140.277 311.882 139.953 311.746C139.635 311.604 139.266 311.532 138.844 311.532C138.293 311.532 137.822 311.643 137.434 311.863C137.051 312.084 136.863 312.382 136.87 312.758C136.863 313.049 136.98 313.302 137.22 313.516C137.466 313.73 137.904 313.902 138.533 314.032L141.412 314.577C142.903 314.862 144.011 315.335 144.738 315.996C145.47 316.657 145.84 317.533 145.846 318.622C145.84 319.646 145.535 320.537 144.932 321.296C144.335 322.055 143.519 322.645 142.481 323.066C141.444 323.481 140.258 323.688 138.922 323.688C136.789 323.688 135.106 323.251 133.874 322.375C132.649 321.494 131.949 320.314 131.774 318.836L136.471 318.719C136.575 319.264 136.843 319.679 137.278 319.964C137.713 320.249 138.267 320.391 138.942 320.391C139.551 320.391 140.047 320.278 140.43 320.051C140.811 319.825 141.006 319.523 141.013 319.147C141.006 318.81 140.857 318.541 140.566 318.34C140.274 318.132 139.816 317.97 139.194 317.854L136.588 317.358C135.09 317.085 133.975 316.583 133.242 315.85C132.509 315.111 132.147 314.171 132.153 313.03C132.147 312.031 132.412 311.179 132.951 310.473C133.489 309.759 134.254 309.214 135.246 308.839C136.238 308.463 137.408 308.274 138.757 308.274C140.779 308.274 142.374 308.699 143.541 309.548C144.709 310.391 145.354 311.552 145.476 313.03ZM152.399 323.659C151.446 323.659 150.599 323.5 149.86 323.182C149.128 322.858 148.547 322.372 148.12 321.724C147.698 321.069 147.488 320.249 147.488 319.264C147.488 318.434 147.633 317.734 147.925 317.163C148.216 316.592 148.619 316.129 149.131 315.772C149.643 315.416 150.233 315.147 150.901 314.965C151.569 314.777 152.282 314.651 153.04 314.586C153.89 314.508 154.574 314.428 155.093 314.343C155.612 314.252 155.987 314.126 156.221 313.963C156.461 313.795 156.581 313.559 156.581 313.254V313.205C156.581 312.706 156.409 312.32 156.065 312.048C155.721 311.776 155.258 311.64 154.674 311.64C154.045 311.64 153.54 311.776 153.157 312.048C152.775 312.32 152.531 312.696 152.428 313.176L148.042 313.02C148.172 312.113 148.506 311.303 149.043 310.589C149.588 309.869 150.334 309.306 151.28 308.897C152.233 308.482 153.377 308.274 154.713 308.274C155.666 308.274 156.545 308.388 157.349 308.615C158.153 308.836 158.853 309.16 159.45 309.587C160.046 310.009 160.506 310.527 160.83 311.144C161.161 311.759 161.326 312.463 161.326 313.254V323.407H156.853V321.326H156.736C156.471 321.831 156.13 322.259 155.715 322.609C155.307 322.959 154.824 323.222 154.266 323.397C153.715 323.572 153.092 323.659 152.399 323.659ZM153.867 320.547C154.379 320.547 154.84 320.444 155.248 320.236C155.663 320.029 155.994 319.743 156.24 319.38C156.487 319.011 156.61 318.583 156.61 318.096V316.677C156.474 316.748 156.309 316.813 156.114 316.872C155.926 316.929 155.718 316.985 155.491 317.037C155.265 317.088 155.031 317.134 154.791 317.173C154.551 317.212 154.321 317.247 154.101 317.28C153.654 317.351 153.271 317.461 152.953 317.61C152.642 317.759 152.402 317.954 152.233 318.194C152.071 318.427 151.991 318.706 151.991 319.031C151.991 319.523 152.165 319.899 152.515 320.159C152.872 320.418 153.323 320.547 153.867 320.547ZM164.235 329.008V308.469H168.941V311.026H169.087C169.282 310.573 169.558 310.136 169.914 309.714C170.277 309.293 170.737 308.949 171.295 308.683C171.86 308.41 172.534 308.274 173.318 308.274C174.356 308.274 175.325 308.547 176.226 309.091C177.134 309.636 177.866 310.476 178.424 311.61C178.982 312.745 179.26 314.19 179.26 315.947C179.26 317.64 178.992 319.056 178.453 320.197C177.921 321.338 177.202 322.194 176.294 322.765C175.392 323.335 174.391 323.621 173.289 323.621C172.537 323.621 171.885 323.497 171.334 323.251C170.783 323.004 170.319 322.68 169.943 322.279C169.574 321.876 169.288 321.445 169.087 320.985H168.99V329.008H164.235ZM168.893 315.938C168.893 316.742 169 317.442 169.214 318.039C169.434 318.635 169.749 319.098 170.157 319.429C170.572 319.753 171.068 319.915 171.645 319.915C172.229 319.915 172.725 319.753 173.133 319.429C173.542 319.098 173.85 318.635 174.057 318.039C174.271 317.442 174.378 316.742 174.378 315.938C174.378 315.134 174.271 314.437 174.057 313.847C173.85 313.257 173.542 312.8 173.133 312.476C172.731 312.152 172.235 311.989 171.645 311.989C171.062 311.989 170.566 312.148 170.157 312.466C169.749 312.784 169.434 313.238 169.214 313.827C169 314.418 168.893 315.121 168.893 315.938ZM181.752 329.008V308.469H186.46V311.026H186.605C186.8 310.573 187.075 310.136 187.432 309.714C187.795 309.293 188.255 308.949 188.813 308.683C189.377 308.41 190.051 308.274 190.836 308.274C191.873 308.274 192.842 308.547 193.744 309.091C194.651 309.636 195.384 310.476 195.942 311.61C196.499 312.745 196.778 314.19 196.778 315.947C196.778 317.64 196.509 319.056 195.971 320.197C195.44 321.338 194.72 322.194 193.812 322.765C192.911 323.335 191.909 323.621 190.807 323.621C190.054 323.621 189.403 323.497 188.852 323.251C188.301 323.004 187.837 322.68 187.461 322.279C187.092 321.876 186.807 321.445 186.605 320.985H186.508V329.008H181.752ZM186.411 315.938C186.411 316.742 186.518 317.442 186.732 318.039C186.952 318.635 187.267 319.098 187.675 319.429C188.09 319.753 188.586 319.915 189.163 319.915C189.747 319.915 190.243 319.753 190.651 319.429C191.06 319.098 191.367 318.635 191.575 318.039C191.789 317.442 191.896 316.742 191.896 315.938C191.896 315.134 191.789 314.437 191.575 313.847C191.367 313.257 191.06 312.8 190.651 312.476C190.249 312.152 189.753 311.989 189.163 311.989C188.58 311.989 188.084 312.148 187.675 312.466C187.267 312.784 186.952 313.238 186.732 313.827C186.518 314.418 186.411 315.121 186.411 315.938Z" fill="white"/>
<path d="M342.517 323.679C341.065 323.679 339.775 323.417 338.647 322.892C337.519 322.367 336.628 321.644 335.973 320.723C335.324 319.803 334.987 318.746 334.961 317.553H339.63C339.668 318.286 339.967 318.875 340.524 319.323C341.082 319.764 341.746 319.985 342.517 319.985C343.121 319.985 343.655 319.851 344.123 319.585C344.589 319.32 344.956 318.947 345.221 318.467C345.487 317.981 345.617 317.423 345.611 316.794C345.617 316.153 345.484 315.591 345.212 315.112C344.946 314.632 344.576 314.259 344.103 313.994C343.636 313.722 343.098 313.586 342.488 313.586C341.912 313.579 341.363 313.705 340.845 313.964C340.333 314.224 339.944 314.577 339.678 315.025L335.428 314.227L336.294 303.491H349.073V307.371H340.252L339.795 312.068H339.911C340.242 311.517 340.774 311.063 341.506 310.707C342.245 310.343 343.085 310.162 344.025 310.162C345.218 310.162 346.282 310.441 347.215 310.998C348.155 311.549 348.895 312.314 349.433 313.293C349.977 314.272 350.25 315.394 350.25 316.658C350.25 318.026 349.925 319.238 349.277 320.296C348.635 321.352 347.734 322.182 346.573 322.785C345.419 323.381 344.067 323.679 342.517 323.679ZM352.892 323.408V319.945L360.157 313.586C360.701 313.093 361.165 312.642 361.548 312.234C361.931 311.818 362.222 311.404 362.423 310.989C362.624 310.567 362.725 310.11 362.725 309.618C362.725 309.066 362.605 308.596 362.365 308.207C362.125 307.812 361.795 307.508 361.373 307.293C360.952 307.079 360.469 306.972 359.924 306.972C359.372 306.972 358.889 307.086 358.475 307.313C358.059 307.533 357.735 307.854 357.502 308.275C357.275 308.697 357.162 309.209 357.162 309.812H352.6C352.6 308.457 352.905 307.287 353.515 306.301C354.124 305.316 354.98 304.558 356.082 304.026C357.191 303.487 358.478 303.219 359.943 303.219C361.454 303.219 362.767 303.471 363.882 303.977C364.997 304.483 365.859 305.19 366.469 306.097C367.085 306.999 367.393 308.045 367.393 309.238C367.393 309.997 367.241 310.749 366.936 311.494C366.631 312.24 366.083 313.064 365.292 313.964C364.507 314.866 363.392 315.945 361.947 317.203L359.564 319.4V319.527H367.636V323.408H352.892ZM370.396 323.408V308.47H374.918V311.212H375.083C375.394 310.305 375.919 309.588 376.659 309.063C377.398 308.538 378.28 308.275 379.304 308.275C380.341 308.275 381.229 308.541 381.969 309.073C382.708 309.605 383.178 310.318 383.379 311.212H383.534C383.813 310.324 384.358 309.614 385.168 309.083C385.979 308.544 386.935 308.275 388.037 308.275C389.451 308.275 390.599 308.729 391.48 309.637C392.362 310.538 392.803 311.777 392.803 313.352V323.408H388.047V314.441C388.047 313.695 387.856 313.128 387.473 312.739C387.091 312.343 386.595 312.146 385.985 312.146C385.33 312.146 384.815 312.36 384.439 312.788C384.069 313.209 383.885 313.776 383.885 314.49V323.408H379.314V314.393C379.314 313.699 379.126 313.151 378.75 312.749C378.373 312.347 377.877 312.146 377.262 312.146C376.847 312.146 376.481 312.247 376.163 312.448C375.845 312.642 375.595 312.921 375.414 313.284C375.238 313.647 375.151 314.075 375.151 314.568V323.408H370.396Z" fill="white"/>
<path d="M56.5331 443.355C53.6746 443.355 51.1215 442.911 48.8738 442.024C46.6377 441.137 44.8742 439.932 43.5832 438.411C42.3038 436.89 41.6641 435.172 41.6641 433.259C41.6641 431.795 42.0272 430.458 42.7533 429.248C43.491 428.037 44.4823 427.035 45.7271 426.24C46.972 425.433 48.3609 424.914 49.8939 424.683V424.407C47.8768 424.061 46.217 423.168 44.9145 421.727C43.6236 420.275 42.9781 418.564 42.9781 416.593C42.9781 414.737 43.5659 413.089 44.7416 411.648C45.9173 410.196 47.5253 409.055 49.5654 408.225C51.6056 407.395 53.9281 406.98 56.5331 406.98C59.1381 406.98 61.4606 407.401 63.5009 408.242C65.541 409.072 67.1489 410.213 68.3247 411.666C69.5003 413.106 70.0881 414.749 70.0881 416.593C70.0881 418.575 69.4312 420.287 68.1171 421.727C66.8032 423.168 65.1549 424.061 63.1723 424.407V424.683C64.6938 424.914 66.077 425.433 67.3218 426.24C68.5666 427.035 69.558 428.037 70.2957 429.248C71.0334 430.458 71.4022 431.795 71.4022 433.259C71.4022 435.172 70.7567 436.89 69.4658 438.411C68.1863 439.932 66.4228 441.137 64.1751 442.024C61.939 442.911 59.3916 443.355 56.5331 443.355ZM56.5331 436.716C57.4437 436.716 58.2505 436.532 58.9537 436.163C59.6568 435.794 60.21 435.288 60.6135 434.642C61.0285 433.985 61.2359 433.247 61.2359 432.429C61.2359 431.61 61.0285 430.885 60.6135 430.25C60.21 429.617 59.6568 429.121 58.9537 428.764C58.2505 428.395 57.4437 428.211 56.5331 428.211C55.634 428.211 54.8272 428.395 54.1125 428.764C53.4095 429.121 52.8505 429.617 52.4355 430.25C52.0321 430.885 51.8303 431.61 51.8303 432.429C51.8303 433.247 52.0321 433.979 52.4355 434.624C52.8505 435.27 53.4095 435.783 54.1125 436.163C54.8272 436.532 55.634 436.716 56.5331 436.716ZM56.5331 421.571C57.34 421.571 58.0546 421.405 58.677 421.07C59.2994 420.736 59.7894 420.275 60.1467 419.687C60.504 419.099 60.6826 418.437 60.6826 417.699C60.6826 416.962 60.504 416.31 60.1467 415.745C59.7894 415.169 59.2994 414.72 58.677 414.397C58.0546 414.063 57.34 413.895 56.5331 413.895C55.7378 413.895 55.0232 414.063 54.3892 414.397C53.7668 414.72 53.2769 415.169 52.9196 415.745C52.5623 416.31 52.3836 416.962 52.3836 417.699C52.3836 418.437 52.5623 419.099 52.9196 419.687C53.2769 420.264 53.7668 420.725 54.3892 421.07C55.0232 421.405 55.7378 421.571 56.5331 421.571ZM85.307 427.934V442.871H75.7635V407.464H84.9616V421.364H85.2385C85.8372 419.67 86.8346 418.351 88.229 417.405C89.6242 416.449 91.3009 415.97 93.2606 415.97C95.1396 415.97 96.7706 416.396 98.1537 417.25C99.5481 418.103 100.626 419.278 101.387 420.776C102.159 422.275 102.539 423.992 102.528 425.929V442.871H92.9837V427.934C92.9951 426.62 92.6672 425.589 91.9985 424.839C91.3412 424.09 90.4017 423.716 89.1799 423.716C88.4078 423.716 87.7277 423.888 87.1404 424.234C86.5637 424.569 86.1142 425.052 85.7916 425.686C85.4805 426.309 85.3192 427.058 85.307 427.934ZM116.869 442.871V435.955L130.079 425.03C130.955 424.303 131.704 423.623 132.326 422.989C132.961 422.344 133.444 421.681 133.778 421.001C134.125 420.321 134.297 419.566 134.297 418.736C134.297 417.826 134.102 417.048 133.709 416.402C133.329 415.757 132.799 415.261 132.119 414.915C131.439 414.559 130.655 414.38 129.768 414.38C128.88 414.38 128.096 414.559 127.416 414.915C126.748 415.273 126.229 415.797 125.86 416.489C125.491 417.181 125.307 418.022 125.307 419.013H116.178C116.178 416.523 116.737 414.38 117.855 412.581C118.973 410.784 120.552 409.4 122.593 408.433C124.633 407.464 127.025 406.98 129.768 406.98C132.603 406.98 135.058 407.435 137.133 408.346C139.219 409.245 140.827 410.513 141.956 412.149C143.098 413.786 143.668 415.705 143.668 417.906C143.668 419.266 143.386 420.621 142.821 421.969C142.256 423.307 141.242 424.788 139.778 426.412C138.314 428.037 136.234 429.974 133.537 432.221L130.217 434.988V435.195H144.048V442.871H116.869ZM162.177 443.355C159.387 443.355 156.91 442.877 154.742 441.92C152.587 440.952 150.893 439.621 149.659 437.926C148.426 436.232 147.804 434.285 147.792 432.083H157.474C157.485 432.764 157.693 433.374 158.096 433.916C158.512 434.446 159.076 434.861 159.791 435.16C160.506 435.46 161.324 435.61 162.246 435.61C163.133 435.61 163.918 435.454 164.598 435.143C165.278 434.82 165.808 434.377 166.188 433.812C166.569 433.247 166.753 432.602 166.741 431.876C166.753 431.161 166.534 430.527 166.084 429.974C165.646 429.421 165.03 428.988 164.234 428.677C163.439 428.366 162.522 428.211 161.485 428.211H157.889V421.571H161.485C162.442 421.571 163.283 421.416 164.01 421.105C164.748 420.794 165.318 420.361 165.721 419.808C166.136 419.255 166.338 418.621 166.326 417.906C166.338 417.215 166.171 416.604 165.825 416.074C165.479 415.544 164.995 415.129 164.372 414.829C163.762 414.53 163.053 414.38 162.246 414.38C161.37 414.38 160.586 414.535 159.895 414.846C159.215 415.158 158.678 415.59 158.287 416.143C157.895 416.696 157.693 417.331 157.682 418.045H148.484C148.495 415.878 149.088 413.964 150.265 412.305C151.451 410.646 153.077 409.343 155.14 408.398C157.203 407.453 159.572 406.98 162.246 406.98C164.862 406.98 167.174 407.424 169.179 408.312C171.196 409.199 172.77 410.42 173.899 411.977C175.04 413.521 175.605 415.29 175.593 417.284C175.617 419.266 174.937 420.891 173.553 422.159C172.181 423.427 170.442 424.177 168.332 424.407V424.683C171.19 424.995 173.34 425.871 174.781 427.312C176.222 428.741 176.931 430.538 176.908 432.706C176.919 434.78 176.296 436.619 175.04 438.221C173.796 439.823 172.061 441.079 169.836 441.989C167.623 442.9 165.07 443.355 162.177 443.355ZM181.269 442.871V416.316H190.329V421.364H190.605C191.158 419.705 192.104 418.391 193.44 417.423C194.778 416.454 196.369 415.97 198.213 415.97C200.08 415.97 201.688 416.466 203.036 417.457C204.385 418.437 205.198 419.739 205.475 421.364H205.751C206.2 419.739 207.157 418.437 208.621 417.457C210.085 416.466 211.802 415.97 213.774 415.97C216.32 415.97 218.384 416.789 219.963 418.425C221.554 420.062 222.349 422.24 222.349 424.96V442.871H212.805V427.381C212.805 426.216 212.511 425.306 211.923 424.649C211.335 423.981 210.546 423.647 209.554 423.647C208.575 423.647 207.797 423.981 207.221 424.649C206.656 425.306 206.373 426.216 206.373 427.381V442.871H197.244V427.381C197.244 426.216 196.95 425.306 196.362 424.649C195.775 423.981 194.985 423.647 193.994 423.647C193.337 423.647 192.772 423.796 192.299 424.096C191.827 424.396 191.458 424.828 191.193 425.392C190.94 425.945 190.813 426.609 190.813 427.381V442.871H181.269Z" fill="white"/>
</g>
</g>
<defs>
<clipPath id="clip0_1065_5">
<rect width="720" height="480" fill="white"/>
</clipPath>
<clipPath id="clip1_1065_5">
<rect width="779" height="480" fill="white"/>
</clipPath>
</defs>
</svg>
